<svg width="441.000000" height="130.000000" viewBox="0 0 441 130" fill="none" xmlns="http://www.w3.org/2000/svg" xmlns:xlink="http://www.w3.org/1999/xlink">
	<desc>
			Created with Pixso.
	</desc>
	<defs/>
	<path id="Vector" d="M0 0L130 0L130 130L0 130L0 0Z" fill="#FFFFFF" fill-opacity="1.000000" fill-rule="evenodd"/>
	<path id="Vector" d="M19.91 16L16 16L16 43.43L43.44 43.43L43.44 16L19.91 16ZM19.91 19.91L39.51 19.91L39.51 39.52L19.91 39.52L19.91 19.91ZM51.28 16L47.36 16L47.36 19.91L51.28 19.91L51.28 27.76L55.2 27.76L55.2 16L51.28 16ZM63.04 16L59.12 16L59.12 31.67L63.04 31.67L63.04 23.84L66.96 23.84L66.96 19.91L70.87 19.91L70.87 16L63.04 16ZM82.63 16L78.71 16L78.71 23.84L66.96 23.84L66.96 27.76L70.87 27.76L70.87 31.67L63.04 31.67L63.04 43.43L59.12 43.43L59.12 47.36L66.96 47.36L66.96 35.6L74.79 35.6L74.79 39.52L78.71 39.52L78.71 35.6L82.63 35.6L82.63 16ZM90.48 16L86.55 16L86.55 43.43L114 43.43L114 16L90.48 16ZM90.48 19.91L110.08 19.91L110.08 39.52L90.48 39.52L90.48 19.91ZM27.75 23.84L23.83 23.84L23.83 35.6L35.59 35.6L35.59 23.84L27.75 23.84ZM74.79 27.76L78.71 27.76L78.71 31.67L74.79 31.67L74.79 27.76ZM98.32 23.84L94.4 23.84L94.4 35.6L106.16 35.6L106.16 23.84L98.32 23.84ZM51.28 31.67L47.36 31.67L47.36 35.6L51.28 35.6L51.28 31.67ZM51.28 39.52L47.36 39.52L47.36 47.36L27.75 47.36L27.75 51.28L47.36 51.28L47.36 55.2L51.28 55.2L51.28 59.12L55.2 59.12L55.2 55.2L59.12 55.2L59.12 66.96L55.2 66.96L55.2 78.72L59.12 78.72L59.12 82.63L55.2 82.63L55.2 94.39L59.12 94.39L59.12 86.56L63.04 86.56L63.04 94.39L66.96 94.39L66.96 82.63L63.04 82.63L63.04 74.8L59.12 74.8L59.12 70.87L66.96 70.87L66.96 74.8L70.87 74.8L70.87 66.96L66.96 66.96L66.96 63.04L63.04 63.04L63.04 59.12L66.96 59.12L66.96 55.2L74.79 55.2L74.79 47.36L78.71 47.36L78.71 51.28L90.48 51.28L90.48 47.36L82.63 47.36L82.63 39.52L78.71 39.52L78.71 43.43L74.79 43.43L74.79 39.52L70.87 39.52L70.87 51.28L51.28 51.28L51.28 39.52ZM59.12 39.52L55.2 39.52L55.2 43.43L59.12 43.43L59.12 39.52ZM19.91 47.36L16 47.36L16 51.28L19.91 51.28L19.91 47.36ZM98.32 47.36L94.4 47.36L94.4 59.12L98.32 59.12L98.32 47.36ZM114 47.36L110.08 47.36L110.08 51.28L106.16 51.28L106.16 55.2L110.08 55.2L110.08 63.04L114 63.04L114 47.36ZM23.83 51.28L19.91 51.28L19.91 55.2L23.83 55.2L23.83 59.12L31.67 59.12L31.67 63.04L39.51 63.04L39.51 59.12L47.36 59.12L47.36 55.2L27.75 55.2L27.75 51.28L23.83 51.28ZM90.48 55.2L86.55 55.2L86.55 63.04L82.63 63.04L82.63 66.96L86.55 66.96L86.55 78.72L82.63 78.72L82.63 66.96L78.71 66.96L78.71 70.87L74.79 70.87L74.79 74.8L78.71 74.8L78.71 98.32L86.55 98.32L86.55 106.16L94.4 106.16L94.4 102.24L90.48 102.24L90.48 98.32L98.32 98.32L98.32 90.48L102.24 90.48L102.24 94.39L106.16 94.39L106.16 90.48L110.08 90.48L110.08 94.39L106.16 94.39L106.16 98.32L114 98.32L114 82.63L110.08 82.63L110.08 86.56L106.16 86.56L106.16 78.72L110.08 78.72L110.08 74.8L114 74.8L114 66.96L110.08 66.96L110.08 70.87L106.16 70.87L106.16 74.8L102.24 74.8L102.24 82.63L98.32 82.63L98.32 78.72L94.4 78.72L94.4 74.8L90.48 74.8L90.48 70.87L98.32 70.87L98.32 74.8L102.24 74.8L102.24 66.96L98.32 66.96L98.32 63.04L94.4 63.04L94.4 66.96L90.48 66.96L90.48 63.04L94.4 63.04L94.4 59.12L90.48 59.12L90.48 55.2ZM19.91 59.12L16 59.12L16 66.96L23.83 66.96L23.83 63.04L19.91 63.04L19.91 59.12ZM51.28 59.12L47.36 59.12L47.36 70.87L39.51 70.87L39.51 66.96L31.67 66.96L31.67 70.87L27.75 70.87L27.75 74.8L23.83 74.8L23.83 78.72L19.91 78.72L19.91 82.63L35.59 82.63L35.59 78.72L31.67 78.72L31.67 74.8L35.59 74.8L35.59 78.72L39.51 78.72L39.51 74.8L47.36 74.8L47.36 102.24L51.28 102.24L51.28 98.32L55.2 98.32L55.2 94.39L51.28 94.39L51.28 59.12ZM82.63 59.12L78.71 59.12L78.71 63.04L82.63 63.04L82.63 59.12ZM43.44 63.04L39.51 63.04L39.51 66.96L43.44 66.96L43.44 63.04ZM78.71 63.04L74.79 63.04L74.79 66.96L78.71 66.96L78.71 63.04ZM110.08 63.04L106.16 63.04L106.16 66.96L110.08 66.96L110.08 63.04ZM27.75 66.96L23.83 66.96L23.83 70.87L27.75 70.87L27.75 66.96ZM43.44 78.72L39.51 78.72L39.51 82.63L43.44 82.63L43.44 78.72ZM70.87 78.72L66.96 78.72L66.96 82.63L70.87 82.63L70.87 86.56L74.79 86.56L74.79 78.72L70.87 78.72ZM82.63 82.63L94.4 82.63L94.4 94.39L82.63 94.39L82.63 82.63ZM19.91 86.56L16 86.56L16 114L43.44 114L43.44 86.56L19.91 86.56ZM19.91 90.48L39.51 90.48L39.51 110.08L19.91 110.08L19.91 90.48ZM90.48 86.56L86.55 86.56L86.55 90.48L90.48 90.48L90.48 86.56ZM27.75 94.39L23.83 94.39L23.83 106.16L35.59 106.16L35.59 94.39L27.75 94.39ZM70.87 94.39L66.96 94.39L66.96 102.24L59.12 102.24L59.12 98.32L55.2 98.32L55.2 102.24L51.28 102.24L51.28 106.16L63.04 106.16L63.04 110.08L66.96 110.08L66.96 106.16L70.87 106.16L70.87 102.24L74.79 102.24L74.79 106.16L74.79 114L78.71 114L78.71 106.16L82.63 106.16L82.63 102.24L78.71 102.24L78.71 98.32L74.79 98.32L74.79 94.39L70.87 94.39ZM106.16 102.24L102.24 102.24L102.24 110.08L110.08 110.08L110.08 114L114 114L114 102.24L106.16 102.24ZM98.32 106.16L94.4 106.16L94.4 110.08L98.32 110.08L98.32 106.16ZM51.28 110.08L47.36 110.08L47.36 114L51.28 114L51.28 110.08ZM63.04 110.08L59.12 110.08L59.12 114L63.04 114L63.04 110.08ZM86.55 110.08L82.63 110.08L82.63 114L86.55 114L86.55 110.08ZM102.24 110.08L98.32 110.08L98.32 114L102.24 114L102.24 110.08Z" fill="#000000" fill-opacity="1.000000" fill-rule="evenodd"/>
	<path id="John Abraham , Ph.d" d="M191.95 34.36Q191.97 34.24 191.97 34.17Q191.97 34.12 191.94 34Q191.91 33.87 191.86 33.85Q191.72 33.79 191.47 33.75Q191.21 33.71 190.95 33.6Q190.93 33.59 190.9 33.57Q190.67 33.46 190.5 33.24Q190.31 33 190.31 32.53L190.31 28.12Q190.31 28.03 190.32 27.93Q190.37 27.59 190.59 27.26Q190.6 27.25 190.61 27.23Q190.88 26.84 191.28 26.53Q191.68 26.23 192.12 26.05Q192.15 26.04 192.18 26.02Q192.65 25.84 193.04 25.84Q193.79 25.84 194.2 26.07Q194.46 26.21 194.64 26.43Q194.73 26.56 194.8 26.71Q194.99 27.12 195.02 27.66Q195.05 28.21 195.05 28.83L195.05 32.53Q195.05 33 194.86 33.24Q194.69 33.46 194.46 33.57Q194.44 33.59 194.41 33.6Q194.15 33.71 193.89 33.75Q193.64 33.79 193.5 33.85Q193.45 33.87 193.42 34Q193.39 34.12 193.39 34.17Q193.39 34.24 193.41 34.36Q193.43 34.47 193.49 34.49Q193.49 34.49 193.5 34.5L199.1 34.5Q199.11 34.49 199.11 34.49Q199.17 34.47 199.19 34.36Q199.21 34.24 199.21 34.17Q199.21 34.12 199.18 34Q199.15 33.87 199.1 33.85Q198.97 33.79 198.71 33.75Q198.45 33.71 198.19 33.6Q198.17 33.59 198.14 33.57Q197.91 33.46 197.74 33.24Q197.55 33 197.55 32.53L197.55 28.38Q197.55 27.2 197.23 26.45Q196.91 25.71 196.4 25.28Q196.17 25.09 195.9 24.95Q195.59 24.79 195.24 24.7Q194.88 24.62 194.51 24.58Q194.22 24.55 193.93 24.55Q193.28 24.55 192.8 24.69Q192.32 24.83 191.93 25.07Q191.66 25.24 191.43 25.44Q191.32 25.53 191.22 25.63Q190.9 25.94 190.59 26.3Q190.52 26.36 190.49 26.4L190.49 26.4Q190.46 26.44 190.38 26.44Q190.37 26.44 190.36 26.44Q190.33 26.42 190.32 26.33Q190.31 26.22 190.31 26.18L190.31 17.08Q190.31 16.91 190.23 16.85Q190.19 16.82 190.12 16.82Q190.1 16.82 190.05 16.85Q190.01 16.87 189.96 16.89L186.41 18.55Q186.31 18.61 186.28 18.66Q186.25 18.71 186.25 18.77Q186.25 18.89 186.28 18.92Q186.32 18.96 186.39 18.98Q186.61 19.05 186.86 19.1Q187.11 19.14 187.32 19.22Q187.54 19.29 187.68 19.44Q187.69 19.45 187.7 19.47Q187.81 19.61 187.81 19.84L187.81 32.53Q187.81 33 187.62 33.24Q187.45 33.46 187.22 33.57Q187.2 33.59 187.17 33.6Q186.91 33.71 186.65 33.75Q186.4 33.79 186.26 33.85Q186.21 33.87 186.18 34Q186.15 34.12 186.15 34.17Q186.15 34.24 186.17 34.36Q186.19 34.47 186.25 34.49Q186.25 34.49 186.26 34.5L191.86 34.5Q191.87 34.49 191.87 34.49Q191.93 34.47 191.95 34.36ZM238.31 16.85Q238.26 16.87 238.22 16.89L234.66 18.56Q234.57 18.62 234.53 18.67Q234.5 18.73 234.5 18.78Q234.5 18.9 234.54 18.93Q234.58 18.97 234.64 18.99Q234.87 19.06 235.11 19.11Q235.36 19.16 235.58 19.23Q235.79 19.31 235.93 19.45Q235.94 19.46 235.96 19.48Q236.07 19.62 236.07 19.85L236.07 33.95Q236.07 34.04 236.1 34.11Q236.1 34.13 236.11 34.14Q236.14 34.19 236.22 34.21Q236.65 34.31 237.09 34.42Q237.53 34.53 238.01 34.61Q238.5 34.69 239.04 34.74Q239.58 34.79 240.23 34.79Q241.43 34.79 242.46 34.39Q243.36 34.05 244.05 33.45Q244.14 33.37 244.23 33.29Q244.41 33.11 244.57 32.92Q245.08 32.33 245.39 31.58Q245.81 30.58 245.81 29.39Q245.81 28.36 245.49 27.45Q245.17 26.55 244.62 25.88Q244.22 25.4 243.72 25.06Q243.53 24.93 243.32 24.83Q243 24.66 242.66 24.56Q242.21 24.44 241.73 24.44Q241.36 24.44 241.01 24.53Q240.67 24.62 240.33 24.77Q239.99 24.91 239.64 25.1Q239.29 25.28 238.9 25.46Q238.77 25.53 238.72 25.53Q238.68 25.53 238.64 25.5Q238.6 25.47 238.59 25.41Q238.56 25.3 238.56 25.19L238.56 17.08Q238.56 16.91 238.48 16.85Q238.44 16.82 238.38 16.82Q238.36 16.82 238.31 16.85ZM271.56 34.36Q271.59 34.24 271.59 34.17Q271.59 34.12 271.55 34Q271.52 33.87 271.48 33.85Q271.34 33.79 271.08 33.75Q270.82 33.71 270.56 33.6Q270.54 33.59 270.51 33.57Q270.29 33.46 270.11 33.24Q269.92 33 269.92 32.53L269.92 28.12Q269.92 28.03 269.93 27.93Q269.98 27.59 270.2 27.26Q270.21 27.25 270.22 27.23Q270.49 26.84 270.9 26.53Q271.29 26.23 271.73 26.05Q271.76 26.04 271.79 26.02Q272.26 25.84 272.65 25.84Q273.4 25.84 273.81 26.07Q274.08 26.21 274.25 26.43Q274.35 26.56 274.42 26.71Q274.6 27.12 274.64 27.66Q274.67 28.21 274.67 28.83L274.67 32.53Q274.67 33 274.47 33.24Q274.3 33.46 274.07 33.57Q274.05 33.59 274.02 33.6Q273.76 33.71 273.51 33.75Q273.25 33.79 273.11 33.85Q273.07 33.87 273.04 34Q273 34.12 273 34.17Q273 34.24 273.02 34.36Q273.04 34.47 273.1 34.49Q273.11 34.49 273.11 34.5L278.72 34.5Q278.72 34.49 278.73 34.49Q278.78 34.47 278.8 34.36Q278.82 34.24 278.82 34.17Q278.82 34.12 278.79 34Q278.76 33.87 278.72 33.85Q278.58 33.79 278.32 33.75Q278.06 33.71 277.81 33.6Q277.78 33.59 277.75 33.57Q277.53 33.46 277.35 33.24Q277.16 33 277.16 32.53L277.16 28.38Q277.16 27.2 276.84 26.45Q276.53 25.71 276.02 25.28Q275.78 25.09 275.51 24.95Q275.2 24.79 274.86 24.7Q274.49 24.62 274.12 24.58Q273.83 24.55 273.54 24.55Q272.9 24.55 272.41 24.69Q271.93 24.83 271.54 25.07Q271.28 25.24 271.04 25.44Q270.93 25.53 270.83 25.63Q270.51 25.94 270.2 26.3Q270.14 26.36 270.1 26.4L270.1 26.4Q270.07 26.44 270 26.44Q269.99 26.44 269.98 26.44Q269.94 26.42 269.93 26.33Q269.92 26.22 269.92 26.18L269.92 17.08Q269.92 16.91 269.84 16.85Q269.8 16.82 269.74 16.82Q269.72 16.82 269.67 16.85Q269.62 16.87 269.58 16.89L266.02 18.55Q265.92 18.61 265.89 18.66Q265.86 18.71 265.86 18.77Q265.86 18.89 265.9 18.92Q265.93 18.96 266 18.98Q266.22 19.05 266.47 19.1Q266.72 19.14 266.93 19.22Q267.15 19.29 267.29 19.44Q267.3 19.45 267.31 19.47Q267.43 19.61 267.43 19.84L267.43 32.53Q267.43 33 267.23 33.24Q267.06 33.46 266.83 33.57Q266.81 33.59 266.78 33.6Q266.53 33.71 266.27 33.75Q266.01 33.79 265.87 33.85Q265.83 33.87 265.79 34Q265.76 34.12 265.76 34.17Q265.76 34.24 265.78 34.36Q265.8 34.47 265.86 34.49Q265.87 34.49 265.87 34.5L271.48 34.5Q271.48 34.49 271.49 34.49Q271.54 34.47 271.56 34.36ZM345.59 34.36Q345.61 34.24 345.61 34.17Q345.61 34.12 345.58 34Q345.55 33.87 345.51 33.85Q345.37 33.79 345.11 33.75Q344.85 33.71 344.59 33.6Q344.57 33.59 344.54 33.57Q344.32 33.46 344.14 33.24Q343.95 33 343.95 32.53L343.95 28.12Q343.95 28.03 343.96 27.93Q344.01 27.59 344.23 27.26Q344.24 27.25 344.25 27.23Q344.52 26.84 344.93 26.53Q345.32 26.23 345.76 26.05Q345.79 26.04 345.82 26.02Q346.29 25.84 346.68 25.84Q347.43 25.84 347.84 26.07Q348.1 26.21 348.28 26.43Q348.37 26.56 348.44 26.71Q348.63 27.12 348.66 27.66Q348.7 28.21 348.7 28.83L348.7 32.53Q348.7 33 348.5 33.24Q348.33 33.46 348.1 33.57Q348.08 33.59 348.05 33.6Q347.79 33.71 347.54 33.75Q347.28 33.79 347.14 33.85Q347.1 33.87 347.06 34Q347.03 34.12 347.03 34.17Q347.03 34.24 347.05 34.36Q347.07 34.47 347.13 34.49Q347.13 34.49 347.14 34.5L352.75 34.5Q352.75 34.49 352.75 34.49Q352.81 34.47 352.83 34.36Q352.85 34.24 352.85 34.17Q352.85 34.12 352.82 34Q352.79 33.87 352.75 33.85Q352.61 33.79 352.35 33.75Q352.09 33.71 351.83 33.6Q351.81 33.59 351.78 33.57Q351.56 33.46 351.38 33.24Q351.19 33 351.19 32.53L351.19 28.38Q351.19 27.2 350.87 26.45Q350.55 25.71 350.04 25.28Q349.81 25.09 349.54 24.95Q349.23 24.79 348.88 24.7Q348.52 24.62 348.15 24.58Q347.86 24.55 347.57 24.55Q346.92 24.55 346.44 24.69Q345.96 24.83 345.57 25.07Q345.3 25.24 345.07 25.44Q344.96 25.53 344.86 25.63Q344.54 25.94 344.23 26.3Q344.16 26.36 344.13 26.4L344.13 26.4Q344.1 26.44 344.02 26.44Q344.01 26.44 344.01 26.44Q343.97 26.42 343.96 26.33Q343.95 26.22 343.95 26.18L343.95 17.08Q343.95 16.91 343.87 16.85Q343.83 16.82 343.77 16.82Q343.74 16.82 343.7 16.85Q343.65 16.87 343.6 16.89L340.05 18.55Q339.95 18.61 339.92 18.66Q339.89 18.71 339.89 18.77Q339.89 18.89 339.92 18.92Q339.96 18.96 340.03 18.98Q340.25 19.05 340.5 19.1Q340.75 19.14 340.96 19.22Q341.18 19.29 341.32 19.44Q341.33 19.45 341.34 19.47Q341.46 19.61 341.46 19.84L341.46 32.53Q341.46 33 341.26 33.24Q341.09 33.46 340.86 33.57Q340.84 33.59 340.81 33.6Q340.55 33.71 340.3 33.75Q340.04 33.79 339.9 33.85Q339.85 33.87 339.82 34Q339.79 34.12 339.79 34.17Q339.79 34.24 339.81 34.36Q339.83 34.47 339.89 34.49Q339.89 34.49 339.9 34.5L345.51 34.5Q345.51 34.49 345.51 34.49Q345.57 34.47 345.59 34.36ZM369.08 16.85Q369.03 16.87 368.99 16.89L365.43 18.56Q365.34 18.62 365.3 18.67Q365.27 18.73 365.27 18.78Q365.27 18.9 365.31 18.93Q365.35 18.97 365.41 18.99Q365.64 19.06 365.88 19.11Q366.13 19.16 366.35 19.23Q366.56 19.31 366.7 19.45Q366.71 19.46 366.73 19.48Q366.84 19.62 366.84 19.85L366.84 24.91Q366.84 25 366.8 25.03Q366.8 25.03 366.79 25.03Q366.74 25.05 366.71 25.05Q366.49 25.05 366.3 25Q366.12 24.95 365.94 24.89Q365.76 24.83 365.54 24.77Q365.33 24.72 365.04 24.72Q364.37 24.72 363.75 24.87Q363.35 24.97 362.96 25.12Q362.21 25.43 361.6 25.91Q361.41 26.06 361.23 26.23Q361.03 26.42 360.85 26.63Q360.36 27.2 360.03 27.91Q359.95 28.09 359.88 28.29Q359.59 29.09 359.59 30Q359.59 30.74 359.77 31.42Q359.82 31.61 359.88 31.8Q360.16 32.62 360.66 33.27Q360.68 33.3 360.71 33.32Q360.92 33.59 361.18 33.82Q361.56 34.15 362.02 34.39Q362.05 34.4 362.08 34.42Q362.83 34.79 363.76 34.79Q364.21 34.79 364.58 34.7Q364.95 34.61 365.29 34.46Q365.63 34.31 365.96 34.11Q366.29 33.91 366.67 33.7Q366.73 33.67 366.76 33.67Q366.79 33.67 366.81 33.68Q366.84 33.7 366.84 33.78L366.84 34.52Q366.84 34.6 366.86 34.69Q366.87 34.75 366.9 34.77Q366.92 34.79 366.95 34.79Q366.96 34.79 367.04 34.76Q367.13 34.73 367.15 34.72L370.83 33.2Q370.93 33.15 370.96 33.11Q370.99 33.08 370.99 33.06Q370.99 32.99 370.98 32.93Q370.97 32.89 370.95 32.88Q370.94 32.87 370.92 32.87L370.3 32.92Q369.82 32.92 369.57 32.71Q369.57 32.71 369.56 32.7Q369.33 32.49 369.33 32.04L369.33 17.08Q369.33 16.91 369.25 16.85Q369.21 16.82 369.15 16.82Q369.13 16.82 369.08 16.85ZM326.95 34.48Q326.97 34.5 327.01 34.5L334.4 34.5Q334.44 34.5 334.46 34.47Q334.46 34.47 334.47 34.46Q334.48 34.43 334.48 34.41L334.48 33.94Q334.48 33.91 334.47 33.88Q334.47 33.88 334.47 33.88Q334.45 33.85 334.4 33.85Q333.95 33.85 333.48 33.78Q333.02 33.71 332.65 33.55Q332.28 33.39 332.05 33.11Q332.01 33.06 331.97 33.01Q331.82 32.76 331.82 32.42L331.82 28.38Q331.82 28.32 331.83 28.3Q331.84 28.28 331.87 28.25Q331.91 28.23 331.98 28.23L332.07 28.23L334.63 28.36L334.75 28.36Q335.15 28.36 335.6 28.24Q336.12 28.09 336.62 27.8Q337.12 27.51 337.57 27.09Q337.69 26.98 337.8 26.86Q338.12 26.53 338.38 26.14Q338.73 25.61 338.93 24.98Q338.95 24.92 338.97 24.86Q339.13 24.29 339.13 23.67Q339.13 22.57 338.75 21.73Q338.37 20.91 337.75 20.35Q337.74 20.34 337.73 20.33Q337.5 20.13 337.25 19.96Q336.8 19.66 336.28 19.48Q335.81 19.31 335.33 19.24Q334.97 19.19 334.6 19.19L333.09 19.19Q332.5 19.19 331.82 19.2Q331.15 19.22 330.47 19.24Q329.78 19.26 329.11 19.28Q328.44 19.31 327.84 19.32Q327.44 19.33 327.18 19.33Q326.93 19.34 326.78 19.34Q326.63 19.35 326.57 19.35L326.5 19.35Q326.46 19.36 326.43 19.38Q326.4 19.41 326.38 19.48Q326.36 19.58 326.36 19.64Q326.36 19.74 326.42 19.87Q326.45 19.96 326.51 19.99Q326.55 20 326.59 20L327.07 20Q327.49 20 327.81 20.04Q328.12 20.08 328.33 20.23Q328.54 20.39 328.65 20.7Q328.76 21 328.76 21.54L328.76 32.45Q328.76 32.64 328.71 32.8Q328.67 32.91 328.62 33.01Q328.56 33.11 328.49 33.2Q328.39 33.34 328.24 33.45Q328.01 33.64 327.69 33.74Q327.37 33.85 327.01 33.85Q326.95 33.85 326.94 33.87Q326.93 33.88 326.93 33.89Q326.92 33.93 326.92 33.94L326.92 34.39Q326.92 34.45 326.95 34.48ZM169.49 20.57Q169.64 20.82 169.64 21.23L169.64 35.57Q169.64 36.1 169.63 36.64Q169.62 37.18 169.56 37.69Q169.5 38.2 169.37 38.65Q169.25 39.1 169.03 39.44Q168.89 39.66 168.69 39.82Q168.59 39.91 168.47 39.97Q168.13 40.17 167.65 40.17Q167.43 40.17 167.27 40.09Q167.11 40.02 166.97 39.9Q166.82 39.79 166.69 39.66Q166.56 39.52 166.38 39.41Q166.2 39.3 165.96 39.22Q165.73 39.15 165.41 39.15Q165.21 39.15 165.02 39.23Q164.96 39.26 164.9 39.29Q164.78 39.37 164.67 39.47Q164.64 39.5 164.61 39.53Q164.49 39.66 164.41 39.82Q164.37 39.91 164.34 40Q164.31 40.12 164.31 40.24Q164.31 40.34 164.34 40.44Q164.45 40.8 164.93 41.05Q165.55 41.37 166.89 41.37Q167.88 41.37 168.69 41.09Q169.5 40.81 170.14 40.32Q170.41 40.12 170.65 39.88Q170.99 39.56 171.27 39.18Q171.49 38.88 171.68 38.55Q171.9 38.18 172.07 37.77Q172.14 37.6 172.21 37.43Q172.42 36.84 172.54 36.21Q172.7 35.4 172.7 34.6L172.7 21.48Q172.7 20.96 172.83 20.66Q172.97 20.36 173.19 20.2Q173.21 20.19 173.22 20.18Q173.44 20.03 173.72 19.99Q174.02 19.94 174.35 19.94Q174.4 19.94 174.42 19.92Q174.42 19.91 174.42 19.91Q174.44 19.87 174.44 19.85L174.44 19.43Q174.44 19.41 174.42 19.38Q174.42 19.38 174.42 19.37Q174.4 19.35 174.35 19.35L167.55 19.35Q167.51 19.35 167.49 19.37Q167.47 19.39 167.47 19.43L167.47 19.85Q167.47 19.9 167.49 19.92Q167.51 19.94 167.55 19.94Q168.04 19.94 168.42 19.99Q168.81 20.04 169.08 20.18Q169.25 20.26 169.37 20.39Q169.44 20.47 169.49 20.57ZM218.33 33.93Q218.31 33.95 218.31 33.99L218.31 34.41Q218.31 34.45 218.33 34.47Q218.36 34.5 218.4 34.5L224.21 34.5Q224.25 34.5 224.27 34.47Q224.28 34.47 224.28 34.46Q224.3 34.43 224.3 34.41L224.3 33.99Q224.3 33.97 224.28 33.94Q224.28 33.93 224.27 33.93Q224.25 33.9 224.21 33.9L223.93 33.9Q223.68 33.9 223.37 33.86Q223.15 33.83 222.94 33.77Q222.84 33.75 222.75 33.72Q222.45 33.61 222.22 33.44Q222.08 33.33 222 33.2Q221.94 33.1 221.9 32.99Q221.89 32.96 221.88 32.92Q221.87 32.88 221.87 32.85L221.87 32.82Q221.88 32.8 221.92 32.68Q221.95 32.57 222.04 32.33Q222.13 32.08 222.28 31.63Q222.44 31.18 222.67 30.48Q222.91 29.79 223.25 28.78Q223.25 28.77 223.29 28.69Q223.33 28.62 223.39 28.54Q223.46 28.47 223.56 28.4Q223.65 28.34 223.79 28.34L227.67 28.34Q227.78 28.34 227.87 28.39Q227.88 28.4 227.89 28.4Q227.98 28.47 228.04 28.55Q228.1 28.63 228.13 28.71Q228.15 28.78 228.16 28.8L229.57 32.68Q229.59 32.77 229.59 32.83Q229.59 33.06 229.49 33.23Q229.47 33.26 229.45 33.28Q229.42 33.32 229.39 33.36Q229.27 33.49 229.1 33.58Q228.88 33.69 228.62 33.75Q228.36 33.81 228.1 33.83Q227.84 33.86 227.62 33.87Q227.4 33.88 227.28 33.89Q227.26 33.89 227.22 33.9Q227.18 33.9 227.13 33.9Q227.09 33.9 227.07 33.93Q227.07 33.93 227.06 33.94Q227.05 33.97 227.05 33.99L227.05 34.41Q227.05 34.43 227.06 34.46Q227.07 34.47 227.07 34.47Q227.09 34.5 227.13 34.5L234.67 34.5Q234.72 34.5 234.74 34.47Q234.74 34.47 234.74 34.46Q234.76 34.43 234.76 34.41L234.76 34Q234.76 33.97 234.74 33.94Q234.74 33.93 234.74 33.93Q234.72 33.9 234.67 33.9Q234.44 33.9 234.18 33.82Q233.92 33.73 233.77 33.66Q233.45 33.52 233.24 33.38Q233.04 33.25 232.91 33.08Q232.77 32.92 232.68 32.7Q232.58 32.49 232.47 32.19L227.93 19.43Q227.91 19.38 227.87 19.37Q227.87 19.37 227.87 19.37Q227.83 19.36 227.81 19.35L224.69 19.35Q224.68 19.35 224.67 19.36Q224.65 19.37 224.65 19.4Q224.65 19.46 224.71 19.57Q224.77 19.68 224.77 19.76Q224.77 19.78 224.76 19.8Q224.76 19.81 224.76 19.81Q224.76 19.81 224.76 19.81L220.44 32.34Q220.26 32.87 219.99 33.18Q219.72 33.49 219.44 33.64Q219.15 33.8 218.88 33.85Q218.6 33.89 218.4 33.9Q218.36 33.9 218.33 33.93ZM331.89 27.17Q331.85 27.1 331.84 27.02L331.82 26.7L331.82 20.2Q331.82 20.13 331.85 20.09Q331.88 20.06 331.92 20.05Q332.02 20.03 332.09 20.03Q332.27 20.01 332.42 20.01Q332.56 20 332.69 20L332.95 19.99Q333.08 19.98 333.23 19.98Q334.34 19.98 335.02 20.53Q335.18 20.65 335.31 20.81Q336.02 21.64 336.02 23.41Q336.02 24.27 335.84 24.98Q335.66 25.7 335.31 26.22Q335.08 26.55 334.78 26.78Q334.6 26.92 334.4 27.03Q333.86 27.32 333.14 27.32Q332.97 27.32 332.79 27.31Q332.61 27.3 332.46 27.29Q332.31 27.28 332.2 27.27Q332.09 27.25 332.04 27.25Q331.94 27.25 331.9 27.19Q331.89 27.18 331.89 27.17ZM223.91 26.9Q223.92 26.85 223.94 26.79L225.3 22.88Q225.34 22.77 225.42 22.69Q225.44 22.68 225.46 22.66Q225.56 22.58 225.65 22.58Q225.74 22.58 225.84 22.65Q225.85 22.65 225.85 22.65Q225.95 22.72 226 22.87L227.43 26.79Q227.45 26.85 227.47 26.89Q227.48 26.93 227.48 26.99Q227.48 27.03 227.46 27.06Q227.45 27.08 227.44 27.1Q227.4 27.15 227.28 27.15L224.06 27.15Q223.96 27.15 223.93 27.11L223.93 27.11Q223.9 27.07 223.9 27.01Q223.9 26.95 223.91 26.9ZM203.56 24.03Q203.51 24.05 203.47 24.08L199.91 25.75Q199.81 25.8 199.78 25.86Q199.75 25.91 199.75 25.97Q199.75 26.08 199.79 26.12Q199.82 26.16 199.89 26.18Q200.11 26.25 200.36 26.29Q200.61 26.34 200.82 26.42Q201.04 26.49 201.18 26.64Q201.19 26.65 201.2 26.67Q201.32 26.81 201.32 27.04L201.32 32.5Q201.32 32.98 201.12 33.23Q200.94 33.48 200.69 33.59Q200.68 33.59 200.67 33.6Q200.42 33.71 200.16 33.75Q199.9 33.79 199.76 33.85Q199.72 33.87 199.69 33.99Q199.65 34.11 199.65 34.16Q199.65 34.23 199.67 34.35Q199.69 34.47 199.75 34.49Q199.76 34.49 199.76 34.5L205.37 34.5Q205.37 34.49 205.37 34.49Q205.43 34.47 205.45 34.35Q205.48 34.23 205.48 34.16Q205.48 34.11 205.44 33.99Q205.41 33.87 205.37 33.85Q205.23 33.79 204.97 33.75Q204.71 33.71 204.45 33.6Q204.45 33.59 204.44 33.59Q204.19 33.48 204 33.23Q203.81 32.98 203.81 32.5L203.81 27.23Q203.81 27.19 203.83 27.15Q203.86 27.1 203.91 27.06Q204 26.99 204.09 26.93Q204.78 26.6 205.19 26.41Q205.59 26.21 205.85 26.12Q206.1 26.02 206.28 25.99Q206.45 25.97 206.68 25.97Q207.32 25.97 207.69 26.22Q207.86 26.35 208 26.51Q208.14 26.68 208.24 26.89Q208.43 27.3 208.48 27.81Q208.53 28.33 208.53 28.86Q208.53 29.53 208.54 30.08Q208.55 30.63 208.55 31.11Q208.55 31.34 208.54 31.51Q208.54 31.68 208.53 31.83Q208.52 31.97 208.5 32.11Q208.48 32.25 208.46 32.41Q208.4 32.93 208.2 33.19Q208 33.45 207.76 33.58Q207.52 33.71 207.29 33.75Q207.05 33.79 206.91 33.85Q206.87 33.87 206.84 33.99Q206.81 34.11 206.81 34.16Q206.81 34.23 206.83 34.35Q206.85 34.47 206.91 34.49Q206.91 34.49 206.91 34.5L212.91 34.5Q212.91 34.49 212.91 34.49Q212.97 34.47 212.99 34.35Q213.02 34.23 213.02 34.16Q213.02 34.11 212.98 33.99Q212.95 33.87 212.91 33.85Q212.81 33.81 212.63 33.78Q212.46 33.75 212.24 33.71Q212.03 33.67 211.8 33.6Q211.67 33.56 211.56 33.5Q211.47 33.45 211.39 33.39Q211.34 33.35 211.3 33.31Q211.17 33.2 211.08 33.03Q210.96 32.82 210.96 32.5Q210.96 31.81 210.98 31.33Q211 30.84 211.01 30.46Q211.03 30.08 211.05 29.76Q211.06 29.44 211.06 29.06Q211.06 28.66 211.03 28.17Q211 27.68 210.91 27.18Q210.86 26.91 210.79 26.64Q210.73 26.42 210.66 26.21Q210.49 25.73 210.23 25.36Q210.07 25.14 209.88 24.97Q209.74 24.86 209.58 24.76Q209.19 24.54 208.67 24.54Q208.18 24.54 207.85 24.55Q207.52 24.56 207.24 24.61Q206.96 24.66 206.68 24.75Q206.41 24.84 206.06 25Q205.71 25.17 205.23 25.41Q204.76 25.65 204.07 26.01Q204.01 26.04 203.98 26.05Q203.95 26.05 203.9 26.05Q203.89 26.05 203.89 26.05Q203.84 26.04 203.81 25.94L203.81 24.27Q203.81 24.1 203.73 24.04Q203.69 24.01 203.63 24.01Q203.61 24.01 203.56 24.03ZM293.55 24.03Q293.5 24.05 293.46 24.08L289.9 25.76Q289.8 25.82 289.77 25.87Q289.74 25.92 289.74 25.98Q289.74 26.09 289.78 26.13Q289.82 26.17 289.88 26.19Q290.1 26.26 290.35 26.3Q290.6 26.35 290.81 26.43Q291.03 26.5 291.17 26.65Q291.18 26.66 291.2 26.68Q291.31 26.82 291.31 27.05L291.31 32.52Q291.31 33 291.12 33.24Q290.94 33.46 290.72 33.57Q290.69 33.59 290.66 33.6Q290.41 33.71 290.15 33.75Q289.89 33.79 289.75 33.85Q289.71 33.87 289.68 33.99Q289.64 34.11 289.64 34.16Q289.64 34.23 289.67 34.35Q289.69 34.47 289.75 34.49Q289.75 34.49 289.75 34.5L295.36 34.5Q295.36 34.49 295.36 34.49Q295.42 34.47 295.44 34.35Q295.47 34.23 295.47 34.16Q295.47 34.11 295.43 33.99Q295.4 33.87 295.36 33.85Q295.22 33.79 294.96 33.75Q294.7 33.71 294.45 33.6Q294.44 33.59 294.43 33.59Q294.18 33.48 293.99 33.23Q293.8 32.98 293.8 32.5L293.8 27.23Q293.96 27.04 294.3 26.81Q294.64 26.59 295.03 26.38Q295.42 26.18 295.8 26.05Q296.18 25.91 296.42 25.91Q296.95 25.91 297.28 26.05Q297.58 26.18 297.76 26.41Q297.78 26.43 297.79 26.44Q297.97 26.7 298.03 27.05Q298.1 27.39 298.1 27.81L298.1 32.5Q298.1 32.98 297.9 33.23Q297.72 33.48 297.47 33.59Q297.46 33.59 297.45 33.6Q297.2 33.71 296.94 33.75Q296.68 33.79 296.54 33.85Q296.5 33.87 296.47 33.99Q296.43 34.11 296.43 34.16Q296.43 34.23 296.45 34.35Q296.47 34.47 296.53 34.49Q296.54 34.49 296.54 34.5L302.15 34.5Q302.15 34.49 302.15 34.49Q302.21 34.47 302.23 34.35Q302.26 34.23 302.26 34.16Q302.26 34.11 302.22 33.99Q302.19 33.87 302.15 33.85Q302.01 33.79 301.75 33.75Q301.49 33.71 301.23 33.6Q301.23 33.59 301.22 33.59Q300.97 33.48 300.78 33.23Q300.59 32.98 300.59 32.5L300.59 27Q300.59 26.95 300.61 26.92Q300.64 26.86 300.69 26.82Q300.78 26.75 300.87 26.7Q301.48 26.44 301.86 26.28Q302.23 26.12 302.46 26.04Q302.68 25.96 302.81 25.93Q302.94 25.9 303.05 25.9Q303.69 25.9 304.06 26.16Q304.22 26.28 304.34 26.42Q304.51 26.61 304.61 26.85Q304.8 27.27 304.85 27.79Q304.9 28.32 304.9 28.84Q304.9 29.18 304.9 29.44Q304.91 29.69 304.91 29.91Q304.91 30.13 304.91 30.34Q304.92 30.55 304.92 30.79Q304.92 31.27 304.9 31.68Q304.89 32.08 304.83 32.41L304.83 32.43Q304.83 32.95 304.65 33.21Q304.47 33.45 304.23 33.57Q304.22 33.58 304.2 33.59Q303.94 33.71 303.68 33.75Q303.43 33.79 303.29 33.85Q303.24 33.87 303.21 33.99Q303.18 34.11 303.18 34.16Q303.18 34.23 303.2 34.35Q303.22 34.47 303.28 34.49Q303.28 34.49 303.29 34.5L309.28 34.5Q309.28 34.49 309.29 34.49Q309.35 34.47 309.37 34.35Q309.39 34.23 309.39 34.16Q309.39 34.11 309.35 33.99Q309.32 33.87 309.28 33.85Q309.18 33.81 309.01 33.78Q308.83 33.75 308.61 33.71Q308.4 33.67 308.17 33.6Q308.04 33.56 307.93 33.5Q307.84 33.45 307.76 33.39Q307.71 33.35 307.67 33.31Q307.54 33.2 307.45 33.03Q307.34 32.82 307.34 32.5Q307.34 31.81 307.35 31.33Q307.37 30.84 307.38 30.46Q307.4 30.08 307.42 29.76Q307.43 29.44 307.43 29.06Q307.43 28.66 307.4 28.17Q307.37 27.68 307.27 27.18Q307.25 27.08 307.23 26.97Q307.13 26.58 306.99 26.21Q306.8 25.73 306.49 25.36Q306.42 25.28 306.35 25.21Q306.08 24.94 305.72 24.76Q305.26 24.54 304.63 24.54Q304.31 24.54 304 24.57Q303.69 24.6 303.25 24.75Q302.8 24.89 302.14 25.19Q301.48 25.48 300.44 26.01Q300.28 26.09 300.13 26.11Q300.12 26.11 300.11 26.1Q300.06 26.1 300.03 26.07Q299.98 26.03 299.93 25.98Q299.88 25.92 299.85 25.87Q299.82 25.83 299.81 25.79Q299.7 25.59 299.55 25.37Q299.41 25.15 299.18 24.96Q298.96 24.77 298.62 24.66Q298.29 24.54 297.81 24.54Q297.68 24.54 297.55 24.55Q297.2 24.57 296.85 24.68Q296.38 24.82 295.91 25.04Q295.44 25.27 294.98 25.54Q294.52 25.82 294.04 26.07Q293.95 26.12 293.89 26.12Q293.84 26.12 293.82 26.09Q293.81 26.08 293.8 26.05L293.8 24.27Q293.8 24.1 293.72 24.04Q293.68 24.01 293.62 24.01Q293.6 24.01 293.55 24.03ZM251.02 24.37Q250.97 24.39 250.93 24.41L247.37 26.08Q247.27 26.14 247.24 26.19Q247.21 26.25 247.21 26.3Q247.21 26.42 247.25 26.45Q247.29 26.49 247.35 26.51Q247.58 26.58 247.82 26.63Q248.07 26.67 248.28 26.75Q248.5 26.83 248.64 26.97Q248.65 26.98 248.67 27Q248.78 27.14 248.78 27.37L248.78 32.54Q248.78 33.01 248.59 33.25Q248.41 33.47 248.19 33.58Q248.16 33.6 248.13 33.61Q247.88 33.72 247.62 33.76Q247.36 33.8 247.22 33.86Q247.22 33.86 247.21 33.87Q247.11 33.91 247.11 34.16Q247.11 34.46 247.21 34.49Q247.22 34.49 247.22 34.5L253.42 34.5Q253.43 34.49 253.43 34.49Q253.53 34.46 253.53 34.16Q253.53 33.91 253.43 33.87Q253.42 33.86 253.42 33.86Q253.32 33.82 253.13 33.79Q252.94 33.76 252.7 33.72Q252.46 33.68 252.21 33.61Q251.96 33.54 251.75 33.4Q251.64 33.34 251.56 33.25Q251.47 33.17 251.41 33.06Q251.27 32.85 251.27 32.54L251.27 28.01Q251.27 27.77 251.39 27.51Q251.43 27.43 251.48 27.35Q251.57 27.18 251.71 27.05Q251.9 26.84 252.18 26.7Q252.27 26.66 252.36 26.63Q252.56 26.57 252.79 26.57Q252.86 26.57 252.93 26.57Q253.07 26.59 253.21 26.63Q253.42 26.69 253.62 26.78Q253.83 26.87 254.03 26.96Q254.23 27.05 254.42 27.12L254.44 27.12Q254.58 27.12 254.75 26.91Q254.91 26.7 255.06 26.43Q255.2 26.16 255.3 25.9Q255.4 25.63 255.4 25.54Q255.4 25.44 255.19 25.28Q254.98 25.13 254.68 24.98Q254.56 24.92 254.43 24.87Q254.26 24.79 254.07 24.73Q253.76 24.62 253.57 24.62Q253.29 24.62 253 24.81Q252.71 25 252.44 25.28Q252.16 25.56 251.92 25.87Q251.68 26.19 251.49 26.45Q251.45 26.48 251.42 26.52Q251.41 26.53 251.39 26.54Q251.37 26.56 251.34 26.56Q251.31 26.56 251.29 26.54Q251.28 26.53 251.28 26.51Q251.27 26.46 251.27 26.43L251.27 24.6Q251.27 24.43 251.19 24.37Q251.15 24.34 251.09 24.34Q251.07 24.34 251.02 24.37ZM174.29 28.64Q174.21 29.05 174.21 29.48Q174.21 30.43 174.52 31.27Q174.57 31.42 174.63 31.56Q174.9 32.17 175.28 32.67Q175.52 32.98 175.8 33.24Q175.83 33.27 175.86 33.3Q176.58 33.97 177.57 34.37Q178.6 34.79 179.81 34.79Q181.04 34.79 182.07 34.38Q183.09 33.99 183.84 33.29Q183.85 33.28 183.86 33.27Q184.16 32.99 184.4 32.67Q184.78 32.18 185.04 31.6Q185.1 31.46 185.15 31.31Q185.46 30.47 185.46 29.52Q185.46 28.73 185.22 28.03Q185.13 27.75 185 27.49Q184.78 27.03 184.48 26.64Q184.16 26.21 183.75 25.85Q183.72 25.83 183.69 25.8Q182.92 25.15 181.92 24.76Q181.71 24.68 181.49 24.62Q180.64 24.37 179.71 24.37Q179.01 24.37 178.35 24.53Q177.97 24.63 177.61 24.78Q176.75 25.15 176.07 25.72Q175.96 25.82 175.86 25.91Q175.44 26.31 175.12 26.77Q174.86 27.14 174.66 27.54Q174.4 28.08 174.29 28.64ZM259.35 34.67Q259.83 34.53 260.19 34.28L261.44 33.3Q261.45 33.3 261.45 33.3Q261.47 33.3 261.5 33.4Q261.53 33.51 261.59 33.68Q261.65 33.85 261.73 34.05Q261.82 34.25 261.94 34.42L261.94 34.42Q262.05 34.56 262.18 34.67Q262.21 34.69 262.23 34.71Q262.29 34.75 262.36 34.78Q262.48 34.83 262.62 34.83Q262.85 34.83 263.12 34.71Q263.39 34.59 263.72 34.37Q264.05 34.14 264.46 33.82Q264.87 33.51 265.4 33.11Q265.51 33.02 265.56 32.84Q265.61 32.65 265.61 32.46Q265.61 32.41 265.6 32.34Q265.6 32.31 265.58 32.3Q265.56 32.27 265.5 32.27Q265.44 32.27 265.35 32.34Q265.27 32.41 265.14 32.5Q265.02 32.59 264.87 32.66Q264.71 32.73 264.52 32.73Q264.3 32.73 264.14 32.64Q264.05 32.59 263.97 32.51Q263.84 32.37 263.79 32.2Q263.76 32.11 263.76 32.01L263.76 26.89Q263.76 26.6 263.69 26.33Q263.64 26.12 263.54 25.92Q263.53 25.89 263.51 25.87Q263.29 25.44 262.88 25.11Q262.45 24.76 261.84 24.56Q261.23 24.37 260.46 24.37Q259.95 24.37 259.47 24.46Q259.11 24.53 258.77 24.64Q257.95 24.92 257.32 25.38Q256.7 25.84 256.32 26.43Q256 26.94 255.95 27.47Q255.94 27.55 255.94 27.64Q255.94 27.76 255.97 27.88Q255.99 27.95 256.03 27.98Q256.06 28.01 256.12 28.01Q256.19 28 256.39 27.94Q256.59 27.88 256.85 27.8Q257.12 27.73 257.41 27.65Q257.7 27.57 257.94 27.49Q258.18 27.41 258.35 27.34Q258.51 27.28 258.52 27.25Q258.52 27.24 258.51 27.19Q258.5 27.14 258.49 27.07Q258.48 27 258.47 26.93Q258.47 26.87 258.47 26.84Q258.47 26.48 258.58 26.2Q258.69 25.93 258.88 25.73Q258.88 25.72 258.89 25.72Q258.95 25.65 259.03 25.59Q259.17 25.48 259.35 25.41Q259.62 25.3 259.93 25.3Q260.29 25.3 260.58 25.43Q260.8 25.52 260.97 25.67Q261.03 25.73 261.08 25.78Q261.11 25.82 261.14 25.86Q261.3 26.06 261.39 26.31Q261.49 26.62 261.49 26.98L261.49 28.84Q261.49 28.91 261.46 28.98Q261.43 29.06 261.25 29.16Q260.97 29.31 260.64 29.47Q260.32 29.63 259.78 29.77Q258.78 30.03 258.02 30.29Q257.26 30.55 256.75 30.87Q256.23 31.2 255.97 31.62Q255.97 31.62 255.96 31.63Q255.71 32.05 255.71 32.62Q255.71 33.28 256.01 33.77Q256.16 34.01 256.39 34.22Q257.07 34.81 258.38 34.81Q258.87 34.81 259.35 34.67ZM283.1 34.67Q283.58 34.53 283.94 34.28L285.2 33.3Q285.2 33.3 285.2 33.3Q285.22 33.3 285.25 33.4Q285.28 33.51 285.34 33.68Q285.4 33.85 285.49 34.05Q285.57 34.25 285.69 34.42L285.7 34.42Q285.8 34.56 285.93 34.67Q285.96 34.69 285.99 34.71Q286.05 34.75 286.11 34.78Q286.23 34.83 286.37 34.83Q286.6 34.83 286.87 34.71Q287.14 34.59 287.47 34.37Q287.81 34.14 288.21 33.82Q288.62 33.51 289.15 33.11Q289.27 33.02 289.32 32.84Q289.36 32.65 289.36 32.46Q289.36 32.41 289.35 32.34Q289.35 32.31 289.33 32.3Q289.31 32.27 289.26 32.27Q289.19 32.27 289.11 32.34Q289.02 32.41 288.9 32.5Q288.77 32.59 288.62 32.66Q288.46 32.73 288.27 32.73Q288.05 32.73 287.89 32.64Q287.8 32.59 287.73 32.51Q287.59 32.37 287.54 32.2Q287.52 32.11 287.52 32.01L287.52 26.89Q287.52 26.6 287.45 26.33Q287.39 26.12 287.29 25.92Q287.28 25.89 287.26 25.87Q287.04 25.44 286.64 25.11Q286.21 24.76 285.59 24.56Q284.98 24.37 284.21 24.37Q283.71 24.37 283.22 24.46Q282.87 24.53 282.52 24.64Q281.7 24.92 281.08 25.38Q280.45 25.84 280.07 26.43Q279.75 26.94 279.7 27.47Q279.7 27.55 279.7 27.64Q279.7 27.76 279.72 27.88Q279.74 27.95 279.78 27.98Q279.81 28.01 279.87 28.01Q279.94 28 280.14 27.94Q280.34 27.88 280.6 27.8Q280.87 27.73 281.16 27.65Q281.45 27.57 281.69 27.49Q281.93 27.41 282.1 27.34Q282.26 27.28 282.27 27.25Q282.27 27.24 282.26 27.19Q282.25 27.14 282.24 27.07Q282.23 27 282.23 26.93Q282.22 26.87 282.22 26.84Q282.22 26.48 282.33 26.2Q282.44 25.93 282.63 25.73Q282.64 25.72 282.64 25.72Q282.71 25.65 282.78 25.59Q282.93 25.48 283.1 25.41Q283.37 25.3 283.68 25.3Q284.05 25.3 284.34 25.43Q284.55 25.52 284.72 25.67Q284.78 25.73 284.83 25.78Q284.86 25.82 284.89 25.86Q285.05 26.06 285.14 26.31Q285.24 26.62 285.24 26.98L285.24 28.84Q285.24 28.91 285.21 28.98Q285.19 29.06 285 29.16Q284.72 29.31 284.4 29.47Q284.07 29.63 283.53 29.77Q282.53 30.03 281.77 30.29Q281.02 30.55 280.5 30.87Q279.99 31.2 279.72 31.62Q279.72 31.62 279.71 31.63Q279.46 32.05 279.46 32.62Q279.46 33.28 279.76 33.77Q279.91 34.01 280.14 34.22Q280.82 34.81 282.13 34.81Q282.62 34.81 283.1 34.67ZM177.05 30Q176.96 29.38 176.96 28.8Q176.96 28.18 177.11 27.54Q177.25 26.9 177.54 26.38Q177.81 25.91 178.19 25.6Q178.24 25.56 178.28 25.53Q178.41 25.44 178.55 25.37Q178.9 25.2 179.33 25.2Q179.7 25.2 180.03 25.32Q180.18 25.37 180.32 25.44Q180.78 25.68 181.15 26.08Q181.52 26.48 181.8 27.01Q182.08 27.53 182.27 28.11Q182.46 28.68 182.56 29.27Q182.66 29.85 182.66 30.38Q182.66 31.04 182.52 31.69Q182.38 32.35 182.08 32.87Q181.83 33.33 181.45 33.64Q181.39 33.68 181.33 33.73Q181.24 33.79 181.15 33.84Q180.75 34.05 180.24 34.05Q179.66 34.05 179.2 33.83Q179.11 33.79 179.03 33.74Q178.67 33.53 178.37 33.21Q178.01 32.82 177.74 32.3Q177.48 31.79 177.31 31.2Q177.14 30.62 177.05 30ZM362.2 31.01Q362.03 30.29 362.03 29.52Q362.03 29.32 362.04 29.12Q362.07 28.63 362.19 28.14Q362.35 27.45 362.69 26.9Q362.92 26.52 363.24 26.25Q363.38 26.12 363.55 26.01Q363.58 25.99 363.62 25.97Q364.12 25.68 364.79 25.68Q365.78 25.68 366.31 26.14Q366.53 26.33 366.66 26.58Q366.84 26.92 366.84 27.34L366.84 32.68Q366.84 32.69 366.84 32.7Q366.83 32.85 366.6 32.98Q366.37 33.12 366.06 33.22Q365.76 33.32 365.45 33.39Q365.15 33.45 365.04 33.45Q364.26 33.45 363.69 33.13Q363.42 32.98 363.19 32.77Q362.95 32.55 362.75 32.27Q362.38 31.72 362.2 31.01ZM238.58 26.54Q238.61 26.48 238.69 26.43Q238.94 26.29 239.14 26.19Q239.35 26.09 239.55 26.05Q239.75 26 239.99 25.98Q240.22 25.96 240.51 25.96Q241.39 25.96 241.96 26.27Q242.29 26.46 242.55 26.73Q242.72 26.91 242.86 27.13Q243.19 27.67 243.32 28.4Q243.45 29.12 243.45 29.96Q243.45 30.82 243.32 31.55Q243.18 32.27 242.86 32.81Q242.65 33.17 242.35 33.42Q242.2 33.55 242.03 33.65Q241.52 33.95 240.74 33.95Q239.91 33.95 239.38 33.55Q239.3 33.49 239.23 33.42Q238.67 32.89 238.56 31.87L238.56 26.69Q238.56 26.6 238.58 26.54ZM258.32 32.83Q258.21 32.65 258.21 32.36Q258.21 32.1 258.25 31.93Q258.3 31.77 258.38 31.64Q258.41 31.61 258.44 31.57Q258.51 31.49 258.59 31.43Q258.72 31.34 258.87 31.23L261.36 30.07Q261.38 30.06 261.4 30.06Q261.43 30.06 261.45 30.07Q261.49 30.1 261.49 30.18L261.49 31.95Q261.49 31.96 261.49 31.96Q261.48 32.2 261.26 32.44Q261.04 32.68 260.72 32.87Q260.4 33.06 260.07 33.17Q259.74 33.28 259.51 33.28Q259.26 33.28 259.03 33.24Q258.8 33.21 258.62 33.11Q258.55 33.07 258.5 33.03Q258.4 32.95 258.32 32.83ZM282.07 32.83Q281.96 32.65 281.96 32.36Q281.96 32.1 282.01 31.93Q282.05 31.77 282.13 31.64Q282.16 31.61 282.19 31.57Q282.26 31.49 282.34 31.43Q282.47 31.34 282.62 31.23L285.11 30.07Q285.13 30.06 285.15 30.06Q285.18 30.06 285.2 30.07Q285.24 30.1 285.24 30.18L285.24 31.95Q285.24 31.96 285.24 31.96Q285.23 32.2 285.01 32.44Q284.79 32.68 284.47 32.87Q284.15 33.06 283.82 33.17Q283.49 33.28 283.26 33.28Q283.01 33.28 282.78 33.24Q282.55 33.21 282.37 33.11Q282.3 33.07 282.25 33.03Q282.15 32.95 282.07 32.83ZM316.47 37.66Q316.54 37.74 316.7 37.74Q316.89 37.74 317.1 37.62Q317.31 37.5 317.47 37.38Q317.88 37.08 318.26 36.66Q318.37 36.55 318.47 36.43Q318.73 36.11 318.94 35.75Q318.97 35.71 318.99 35.67Q319.26 35.21 319.42 34.7Q319.54 34.35 319.58 33.99Q319.6 33.77 319.6 33.56Q319.6 33.27 319.53 32.88Q319.53 32.86 319.52 32.83Q319.44 32.47 319.23 32.13Q319 31.77 318.59 31.51Q318.18 31.26 317.51 31.26Q317.12 31.26 316.81 31.37Q316.54 31.47 316.34 31.63Q316.29 31.67 316.25 31.7Q316.22 31.74 316.18 31.77Q316 31.97 315.89 32.23Q315.76 32.55 315.76 32.96Q315.76 33.35 315.92 33.65Q315.93 33.67 315.95 33.69Q316.04 33.85 316.15 33.98Q316.28 34.12 316.44 34.23Q316.54 34.3 316.66 34.36Q316.86 34.48 317.1 34.55Q317.46 34.66 317.8 34.66Q317.95 34.66 318 34.73Q318.01 34.74 318.01 34.75Q318.04 34.85 318.04 34.94Q318.04 35.15 317.95 35.37Q317.86 35.58 317.74 35.78Q317.72 35.82 317.7 35.85Q317.58 36.02 317.45 36.17Q317.28 36.35 317.13 36.5Q317.04 36.59 316.91 36.68Q316.79 36.77 316.67 36.87Q316.55 36.97 316.47 37.08Q316.43 37.15 316.4 37.23Q316.39 37.28 316.38 37.34Q316.38 37.46 316.44 37.6Q316.45 37.63 316.47 37.66ZM354.19 32.64Q354.13 32.86 354.13 33.1Q354.13 33.44 354.25 33.73Q354.26 33.77 354.27 33.8Q354.35 33.97 354.45 34.12Q354.54 34.25 354.66 34.37Q354.77 34.48 354.9 34.57Q355.05 34.68 355.23 34.75Q355.26 34.77 355.29 34.78Q355.59 34.89 355.93 34.89Q356.17 34.89 356.39 34.83Q356.51 34.8 356.62 34.75Q356.83 34.66 357 34.53Q357.1 34.46 357.19 34.37Q357.31 34.25 357.4 34.12Q357.5 33.97 357.58 33.8Q357.59 33.77 357.61 33.73Q357.72 33.44 357.72 33.1Q357.72 32.86 357.66 32.64Q357.63 32.52 357.58 32.41Q357.49 32.2 357.36 32.02Q357.28 31.92 357.19 31.83Q357.1 31.74 357 31.66Q356.83 31.53 356.62 31.44Q356.51 31.4 356.39 31.36Q356.17 31.3 355.93 31.3Q355.59 31.3 355.29 31.42Q355.26 31.43 355.23 31.44Q355.05 31.52 354.9 31.63Q354.77 31.72 354.66 31.83Q354.57 31.92 354.49 32.02Q354.36 32.2 354.27 32.41Q354.22 32.52 354.19 32.64Z" fill="#FFCA42" fill-opacity="1.000000" fill-rule="evenodd"/>
	<path id="Mail : johnabraham@gmail.com Phone : (+2) 123 545 9000" d="M197.63 58.33C197.63 58.92 197.11 59.4 196.49 59.4C195.87 59.4 195.36 58.92 195.36 58.33C195.36 57.73 195.87 57.25 196.49 57.25C197.11 57.25 197.63 57.73 197.63 58.33ZM221.58 58.33C221.58 58.92 221.07 59.4 220.45 59.4C219.83 59.4 219.32 58.92 219.32 58.33C219.32 57.73 219.83 57.25 220.45 57.25C221.07 57.25 221.58 57.73 221.58 58.33ZM392.3 58.33C392.3 58.92 391.79 59.4 391.17 59.4C390.55 59.4 390.03 58.92 390.03 58.33C390.03 57.73 390.55 57.25 391.17 57.25C391.79 57.25 392.3 57.73 392.3 58.33ZM168.67 71.5L168.67 57.68L170.66 57.68L175.36 69.15L175.53 69.15L180.22 57.68L182.21 57.68L182.21 71.5L180.65 71.5L180.65 61L180.52 61L176.2 71.5L174.69 71.5L170.37 61L170.23 61L170.23 71.5L168.67 71.5ZM200 57.68L201.59 57.68L201.59 71.5L200 71.5L200 57.68ZM239.45 62.43C237.88 62.43 236.72 63.45 236.72 65.26L236.72 71.5L235.13 71.5L235.13 57.68L236.72 57.68L236.72 62.75L236.86 62.75C237.34 61.68 238.28 61 239.91 61C242.03 61 243.44 62.25 243.44 64.91L243.44 71.5L241.85 71.5L241.85 65.02C241.85 63.37 240.95 62.43 239.45 62.43ZM269.38 71.5L267.84 71.5L267.84 57.68L269.43 57.68L269.43 62.78L269.57 62.78C269.92 62.24 270.54 61 272.56 61C275.18 61 276.99 63.08 276.99 66.34C276.99 69.63 275.18 71.71 272.59 71.71C270.59 71.71 269.92 70.47 269.57 69.9L269.38 69.9L269.38 71.5ZM300.95 62.43C299.38 62.43 298.22 63.45 298.22 65.26L298.22 71.5L296.63 71.5L296.63 57.68L298.22 57.68L298.22 62.75L298.36 62.75C298.84 61.68 299.78 61 301.41 61C303.53 61 304.94 62.25 304.94 64.91L304.94 71.5L303.35 71.5L303.35 65.02C303.35 63.37 302.45 62.43 300.95 62.43ZM394.67 57.68L396.26 57.68L396.26 71.5L394.67 71.5L394.67 57.68ZM346.45 74.38C345.61 74.73 343.86 75.14 342.49 75.14C336.98 75.14 333.98 72.06 333.98 66.61C333.98 61.35 337.09 58.19 342.3 58.19C347.34 58.19 349.93 61.83 349.93 65.53C349.93 68.15 349.66 71.23 346.8 71.23C345.86 71.23 344.4 70.82 344.24 69.66L344.16 69.66C343.83 70.44 343.02 71.2 341.48 71.14C339.14 71.06 337.92 69.09 337.92 66.53C337.92 64.1 339.46 62.43 341.48 62.21C342.83 62.07 343.89 62.59 344.08 63.18L344.16 63.18L344.16 62.43L345.59 62.43L345.59 68.53C345.59 69.28 346.02 69.96 346.83 69.96C348.2 69.96 348.53 68.58 348.53 65.5C348.53 62.48 346.5 59.46 342.21 59.46C337.98 59.46 335.47 62.16 335.47 66.67C335.47 71.25 337.92 73.84 342.54 73.84C344.02 73.84 345.59 73.3 346.07 73.14L346.45 74.38ZM280.82 71.5L279.23 71.5L279.23 61.13L280.77 61.13L280.77 62.7L280.87 62.7C281.25 61.67 282.33 60.97 283.57 60.97C283.81 60.97 284.23 60.98 284.41 61L284.41 62.62C284.3 62.59 283.86 62.51 283.44 62.51C281.93 62.51 280.82 63.54 280.82 64.94L280.82 71.5ZM191.28 70.09C190.96 70.77 190.01 71.74 188.21 71.74C186.24 71.74 184.67 70.58 184.67 68.55C184.67 66.18 186.77 65.75 188.69 65.5C190.58 65.26 191.36 65.33 191.36 64.56L191.36 64.5C191.36 63.18 190.64 62.4 189.18 62.4C187.66 62.4 186.83 63.21 186.48 63.97L184.97 63.42C185.78 61.54 187.56 61 189.12 61C190.45 61 192.96 61.37 192.96 64.67L192.96 71.5L191.36 71.5L191.36 70.09L191.28 70.09ZM232.89 66.37C232.89 69.58 231 71.71 228.2 71.71C225.39 71.71 223.5 69.58 223.5 66.37C223.5 63.13 225.39 61 228.2 61C231 61 232.89 63.13 232.89 66.37ZM250.41 62.43C248.88 62.43 247.76 63.45 247.76 65.26L247.76 71.5L246.17 71.5L246.17 61.13L247.71 61.13L247.71 62.75L247.84 62.75C248.33 61.7 249.3 61 250.87 61C252.96 61 254.37 62.26 254.37 64.91L254.37 71.5L252.78 71.5L252.78 65.02C252.78 63.39 251.88 62.43 250.41 62.43ZM263.23 70.09C262.9 70.77 261.95 71.74 260.15 71.74C258.18 71.74 256.61 70.58 256.61 68.55C256.61 66.18 258.71 65.75 260.63 65.5C262.53 65.26 263.3 65.33 263.3 64.56L263.3 64.5C263.3 63.18 262.59 62.4 261.12 62.4C259.6 62.4 258.77 63.21 258.42 63.97L256.91 63.42C257.72 61.54 259.5 61 261.06 61C262.39 61 264.9 61.37 264.9 64.67L264.9 71.5L263.3 71.5L263.3 70.09L263.23 70.09ZM292.24 70.09C291.91 70.77 290.96 71.74 289.16 71.74C287.19 71.74 285.62 70.58 285.62 68.55C285.62 66.18 287.72 65.75 289.64 65.5C291.53 65.26 292.31 65.33 292.31 64.56L292.31 64.5C292.31 63.18 291.59 62.4 290.13 62.4C288.61 62.4 287.78 63.21 287.43 63.97L285.92 63.42C286.73 61.54 288.51 61 290.07 61C291.4 61 293.91 61.37 293.91 64.67L293.91 71.5L292.31 71.5L292.31 70.09L292.24 70.09ZM313.8 70.09C313.47 70.77 312.53 71.74 310.72 71.74C308.75 71.74 307.18 70.58 307.18 68.55C307.18 66.18 309.28 65.75 311.2 65.5C313.1 65.26 313.88 65.33 313.88 64.56L313.88 64.5C313.88 63.18 313.16 62.4 311.69 62.4C310.17 62.4 309.34 63.21 308.99 63.97L307.48 63.42C308.29 61.54 310.07 61 311.64 61C312.96 61 315.47 61.37 315.47 64.67L315.47 71.5L313.88 71.5L313.88 70.09L313.8 70.09ZM319.78 71.5L318.19 71.5L318.19 61.13L319.73 61.13L319.73 62.75L319.87 62.75C320.3 61.64 321.3 61 322.65 61C324.01 61 324.92 61.64 325.43 62.75L325.54 62.75C326.07 61.68 327.16 61 328.64 61C330.49 61 331.8 62.12 331.8 64.56L331.8 71.5L330.2 71.5L330.2 64.56C330.2 63.03 329.23 62.43 328.1 62.43C326.64 62.43 325.81 63.41 325.81 64.75L325.81 71.5L324.19 71.5L324.19 64.4C324.19 63.22 323.34 62.43 322.14 62.43C320.89 62.43 319.78 63.5 319.78 65.02L319.78 71.5ZM360.78 71.79C360.78 74.46 358.78 75.6 356.3 75.6C353.99 75.6 352.71 74.61 352.07 73.52L353.33 72.63C353.76 73.2 354.42 74.19 356.3 74.19C357.97 74.19 359.19 73.41 359.19 71.69L359.19 69.58L359.05 69.58C358.7 70.15 358.05 71.33 356.03 71.33C353.52 71.33 351.63 69.5 351.63 66.26C351.63 63.08 353.44 61 356.06 61C358.08 61 358.73 62.24 359.08 62.78L359.24 62.78L359.24 61.13L360.78 61.13L360.78 71.79ZM365.1 71.5L363.5 71.5L363.5 61.13L365.04 61.13L365.04 62.75L365.18 62.75C365.61 61.64 366.61 61 367.96 61C369.32 61 370.23 61.64 370.74 62.75L370.85 62.75C371.38 61.68 372.47 61 373.95 61C375.8 61 377.11 62.12 377.11 64.56L377.11 71.5L375.51 71.5L375.51 64.56C375.51 63.03 374.54 62.43 373.41 62.43C371.95 62.43 371.12 63.41 371.12 64.75L371.12 71.5L369.5 71.5L369.5 64.4C369.5 63.22 368.65 62.43 367.45 62.43C366.2 62.43 365.1 63.5 365.1 65.02L365.1 71.5ZM385.96 70.09C385.63 70.77 384.69 71.74 382.88 71.74C380.91 71.74 379.34 70.58 379.34 68.55C379.34 66.18 381.45 65.75 383.37 65.5C385.26 65.26 386.04 65.33 386.04 64.56L386.04 64.5C386.04 63.18 385.32 62.4 383.85 62.4C382.34 62.4 381.51 63.21 381.15 63.97L379.64 63.42C380.45 61.54 382.23 61 383.8 61C385.12 61 387.63 61.37 387.63 64.67L387.63 71.5L386.04 71.5L386.04 70.09L385.96 70.09ZM412.32 68.47C412.05 70.31 410.54 71.71 408.25 71.71C405.33 71.71 403.55 69.47 403.55 66.37C403.55 63.21 405.41 61 408.22 61C410.4 61 412.05 62.29 412.32 64.24L410.73 64.24C410.49 63.29 409.65 62.43 408.25 62.43C406.38 62.43 405.14 63.97 405.14 66.31C405.14 68.72 406.36 70.28 408.25 70.28C409.49 70.28 410.43 69.61 410.73 68.47L412.32 68.47ZM423.36 66.37C423.36 69.58 421.47 71.71 418.66 71.71C415.86 71.71 413.97 69.58 413.97 66.37C413.97 63.13 415.86 61 418.66 61C421.47 61 423.36 63.13 423.36 66.37ZM427.19 71.5L425.6 71.5L425.6 61.13L427.14 61.13L427.14 62.75L427.27 62.75C427.7 61.64 428.7 61 430.05 61C431.41 61 432.32 61.64 432.83 62.75L432.94 62.75C433.47 61.68 434.56 61 436.04 61C437.89 61 439.2 62.12 439.2 64.56L439.2 71.5L437.61 71.5L437.61 64.56C437.61 63.03 436.64 62.43 435.5 62.43C434.04 62.43 433.21 63.41 433.21 64.75L433.21 71.5L431.59 71.5L431.59 64.4C431.59 63.22 430.75 62.43 429.54 62.43C428.3 62.43 427.19 63.5 427.19 65.02L427.19 71.5ZM197.27 71.5L195.68 71.5L195.68 61.13L197.27 61.13L197.27 71.5ZM219.67 72.25L219.67 61.13L221.26 61.13L221.26 72.25C221.26 74.17 220.29 75.38 218.29 75.38L217.97 75.38L217.97 73.9L218.27 73.9C219.24 73.9 219.67 73.3 219.67 72.25ZM391.95 71.5L390.36 71.5L390.36 61.13L391.95 61.13L391.95 71.5ZM211.84 62.7C211.84 63.36 211.3 63.91 210.63 63.91C209.96 63.91 209.42 63.36 209.42 62.7C209.42 62.03 209.96 61.48 210.63 61.48C211.3 61.48 211.84 62.03 211.84 62.7ZM225.09 66.37C225.09 68.45 226.06 70.28 228.2 70.28C230.33 70.28 231.3 68.45 231.3 66.37C231.3 64.29 230.33 62.43 228.2 62.43C226.06 62.43 225.09 64.29 225.09 66.37ZM272.37 62.43C270.43 62.43 269.4 63.99 269.4 66.31C269.4 68.66 270.46 70.28 272.37 70.28C274.37 70.28 275.4 68.53 275.4 66.31C275.4 64.13 274.4 62.43 272.37 62.43ZM353.22 66.23C353.22 68.39 354.25 69.9 356.24 69.9C358.16 69.9 359.21 68.53 359.21 66.23C359.21 63.99 358.19 62.43 356.24 62.43C354.22 62.43 353.22 64.13 353.22 66.23ZM415.56 66.37C415.56 68.45 416.53 70.28 418.66 70.28C420.79 70.28 421.77 68.45 421.77 66.37C421.77 64.29 420.79 62.43 418.66 62.43C416.53 62.43 415.56 64.29 415.56 66.37ZM339.33 66.45C339.33 68.17 339.95 69.77 341.7 69.77C343.51 69.77 344.24 68.69 344.24 66.45C344.24 64.18 343.38 63.54 341.75 63.54C340.22 63.54 339.33 64.88 339.33 66.45ZM186.27 68.63C186.27 69.74 187.18 70.31 188.45 70.31C190.34 70.31 191.36 69.04 191.36 67.74L191.36 66.29C191.09 66.61 189.29 66.8 188.61 66.88C187.37 67.04 186.27 67.42 186.27 68.63ZM258.21 68.63C258.21 69.74 259.12 70.31 260.39 70.31C262.28 70.31 263.3 69.04 263.3 67.74L263.3 66.29C263.04 66.61 261.23 66.8 260.55 66.88C259.31 67.04 258.21 67.42 258.21 68.63ZM287.22 68.63C287.22 69.74 288.13 70.31 289.4 70.31C291.29 70.31 292.31 69.04 292.31 67.74L292.31 66.29C292.04 66.61 290.24 66.8 289.56 66.88C288.32 67.04 287.22 67.42 287.22 68.63ZM308.78 68.63C308.78 69.74 309.7 70.31 310.96 70.31C312.85 70.31 313.88 69.04 313.88 67.74L313.88 66.29C313.61 66.61 311.8 66.8 311.12 66.88C309.88 67.04 308.78 67.42 308.78 68.63ZM380.94 68.63C380.94 69.74 381.86 70.31 383.12 70.31C385.01 70.31 386.04 69.04 386.04 67.74L386.04 66.29C385.77 66.61 383.96 66.8 383.29 66.88C382.04 67.04 380.94 67.42 380.94 68.63ZM211.84 70.39C211.84 71.05 211.3 71.6 210.63 71.6C209.96 71.6 209.42 71.05 209.42 70.39C209.42 69.72 209.96 69.18 210.63 69.18C211.3 69.18 211.84 69.72 211.84 70.39ZM401.37 70.39C401.37 71.05 400.82 71.6 400.15 71.6C399.48 71.6 398.94 71.05 398.94 70.39C398.94 69.72 399.48 69.18 400.15 69.18C400.82 69.18 401.37 69.72 401.37 70.39ZM242.8 107.22C241.15 104.82 240.23 101.99 240.23 98.59C240.23 95.18 241.15 92.35 242.8 89.95L244.2 89.95C242.9 91.73 241.88 95.37 241.88 98.59C241.88 101.8 242.9 105.44 244.2 107.22L242.8 107.22ZM270.19 89.95C271.83 92.35 272.75 95.18 272.75 98.59C272.75 101.99 271.83 104.82 270.19 107.22L268.78 107.22C270.08 105.44 271.1 101.8 271.1 98.59C271.1 95.37 270.08 91.73 268.78 89.95L270.19 89.95ZM357.84 96.1C357.84 93.56 359.65 91.45 362.45 91.49C364.72 91.51 367.25 92.95 367.25 98.02C367.25 102.93 365.34 105.69 362.23 105.69C359.92 105.69 358.27 104.2 357.94 102.01L359.59 102.01C359.89 103.28 360.78 104.2 362.23 104.2C364.37 104.2 365.69 102.26 365.69 98.86L365.58 98.86C364.83 99.99 363.61 100.69 362.18 100.69C359.81 100.69 357.84 98.77 357.84 96.1ZM266.74 105.5L258.01 105.5L258.01 104.28L262.58 99.29C264.18 97.54 264.93 96.59 264.93 95.32C264.93 93.86 263.78 92.95 262.28 92.95C260.68 92.95 259.66 93.99 259.66 95.56L258.07 95.56C258.07 93.13 259.91 91.49 262.33 91.49C264.76 91.49 266.49 93.19 266.49 95.32C266.49 96.85 265.79 98.04 263.42 100.58L260.31 103.9L260.31 104.01L266.74 104.01L266.74 105.5ZM298.52 105.5L289.8 105.5L289.8 104.28L294.37 99.29C295.96 97.54 296.72 96.59 296.72 95.32C296.72 93.86 295.57 92.95 294.07 92.95C292.47 92.95 291.45 93.99 291.45 95.56L289.86 95.56C289.86 93.13 291.7 91.49 294.12 91.49C296.55 91.49 298.28 93.19 298.28 95.32C298.28 96.85 297.58 98.04 295.2 100.58L292.1 103.9L292.1 104.01L298.52 104.01L298.52 105.5ZM310.45 101.74C310.45 104.01 308.46 105.69 305.78 105.69C303.1 105.69 301.19 104.22 301.09 102.04L302.79 102.04C302.89 103.38 304.15 104.2 305.75 104.2C307.53 104.2 308.81 103.21 308.81 101.74C308.81 100.22 307.64 99.15 305.54 99.15L304.43 99.15L304.43 97.67L305.54 97.67C307.18 97.67 308.32 96.72 308.32 95.27C308.32 93.87 307.33 92.95 305.81 92.95C304.37 92.95 303.06 93.75 303 95.13L301.38 95.13C301.46 92.96 303.45 91.49 305.84 91.49C308.39 91.49 309.94 93.23 309.94 95.18C309.94 96.74 309.07 97.89 307.67 98.31L307.67 98.43C309.41 98.71 310.45 99.99 310.45 101.74ZM379.02 98.59C379.02 103.1 377.27 105.69 374.22 105.69C371.17 105.69 369.41 103.1 369.41 98.59C369.41 94.11 371.19 91.49 374.22 91.49C377.24 91.49 379.02 94.11 379.02 98.59ZM390.71 98.59C390.71 103.1 388.95 105.69 385.9 105.69C382.85 105.69 381.1 103.1 381.1 98.59C381.1 94.11 382.88 91.49 385.9 91.49C388.93 91.49 390.71 94.11 390.71 98.59ZM402.39 98.59C402.39 103.1 400.64 105.69 397.59 105.69C394.54 105.69 392.78 103.1 392.78 98.59C392.78 94.11 394.56 91.49 397.59 91.49C400.61 91.49 402.39 94.11 402.39 98.59ZM170.34 105.5L168.67 105.5L168.67 91.68L173.34 91.68C176.58 91.68 178.04 93.61 178.04 96.05C178.04 98.49 176.58 100.45 173.36 100.45L170.34 100.45L170.34 105.5ZM184.64 96.43C183.07 96.43 181.92 97.45 181.92 99.26L181.92 105.5L180.33 105.5L180.33 91.68L181.92 91.68L181.92 96.75L182.06 96.75C182.54 95.68 183.47 95 185.1 95C187.22 95 188.64 96.25 188.64 98.91L188.64 105.5L187.05 105.5L187.05 99.02C187.05 97.37 186.14 96.43 184.64 96.43ZM284.35 91.68L286.03 91.68L286.03 105.5L284.35 105.5L284.35 93.43L284.27 93.43L280.9 95.67L280.9 93.97L284.35 91.68ZM327.05 101.1C327.05 103.74 325.12 105.69 322.48 105.69C320.11 105.69 318.29 104.15 318.19 102.04L319.81 102.04C319.94 103.29 321.07 104.2 322.48 104.2C324.19 104.2 325.43 102.9 325.43 101.12C325.43 99.32 324.14 97.98 322.38 97.97C321.53 97.96 320.55 98.25 319.97 98.67L318.41 98.48L319.25 91.68L326.43 91.68L326.43 93.16L320.65 93.16L320.17 97.24L320.24 97.24C320.81 96.78 321.71 96.45 322.65 96.45C325.18 96.45 327.05 98.42 327.05 101.1ZM335.71 102.66L329.21 102.66L329.21 101.28L335.28 91.68L337.3 91.68L337.3 101.18L339.19 101.18L339.19 102.66L337.3 102.66L337.3 105.5L335.71 105.5L335.71 102.66ZM350.42 101.1C350.42 103.74 348.49 105.69 345.85 105.69C343.48 105.69 341.67 104.15 341.56 102.04L343.18 102.04C343.31 103.29 344.44 104.2 345.85 104.2C347.56 104.2 348.8 102.9 348.8 101.12C348.8 99.32 347.51 97.98 345.75 97.97C344.9 97.96 343.92 98.25 343.34 98.67L341.78 98.48L342.62 91.68L349.8 91.68L349.8 93.16L344.02 93.16L343.54 97.24L343.61 97.24C344.18 96.78 345.08 96.45 346.02 96.45C348.55 96.45 350.42 98.42 350.42 101.1ZM371.03 98.59C371.03 102.18 372.21 104.2 374.22 104.2C376.23 104.2 377.4 102.18 377.4 98.59C377.4 95 376.22 92.95 374.22 92.95C372.22 92.95 371.03 95 371.03 98.59ZM382.72 98.59C382.72 102.18 383.89 104.2 385.9 104.2C387.91 104.2 389.09 102.18 389.09 98.59C389.09 95 387.9 92.95 385.9 92.95C383.9 92.95 382.72 95 382.72 98.59ZM394.4 98.59C394.4 102.18 395.58 104.2 397.59 104.2C399.6 104.2 400.77 102.18 400.77 98.59C400.77 95 399.59 92.95 397.59 92.95C395.59 92.95 394.4 95 394.4 98.59ZM365.45 96.07C365.45 94.46 364.18 92.97 362.45 92.97C360.75 92.97 359.46 94.38 359.46 96.1C359.46 97.83 360.7 99.21 362.4 99.21C364.1 99.21 365.45 97.72 365.45 96.07ZM170.34 93.16L170.34 98.96L173.31 98.96C175.53 98.96 176.39 97.71 176.39 96.05C176.39 94.39 175.53 93.16 173.29 93.16L170.34 93.16ZM331.01 101.18L335.71 101.18L335.71 93.81L335.6 93.81L331.01 101.07L331.01 101.18ZM251.92 103.06L250.41 103.06L250.41 99.37L246.71 99.37L246.71 97.86L250.41 97.86L250.41 94.16L251.92 94.16L251.92 97.86L255.62 97.86L255.62 99.37L251.92 99.37L251.92 103.06ZM200.27 100.37C200.27 103.58 198.38 105.71 195.58 105.71C192.77 105.71 190.88 103.58 190.88 100.37C190.88 97.13 192.77 95 195.58 95C198.38 95 200.27 97.13 200.27 100.37ZM206.75 96.43C205.22 96.43 204.1 97.45 204.1 99.26L204.1 105.5L202.51 105.5L202.51 95.13L204.05 95.13L204.05 96.75L204.18 96.75C204.67 95.7 205.64 95 207.21 95C209.3 95 210.71 96.26 210.71 98.91L210.71 105.5L209.12 105.5L209.12 99.02C209.12 97.39 208.22 96.43 206.75 96.43ZM221.91 103.09C221.43 104.66 219.89 105.71 217.78 105.71C214.79 105.71 212.95 103.58 212.95 100.39C212.95 97.21 214.82 95 217.62 95C219.78 95 222.07 96.32 222.07 100.18L222.07 100.85L214.55 100.85C214.63 103.07 215.91 104.28 217.78 104.28C219.03 104.28 219.97 103.74 220.37 102.66L221.91 103.09ZM231.84 96.7C231.84 97.36 231.29 97.91 230.63 97.91C229.96 97.91 229.42 97.36 229.42 96.7C229.42 96.03 229.96 95.48 230.63 95.48C231.29 95.48 231.84 96.03 231.84 96.7ZM192.47 100.37C192.47 102.45 193.44 104.28 195.58 104.28C197.7 104.28 198.68 102.45 198.68 100.37C198.68 98.29 197.7 96.43 195.58 96.43C193.44 96.43 192.47 98.29 192.47 100.37ZM217.62 96.43C215.8 96.43 214.66 97.86 214.55 99.48L220.46 99.48C220.46 97.72 219.35 96.43 217.62 96.43ZM231.84 104.39C231.84 105.05 231.29 105.6 230.63 105.6C229.96 105.6 229.42 105.05 229.42 104.39C229.42 103.72 229.96 103.18 230.63 103.18C231.29 103.18 231.84 103.72 231.84 104.39Z" fill="#B4C7E7" fill-opacity="1.000000" fill-rule="evenodd"/>
</svg>
