<svg width="188.817383" height="75.149414" viewBox="0 0 188.817 75.1494" fill="none" xmlns="http://www.w3.org/2000/svg" xmlns:xlink="http://www.w3.org/1999/xlink">
	<desc>
			Created with Pixso.
	</desc>
	<defs/>
	<path id="Vector" d="M16.07 30.15L16.07 30.5C15.71 30.51 15.45 30.56 15.26 30.63C15.08 30.71 14.96 30.85 14.9 31.06C14.84 31.26 14.81 31.59 14.81 32.02L14.81 40.81C14.81 41.23 14.84 41.55 14.9 41.77C14.97 41.98 15.09 42.12 15.27 42.19C15.44 42.26 15.71 42.31 16.06 42.33L16.06 42.69C15.69 42.66 15.23 42.65 14.66 42.64C14.1 42.64 13.52 42.63 12.93 42.63C12.29 42.63 11.69 42.64 11.13 42.64C10.57 42.65 10.12 42.66 9.77 42.69L9.77 42.33C10.18 42.31 10.48 42.26 10.69 42.19C10.89 42.12 11.03 41.98 11.11 41.77C11.18 41.56 11.21 41.24 11.21 40.81L11.21 31.33L11.39 31.3L6.94 42.68L6.66 42.68L1.66 31.3L1.66 39.22C1.66 40.02 1.69 40.62 1.76 41.04C1.82 41.46 1.98 41.76 2.24 41.94C2.49 42.13 2.89 42.26 3.45 42.34L3.45 42.7C3.21 42.67 2.9 42.66 2.52 42.65C2.15 42.65 1.79 42.64 1.46 42.64C1.2 42.64 0.93 42.65 0.66 42.65C0.4 42.66 0.17 42.67 0 42.7L0 42.34C0.36 42.26 0.63 42.13 0.81 41.96C0.98 41.79 1.1 41.52 1.16 41.14C1.22 40.76 1.25 40.24 1.25 39.58L1.25 32.02C1.25 31.59 1.22 31.27 1.16 31.06C1.1 30.85 0.98 30.71 0.8 30.64C0.62 30.56 0.35 30.52 0 30.5L0 30.15C0.17 30.16 0.4 30.17 0.67 30.18C0.94 30.19 1.2 30.2 1.46 30.2C2.15 30.2 2.81 30.2 3.43 30.18C4.06 30.17 4.62 30.16 5.13 30.15L8.64 38.05L8.11 38.64L11.39 30.2C11.63 30.2 11.88 30.2 12.15 30.2C12.42 30.2 12.68 30.2 12.93 30.2C13.52 30.2 14.1 30.2 14.66 30.18C15.24 30.17 15.71 30.16 16.07 30.15Z" fill="#1B3764" fill-opacity="1.000000" fill-rule="nonzero"/>
	<path id="Vector" d="M28.74 30.15C28.69 30.74 28.66 31.31 28.64 31.86C28.62 32.41 28.62 32.83 28.62 33.13C28.62 33.37 28.62 33.61 28.63 33.83C28.64 34.06 28.66 34.25 28.67 34.4L28.26 34.4C28.12 33.42 27.89 32.65 27.56 32.09C27.22 31.52 26.84 31.13 26.4 30.9C25.95 30.67 25.49 30.56 25 30.56L24.77 30.56C24.46 30.56 24.24 30.58 24.08 30.64C23.93 30.69 23.82 30.79 23.77 30.94C23.72 31.1 23.69 31.34 23.69 31.67L23.69 41.17C23.69 41.49 23.72 41.73 23.77 41.89C23.83 42.05 23.93 42.16 24.08 42.21C24.23 42.26 24.46 42.29 24.77 42.29L25.36 42.29C25.75 42.29 26.16 42.16 26.59 41.91C27.02 41.66 27.42 41.22 27.79 40.61C28.15 39.99 28.43 39.15 28.62 38.09L29.03 38.09C28.99 38.51 28.98 39.06 28.98 39.72C28.98 40.02 28.98 40.43 28.99 40.98C29 41.54 29.04 42.11 29.1 42.7C28.5 42.67 27.82 42.66 27.06 42.65C26.3 42.65 25.63 42.64 25.04 42.64C24.62 42.64 24.04 42.64 23.33 42.64C22.61 42.64 21.86 42.65 21.06 42.65C20.26 42.66 19.52 42.67 18.83 42.7L18.83 42.34C19.2 42.32 19.47 42.27 19.65 42.2C19.83 42.13 19.95 41.99 20.01 41.78C20.07 41.57 20.1 41.25 20.1 40.82L20.1 32.02C20.1 31.59 20.07 31.27 20.01 31.06C19.95 30.85 19.82 30.71 19.64 30.64C19.46 30.56 19.19 30.52 18.83 30.51L18.83 30.15C19.52 30.16 20.26 30.18 21.06 30.19C21.86 30.2 22.62 30.21 23.33 30.21C24.04 30.21 24.61 30.21 25.04 30.21C25.58 30.21 26.2 30.2 26.89 30.2C27.58 30.19 28.2 30.17 28.74 30.15ZM26.17 36.21L26.17 36.56L23.16 36.56L23.16 36.21L26.17 36.21ZM26.68 33.87C26.64 34.54 26.61 35.05 26.62 35.41C26.63 35.76 26.63 36.09 26.63 36.38C26.63 36.68 26.64 37 26.65 37.36C26.66 37.71 26.69 38.22 26.75 38.89L26.34 38.89C26.27 38.46 26.12 38.06 25.9 37.71C25.69 37.36 25.4 37.07 25.06 36.87C24.72 36.66 24.32 36.56 23.87 36.56L23.87 36.2C24.32 36.2 24.71 36.08 25.04 35.83C25.37 35.58 25.64 35.28 25.86 34.92C26.07 34.56 26.21 34.21 26.28 33.86L26.68 33.86L26.68 33.87Z" fill="#1B3764" fill-opacity="1.000000" fill-rule="nonzero"/>
	<path id="Vector" d="M39.14 29.9C39.97 29.9 40.65 30.01 41.18 30.24C41.71 30.46 42.18 30.73 42.58 31.05C42.71 31.16 42.83 31.21 42.93 31.21C43.16 31.21 43.31 30.86 43.38 30.15L43.79 30.15C43.76 30.62 43.75 31.2 43.73 31.87C43.72 32.55 43.71 33.45 43.71 34.57L43.31 34.57C43.23 33.72 43.08 33.01 42.87 32.44C42.67 31.87 42.27 31.38 41.68 30.97C41.43 30.81 41.14 30.68 40.81 30.59C40.48 30.49 40.16 30.44 39.85 30.44C39.16 30.44 38.6 30.63 38.15 31C37.7 31.38 37.34 31.86 37.08 32.46C36.81 33.05 36.62 33.71 36.51 34.41C36.4 35.11 36.34 35.8 36.34 36.46C36.34 38.58 36.6 40.14 37.12 41.12C37.64 42.1 38.33 42.59 39.19 42.59C39.38 42.59 39.55 42.56 39.69 42.53C39.83 42.49 39.96 42.44 40.06 42.37C40.19 42.27 40.28 42.16 40.34 42.01C40.41 41.87 40.44 41.7 40.44 41.48L40.44 39.71C40.44 39.13 40.39 38.7 40.3 38.42C40.21 38.14 40.04 37.94 39.78 37.83C39.52 37.73 39.14 37.67 38.64 37.66L38.64 37.3C38.92 37.31 39.24 37.33 39.64 37.33C40.03 37.34 40.44 37.34 40.86 37.35C41.28 37.36 41.68 37.36 42.03 37.36C42.6 37.36 43.12 37.36 43.6 37.34C44.08 37.33 44.46 37.31 44.76 37.3L44.76 37.66C44.47 37.68 44.27 37.77 44.18 37.94C44.08 38.11 44.04 38.52 44.04 39.18L44.04 42.69L43.68 42.69C43.67 42.49 43.62 42.27 43.54 42.03C43.46 41.8 43.32 41.68 43.13 41.68C43.04 41.68 42.9 41.71 42.73 41.75C42.56 41.8 42.29 41.91 41.92 42.09C41.46 42.31 40.98 42.51 40.46 42.69C39.95 42.86 39.44 42.94 38.93 42.94C36.71 42.94 35.04 42.38 33.93 41.25C32.82 40.13 32.26 38.55 32.26 36.53C32.26 35.2 32.56 34.04 33.14 33.05C33.73 32.06 34.53 31.29 35.57 30.73C36.6 30.18 37.79 29.9 39.14 29.9Z" fill="#1B3764" fill-opacity="1.000000" fill-rule="nonzero"/>
	<path id="Vector" d="M53.64 30.15L57.93 41.21C58.1 41.61 58.27 41.89 58.46 42.07C58.65 42.24 58.82 42.33 58.98 42.34L58.98 42.69C58.55 42.67 58.05 42.65 57.49 42.65C56.92 42.64 56.34 42.64 55.75 42.64C55.15 42.64 54.58 42.64 54.05 42.65C53.52 42.65 53.09 42.67 52.77 42.69L52.77 42.34C53.37 42.31 53.76 42.21 53.91 42.03C54.07 41.85 54.03 41.45 53.8 40.85L50.96 33L51.31 32.38L48.87 38.74C48.48 39.76 48.29 40.52 48.29 41.03C48.3 41.54 48.45 41.88 48.75 42.05C49.04 42.22 49.43 42.32 49.9 42.34L49.9 42.7C49.46 42.67 49.07 42.66 48.72 42.65C48.37 42.65 47.99 42.64 47.58 42.64C47.36 42.64 47.12 42.65 46.87 42.65C46.61 42.66 46.4 42.67 46.22 42.7L46.22 42.34C46.49 42.3 46.76 42.12 47.03 41.82C47.29 41.51 47.57 41 47.85 40.27L51.78 30.15C52.07 30.17 52.38 30.18 52.71 30.18C53.04 30.18 53.36 30.17 53.64 30.15ZM54.26 37.59L54.26 37.95L48.98 37.95L49.16 37.59L54.26 37.59Z" fill="#1B3764" fill-opacity="1.000000" fill-rule="nonzero"/>
	<path id="Vector" d="M72.81 30.15L72.81 30.5C72.46 30.57 72.19 30.7 72.01 30.87C71.82 31.05 71.7 31.33 71.64 31.7C71.58 32.07 71.55 32.59 71.55 33.27L71.55 42.7C71.37 42.67 71.18 42.66 70.98 42.66C70.77 42.66 70.55 42.67 70.31 42.7L62.46 34.12L62.46 39.22C62.46 40.02 62.49 40.62 62.56 41.04C62.62 41.46 62.78 41.76 63.04 41.94C63.29 42.13 63.69 42.26 64.25 42.34L64.25 42.7C64.01 42.67 63.7 42.66 63.32 42.65C62.94 42.65 62.59 42.64 62.26 42.64C62 42.64 61.73 42.65 61.46 42.65C61.19 42.66 60.97 42.67 60.79 42.7L60.79 42.34C61.16 42.26 61.42 42.13 61.6 41.96C61.78 41.79 61.89 41.52 61.96 41.14C62.02 40.76 62.05 40.24 62.05 39.58L62.05 32.02C62.05 31.59 62.02 31.27 61.96 31.06C61.89 30.85 61.77 30.71 61.59 30.64C61.41 30.56 61.14 30.52 60.78 30.51L60.78 30.15C60.96 30.16 61.19 30.18 61.46 30.19C61.73 30.2 61.99 30.21 62.25 30.21C62.55 30.21 62.84 30.2 63.12 30.19C63.4 30.18 63.66 30.16 63.88 30.15L71.13 37.81L71.13 33.62C71.13 32.83 71.1 32.22 71.04 31.8C70.97 31.38 70.81 31.08 70.57 30.89C70.32 30.7 69.91 30.57 69.35 30.5L69.35 30.15C69.58 30.16 69.89 30.17 70.27 30.18C70.65 30.19 71 30.2 71.33 30.2C71.61 30.2 71.87 30.2 72.14 30.18C72.41 30.17 72.64 30.16 72.81 30.15Z" fill="#1B3764" fill-opacity="1.000000" fill-rule="nonzero"/>
	<path id="Vector" d="M116.99 30.15C117.34 30.16 117.79 30.17 118.35 30.18C118.91 30.19 119.48 30.2 120.04 30.2C120.63 30.2 121.2 30.2 121.74 30.18C122.29 30.17 122.67 30.16 122.89 30.16C124.52 30.16 125.72 30.42 126.51 30.94C127.3 31.46 127.7 32.13 127.7 32.94C127.7 33.36 127.55 33.79 127.25 34.23C126.96 34.67 126.51 35.06 125.9 35.4C125.3 35.74 124.54 35.97 123.6 36.08L123.6 36.12C124.82 36.18 125.79 36.37 126.52 36.68C127.26 37 127.79 37.39 128.12 37.84C128.45 38.3 128.61 38.77 128.61 39.25C128.61 40.43 128.14 41.3 127.2 41.86C126.25 42.41 124.95 42.69 123.3 42.69C123.02 42.69 122.6 42.68 122.05 42.67C121.5 42.65 120.84 42.64 120.07 42.64C119.48 42.64 118.91 42.65 118.35 42.65C117.79 42.66 117.33 42.67 116.99 42.7L116.99 42.34C117.35 42.32 117.62 42.27 117.8 42.2C117.98 42.13 118.09 41.99 118.15 41.78C118.22 41.57 118.25 41.25 118.25 40.82L118.25 32.02C118.25 31.59 118.22 31.27 118.15 31.06C118.09 30.85 117.97 30.71 117.79 30.64C117.61 30.56 117.34 30.52 116.98 30.51L116.98 30.15L116.99 30.15ZM122.81 30.5C122.41 30.5 122.15 30.6 122.03 30.8C121.92 31 121.85 31.41 121.85 32.02L121.85 40.81C121.85 41.43 121.93 41.83 122.08 42.01C122.22 42.19 122.54 42.28 123.01 42.28C123.67 42.28 124.15 42.01 124.45 41.47C124.75 40.94 124.9 40.17 124.9 39.18C124.9 38.27 124.69 37.57 124.26 37.07C123.83 36.57 123.11 36.33 122.1 36.33L120.81 36.33L120.81 36.02L122.33 36.02C122.79 36.02 123.15 35.89 123.4 35.62C123.65 35.36 123.82 35 123.91 34.56C124.01 34.11 124.06 33.64 124.06 33.13C124.06 32.26 123.96 31.6 123.77 31.16C123.58 30.72 123.26 30.5 122.81 30.5Z" fill="#1B3764" fill-opacity="1.000000" fill-rule="nonzero"/>
	<path id="Vector" d="M138.09 29.9C139.42 29.9 140.59 30.15 141.59 30.66C142.6 31.17 143.38 31.9 143.93 32.85C144.49 33.8 144.76 34.96 144.76 36.32C144.76 37.64 144.48 38.8 143.92 39.79C143.35 40.78 142.56 41.56 141.55 42.11C140.54 42.67 139.38 42.94 138.06 42.94C136.73 42.94 135.56 42.69 134.56 42.18C133.55 41.67 132.77 40.94 132.22 39.99C131.66 39.03 131.39 37.88 131.39 36.53C131.39 35.2 131.67 34.04 132.24 33.05C132.81 32.06 133.61 31.29 134.61 30.73C135.62 30.18 136.77 29.9 138.09 29.9ZM138.01 30.22C137.42 30.22 136.91 30.48 136.47 31.01C136.03 31.54 135.7 32.28 135.47 33.21C135.23 34.14 135.11 35.23 135.11 36.45C135.11 37.7 135.25 38.79 135.52 39.72C135.79 40.65 136.16 41.36 136.62 41.87C137.08 42.37 137.59 42.62 138.14 42.62C138.74 42.62 139.25 42.35 139.68 41.82C140.12 41.29 140.46 40.56 140.69 39.62C140.93 38.68 141.05 37.6 141.05 36.38C141.05 35.12 140.91 34.02 140.64 33.1C140.37 32.18 140 31.47 139.54 30.97C139.08 30.47 138.57 30.22 138.01 30.22Z" fill="#1B3764" fill-opacity="1.000000" fill-rule="nonzero"/>
	<path id="Vector" d="M154.52 29.9C155.85 29.9 157.02 30.15 158.02 30.66C159.03 31.17 159.81 31.9 160.36 32.85C160.92 33.8 161.19 34.96 161.19 36.32C161.19 37.64 160.91 38.8 160.35 39.79C159.78 40.78 158.99 41.56 157.98 42.11C156.97 42.67 155.81 42.94 154.5 42.94C153.16 42.94 151.99 42.69 150.99 42.18C149.98 41.67 149.21 40.94 148.65 39.99C148.1 39.03 147.82 37.88 147.82 36.53C147.82 35.2 148.11 34.04 148.68 33.05C149.25 32.06 150.04 31.29 151.04 30.73C152.04 30.18 153.2 29.9 154.52 29.9ZM154.44 30.22C153.85 30.22 153.34 30.48 152.9 31.01C152.46 31.54 152.13 32.28 151.89 33.21C151.65 34.14 151.54 35.23 151.54 36.45C151.54 37.7 151.67 38.79 151.95 39.72C152.22 40.65 152.58 41.36 153.05 41.87C153.51 42.37 154.02 42.62 154.57 42.62C155.16 42.62 155.68 42.35 156.11 41.82C156.55 41.29 156.88 40.56 157.12 39.62C157.36 38.68 157.47 37.6 157.47 36.38C157.47 35.12 157.34 34.02 157.07 33.1C156.79 32.18 156.43 31.47 155.97 30.97C155.51 30.47 155 30.22 154.44 30.22Z" fill="#1B3764" fill-opacity="1.000000" fill-rule="nonzero"/>
	<path id="Vector" d="M170.07 30.15L170.07 30.5C169.72 30.51 169.45 30.56 169.27 30.63C169.08 30.71 168.96 30.85 168.9 31.06C168.84 31.26 168.81 31.59 168.81 32.02L168.81 40.81C168.81 41.23 168.84 41.55 168.91 41.77C168.97 41.98 169.1 42.12 169.27 42.19C169.45 42.26 169.72 42.31 170.07 42.33L170.07 42.69C169.73 42.66 169.29 42.65 168.75 42.64C168.21 42.64 167.66 42.63 167.11 42.63C166.47 42.63 165.87 42.64 165.31 42.64C164.75 42.65 164.29 42.66 163.95 42.69L163.95 42.33C164.31 42.31 164.59 42.26 164.76 42.19C164.94 42.12 165.06 41.98 165.12 41.77C165.18 41.56 165.21 41.24 165.21 40.81L165.21 32.02C165.21 31.59 165.18 31.27 165.12 31.06C165.06 30.85 164.93 30.71 164.75 30.64C164.57 30.56 164.3 30.52 163.95 30.5L163.95 30.15C164.29 30.16 164.74 30.18 165.3 30.19C165.86 30.2 166.46 30.21 167.1 30.21C167.66 30.21 168.2 30.2 168.74 30.19C169.29 30.17 169.73 30.16 170.07 30.15ZM176.56 30.15L176.56 30.48C176.16 30.59 175.71 30.79 175.22 31.07C174.73 31.35 174.21 31.81 173.65 32.43L170.39 36.14L171.83 34.26L176.03 41.26C176.18 41.51 176.33 41.72 176.48 41.88C176.64 42.05 176.84 42.2 177.11 42.34L177.11 42.7C176.61 42.67 176.08 42.66 175.52 42.65C174.96 42.65 174.43 42.64 173.92 42.64C173.64 42.64 173.31 42.65 172.91 42.65C172.51 42.66 172 42.67 171.38 42.7L171.38 42.34C171.94 42.32 172.26 42.25 172.35 42.15C172.43 42.04 172.39 41.84 172.21 41.55L169.64 37.2C169.53 36.99 169.42 36.83 169.33 36.72C169.23 36.62 169.14 36.54 169.05 36.49C168.96 36.45 168.85 36.42 168.71 36.4L168.71 36.03C169.23 36 169.72 35.83 170.18 35.5C170.64 35.18 171.19 34.65 171.85 33.92L172.45 33.25C172.94 32.69 173.2 32.21 173.23 31.8C173.26 31.39 173.14 31.08 172.86 30.84C172.58 30.61 172.22 30.49 171.77 30.48L171.77 30.14C172.27 30.15 172.72 30.17 173.14 30.18C173.56 30.19 174.1 30.2 174.76 30.2C175.49 30.2 176.09 30.18 176.56 30.15Z" fill="#1B3764" fill-opacity="1.000000" fill-rule="nonzero"/>
	<path id="Vector" d="M183.95 29.9C184.72 29.9 185.31 29.98 185.74 30.13C186.17 30.28 186.53 30.44 186.82 30.61C186.97 30.69 187.08 30.76 187.17 30.8C187.25 30.84 187.34 30.86 187.42 30.86C187.61 30.86 187.74 30.6 187.81 30.08L188.22 30.08C188.21 30.33 188.2 30.62 188.18 30.95C188.16 31.28 188.15 31.72 188.14 32.26C188.14 32.81 188.13 33.52 188.13 34.41L187.72 34.41C187.68 33.76 187.52 33.13 187.27 32.51C187.02 31.89 186.67 31.39 186.22 30.98C185.78 30.58 185.25 30.38 184.64 30.38C184.12 30.38 183.69 30.53 183.35 30.81C183 31.09 182.83 31.5 182.83 32.03C182.83 32.47 182.94 32.84 183.15 33.16C183.36 33.47 183.69 33.8 184.15 34.14C184.6 34.48 185.2 34.91 185.94 35.43C186.47 35.8 186.96 36.16 187.39 36.53C187.82 36.9 188.17 37.31 188.42 37.77C188.68 38.24 188.81 38.79 188.81 39.44C188.81 40.23 188.59 40.89 188.15 41.41C187.7 41.93 187.12 42.32 186.38 42.57C185.65 42.82 184.85 42.95 183.99 42.95C183.19 42.95 182.55 42.88 182.07 42.74C181.59 42.6 181.18 42.45 180.86 42.29C180.59 42.13 180.4 42.04 180.26 42.04C180.07 42.04 179.94 42.3 179.87 42.82L179.46 42.82C179.48 42.51 179.5 42.16 179.5 41.75C179.51 41.35 179.51 40.82 179.52 40.17C179.53 39.52 179.53 38.69 179.53 37.68L179.94 37.68C179.99 38.51 180.12 39.28 180.34 40.01C180.56 40.73 180.9 41.31 181.35 41.75C181.81 42.2 182.41 42.42 183.17 42.42C183.82 42.42 184.33 42.27 184.72 41.96C185.1 41.65 185.29 41.23 185.29 40.68C185.29 39.95 185.05 39.34 184.57 38.85C184.08 38.36 183.46 37.86 182.7 37.35C182.15 36.97 181.63 36.59 181.14 36.21C180.66 35.84 180.27 35.41 179.98 34.94C179.7 34.46 179.55 33.9 179.55 33.26C179.55 32.48 179.76 31.84 180.17 31.35C180.58 30.86 181.13 30.5 181.8 30.26C182.47 30.03 183.19 29.9 183.95 29.9Z" fill="#1B3764" fill-opacity="1.000000" fill-rule="nonzero"/>
	<path id="Vector" d="M41.02 4.53L41.02 3.43L43.76 3.43L43.76 4.53L41.02 4.53Z" fill="#1B3764" fill-opacity="1.000000" fill-rule="nonzero"/>
	<path id="Vector" d="M50.72 6.46L50.72 0.05L53.44 0.05C53.74 0.05 54.01 0.11 54.26 0.23C54.5 0.35 54.72 0.51 54.9 0.72C55.08 0.92 55.23 1.15 55.33 1.4C55.43 1.66 55.48 1.91 55.48 2.18C55.48 2.54 55.4 2.89 55.23 3.21C55.07 3.53 54.83 3.8 54.54 4.01C54.24 4.22 53.89 4.32 53.49 4.32L51.97 4.32L51.97 6.47L50.72 6.47L50.72 6.46ZM51.97 3.22L53.41 3.22C53.57 3.22 53.7 3.18 53.82 3.09C53.94 3 54.04 2.88 54.11 2.72C54.18 2.56 54.22 2.38 54.22 2.18C54.22 1.95 54.18 1.76 54.1 1.61C54.02 1.45 53.91 1.33 53.78 1.25C53.65 1.17 53.52 1.14 53.36 1.14L51.97 1.14L51.97 3.22Z" fill="#1B3764" fill-opacity="1.000000" fill-rule="nonzero"/>
	<path id="Vector" d="M62.62 5.37L62.62 6.47L58.16 6.47L58.16 0.05L62.54 0.05L62.54 1.14L59.41 1.14L59.41 2.69L62.11 2.69L62.11 3.7L59.41 3.7L59.41 5.37L62.62 5.37Z" fill="#1B3764" fill-opacity="1.000000" fill-rule="nonzero"/>
	<path id="Vector" d="M65.4 6.46L65.4 0.05L68.24 0.05C68.54 0.05 68.8 0.11 69.06 0.23C69.3 0.35 69.52 0.51 69.71 0.72C69.89 0.92 70.03 1.15 70.13 1.4C70.23 1.66 70.28 1.91 70.28 2.18C70.28 2.45 70.24 2.71 70.14 2.96C70.05 3.22 69.91 3.43 69.74 3.62C69.56 3.81 69.36 3.95 69.12 4.05L70.59 6.47L69.21 6.47L67.9 4.32L66.65 4.32L66.65 6.47L65.4 6.47L65.4 6.46ZM66.65 3.22L68.21 3.22C68.37 3.22 68.51 3.17 68.63 3.07C68.75 2.98 68.84 2.86 68.92 2.7C68.99 2.54 69.03 2.37 69.03 2.18C69.03 1.97 68.99 1.79 68.9 1.64C68.81 1.48 68.71 1.36 68.58 1.27C68.45 1.18 68.31 1.13 68.16 1.13L66.65 1.13L66.65 3.22Z" fill="#1B3764" fill-opacity="1.000000" fill-rule="nonzero"/>
	<path id="Vector" d="M73.22 6.46L73.22 0.05L77.53 0.05L77.53 1.14L74.47 1.14L74.47 2.8L77.02 2.8L77.02 3.81L74.47 3.81L74.47 6.47L73.22 6.47L73.22 6.46Z" fill="#1B3764" fill-opacity="1.000000" fill-rule="nonzero"/>
	<path id="Vector" d="M84.68 5.37L84.68 6.47L80.22 6.47L80.22 0.05L84.6 0.05L84.6 1.14L81.47 1.14L81.47 2.69L84.17 2.69L84.17 3.7L81.47 3.7L81.47 5.37L84.68 5.37Z" fill="#1B3764" fill-opacity="1.000000" fill-rule="nonzero"/>
	<path id="Vector" d="M86.95 3.2C86.95 2.81 87.02 2.42 87.16 2.05C87.31 1.67 87.51 1.33 87.79 1.02C88.06 0.71 88.39 0.46 88.78 0.28C89.17 0.1 89.62 0 90.12 0C90.71 0 91.22 0.13 91.65 0.39C92.08 0.65 92.41 0.98 92.62 1.4L91.66 2.06C91.55 1.82 91.41 1.63 91.23 1.49C91.06 1.35 90.87 1.25 90.67 1.19C90.48 1.14 90.28 1.11 90.09 1.11C89.78 1.11 89.5 1.17 89.27 1.3C89.04 1.42 88.85 1.59 88.69 1.8C88.53 2 88.42 2.23 88.34 2.48C88.27 2.74 88.23 2.99 88.23 3.24C88.23 3.52 88.28 3.8 88.37 4.06C88.46 4.32 88.58 4.55 88.75 4.76C88.92 4.96 89.11 5.12 89.35 5.23C89.58 5.35 89.83 5.41 90.11 5.41C90.3 5.41 90.51 5.38 90.71 5.31C90.92 5.24 91.11 5.14 91.28 4.99C91.46 4.85 91.59 4.66 91.69 4.43L92.71 5.02C92.59 5.34 92.38 5.61 92.09 5.83C91.8 6.05 91.49 6.22 91.13 6.34C90.77 6.45 90.42 6.51 90.07 6.51C89.61 6.51 89.19 6.41 88.82 6.22C88.44 6.03 88.11 5.78 87.84 5.47C87.56 5.15 87.35 4.8 87.2 4.4C87.03 4 86.95 3.6 86.95 3.2Z" fill="#1B3764" fill-opacity="1.000000" fill-rule="nonzero"/>
	<path id="Vector" d="M100.15 1.14L98.09 1.14L98.09 6.46L96.86 6.46L96.86 1.14L94.8 1.14L94.8 0.05L100.14 0.05L100.14 1.14L100.15 1.14Z" fill="#1B3764" fill-opacity="1.000000" fill-rule="nonzero"/>
	<path id="Vector" d="M110.29 1.73C110.25 1.69 110.17 1.63 110.06 1.55C109.95 1.48 109.81 1.41 109.65 1.35C109.49 1.28 109.32 1.22 109.13 1.17C108.94 1.12 108.75 1.1 108.56 1.1C108.22 1.1 107.97 1.16 107.8 1.28C107.63 1.41 107.54 1.59 107.54 1.81C107.54 1.99 107.6 2.13 107.7 2.23C107.81 2.33 107.97 2.41 108.19 2.49C108.41 2.56 108.68 2.64 109 2.72C109.43 2.82 109.79 2.95 110.1 3.09C110.41 3.24 110.65 3.43 110.82 3.67C110.98 3.91 111.06 4.22 111.06 4.61C111.06 4.95 111 5.25 110.87 5.49C110.74 5.73 110.57 5.93 110.35 6.08C110.12 6.23 109.87 6.34 109.59 6.41C109.31 6.48 109 6.51 108.68 6.51C108.37 6.51 108.04 6.48 107.73 6.41C107.41 6.35 107.1 6.25 106.8 6.13C106.5 6.01 106.24 5.86 105.99 5.68L106.54 4.6C106.6 4.66 106.69 4.73 106.83 4.82C106.96 4.9 107.14 4.99 107.33 5.08C107.53 5.16 107.75 5.24 107.98 5.3C108.22 5.36 108.46 5.39 108.7 5.39C109.03 5.39 109.29 5.34 109.46 5.22C109.64 5.11 109.72 4.95 109.72 4.74C109.72 4.54 109.65 4.39 109.52 4.29C109.38 4.18 109.18 4.08 108.94 4C108.69 3.92 108.4 3.83 108.06 3.74C107.66 3.62 107.32 3.49 107.04 3.35C106.77 3.21 106.57 3.03 106.44 2.82C106.31 2.6 106.24 2.33 106.24 2C106.24 1.56 106.35 1.2 106.56 0.9C106.76 0.61 107.04 0.38 107.4 0.23C107.75 0.08 108.15 0 108.58 0C108.89 0 109.17 0.03 109.44 0.1C109.71 0.16 109.96 0.25 110.19 0.36C110.43 0.47 110.64 0.59 110.83 0.71L110.29 1.73Z" fill="#1B3764" fill-opacity="1.000000" fill-rule="nonzero"/>
	<path id="Vector" d="M118.61 1.14L116.56 1.14L116.56 6.46L115.32 6.46L115.32 1.14L113.27 1.14L113.27 0.05L118.61 0.05L118.61 1.14L118.61 1.14Z" fill="#1B3764" fill-opacity="1.000000" fill-rule="nonzero"/>
	<path id="Vector" d="M123.81 6.51C123.34 6.51 122.92 6.42 122.54 6.23C122.15 6.05 121.82 5.81 121.55 5.5C121.28 5.19 121.07 4.84 120.92 4.45C120.77 4.06 120.69 3.66 120.69 3.25C120.69 2.82 120.77 2.41 120.93 2.02C121.09 1.64 121.31 1.29 121.59 0.98C121.87 0.68 122.2 0.44 122.58 0.26C122.97 0.09 123.38 0 123.84 0C124.31 0 124.73 0.09 125.12 0.28C125.5 0.46 125.83 0.72 126.1 1.03C126.37 1.34 126.57 1.69 126.73 2.08C126.88 2.47 126.95 2.86 126.95 3.27C126.95 3.7 126.87 4.1 126.72 4.49C126.56 4.88 126.34 5.22 126.06 5.53C125.78 5.83 125.45 6.07 125.07 6.24C124.68 6.42 124.26 6.51 123.81 6.51ZM121.95 3.26C121.95 3.53 121.99 3.8 122.08 4.06C122.16 4.32 122.28 4.55 122.45 4.75C122.61 4.95 122.8 5.11 123.03 5.23C123.26 5.35 123.53 5.41 123.82 5.41C124.13 5.41 124.39 5.35 124.63 5.22C124.86 5.1 125.06 4.93 125.21 4.72C125.37 4.51 125.49 4.28 125.57 4.02C125.65 3.77 125.69 3.51 125.69 3.25C125.69 2.97 125.65 2.71 125.56 2.45C125.47 2.2 125.35 1.97 125.19 1.77C125.04 1.56 124.84 1.4 124.61 1.29C124.37 1.17 124.11 1.11 123.82 1.11C123.52 1.11 123.25 1.17 123.02 1.3C122.78 1.42 122.59 1.59 122.43 1.79C122.27 2 122.15 2.23 122.07 2.48C121.99 2.73 121.95 2.99 121.95 3.26Z" fill="#1B3764" fill-opacity="1.000000" fill-rule="nonzero"/>
	<path id="Vector" d="M129.72 6.46L129.72 0.05L132.55 0.05C132.85 0.05 133.12 0.11 133.37 0.23C133.62 0.35 133.83 0.51 134.02 0.72C134.2 0.92 134.34 1.15 134.45 1.4C134.55 1.66 134.6 1.91 134.6 2.18C134.6 2.45 134.55 2.71 134.46 2.96C134.36 3.22 134.23 3.43 134.05 3.62C133.87 3.81 133.67 3.95 133.44 4.05L134.9 6.47L133.53 6.47L132.21 4.32L130.96 4.32L130.96 6.47L129.72 6.47L129.72 6.46ZM130.96 3.22L132.53 3.22C132.68 3.22 132.82 3.17 132.94 3.07C133.06 2.98 133.16 2.86 133.23 2.7C133.3 2.54 133.34 2.37 133.34 2.18C133.34 1.97 133.3 1.79 133.21 1.64C133.13 1.48 133.02 1.36 132.89 1.27C132.76 1.18 132.62 1.13 132.47 1.13L130.96 1.13L130.96 3.22Z" fill="#1B3764" fill-opacity="1.000000" fill-rule="nonzero"/>
	<path id="Vector" d="M141.99 5.37L141.99 6.47L137.53 6.47L137.53 0.05L141.91 0.05L141.91 1.14L138.79 1.14L138.79 2.69L141.49 2.69L141.49 3.7L138.79 3.7L138.79 5.37L141.99 5.37Z" fill="#1B3764" fill-opacity="1.000000" fill-rule="nonzero"/>
	<path id="Vector" d="M148.6 4.53L148.6 3.43L151.35 3.43L151.35 4.53L148.6 4.53Z" fill="#1B3764" fill-opacity="1.000000" fill-rule="nonzero"/>
	<path id="Vector" d="M97.56 28.6C97.61 28.53 97.67 28.47 97.74 28.42L97.74 28.41C98.53 27.67 99.47 27.19 100.52 26.67C101.6 26.15 102.64 25.61 103.61 24.83C105.27 23.48 106.73 21.58 108.21 18.83C108.93 17.5 109.56 16.13 110.15 14.86C110.22 14.71 110.19 14.56 110.07 14.48C109.96 14.41 109.72 14.4 109.59 14.57C108.31 16.27 106.54 17.34 104.82 18.39C104.4 18.65 103.97 18.91 103.55 19.18C102.64 19.76 101.48 20.57 100.5 21.63C99.5 22.72 98.68 24.1 97.93 25.97C97.67 26.63 97.41 27.34 97.17 28.05C97.16 28.07 97.14 28.1 97.13 28.12C97.12 28.13 97.12 28.13 97.12 28.13C97.07 28.18 97.04 28.24 97.03 28.3C96.52 29.19 96.06 30.12 95.65 31.06C95.65 30.98 95.66 30.9 95.67 30.82C95.83 28.84 95.73 27.29 95.35 25.95C94.98 24.63 94.36 23.5 93.85 22.65C93.62 22.26 93.37 21.87 93.13 21.48C92.14 19.93 91.13 18.32 90.77 16.32C90.74 16.12 90.53 16.04 90.4 16.07C90.27 16.11 90.18 16.23 90.17 16.39C90.13 17.77 90.08 19.24 90.12 20.71C90.2 23.75 90.61 26 91.43 27.81C91.9 28.86 92.54 29.72 93.22 30.58C93.87 31.41 94.45 32.18 94.8 33.13L94.79 33.21C94.44 34.14 94.13 35.09 93.84 36.05C93.57 36.96 93.31 37.88 93.08 38.79C93.05 38.63 93.02 38.46 92.99 38.29C92.68 36.69 92.21 35.48 91.51 34.48C90.82 33.51 89.92 32.74 89.2 32.17C88.88 31.9 88.53 31.64 88.19 31.38C86.83 30.34 85.42 29.27 84.58 27.75C84.5 27.6 84.28 27.58 84.16 27.63C84.1 27.66 84.04 27.71 84.01 27.77C83.98 27.83 83.98 27.91 84 27.97C84.28 29.07 84.58 30.25 84.97 31.4C85.78 33.8 86.74 35.5 87.98 36.77C88.71 37.52 89.57 38.07 90.45 38.62C91.31 39.15 92.08 39.65 92.66 40.33L92.67 40.44C92.31 41.94 91.97 43.44 91.62 44.95C91.45 45.71 91.27 46.47 91.08 47.23C91.08 47.21 91.08 47.2 91.07 47.18C90.83 45.83 90.45 44.81 89.88 43.98C89.32 43.17 88.57 42.51 87.99 42.04C87.73 41.82 87.44 41.61 87.17 41.39L87.16 41.38C86.04 40.53 84.89 39.63 84.22 38.36C84.14 38.22 83.95 38.21 83.85 38.26C83.73 38.31 83.67 38.44 83.7 38.57C83.92 39.5 84.17 40.48 84.48 41.45C85.12 43.46 85.9 44.9 86.92 45.96C87.52 46.58 88.22 47.04 88.95 47.5C89.62 47.92 90.21 48.31 90.68 48.83C90.24 50.51 89.74 52.16 89.14 53.79C88.63 55.14 88.04 56.47 87.37 57.75C87.47 58 87.57 58.25 87.67 58.5C88.26 57.45 88.79 56.35 89.25 55.23C90.43 52.37 91.24 49.39 91.95 46.41C92.05 46 92.14 45.59 92.24 45.18C93.08 45.11 93.89 45.29 94.8 45.52C95.76 45.76 96.7 45.97 97.71 45.94C99.43 45.89 101.31 45.29 103.6 44.05C104.71 43.45 105.79 42.77 106.79 42.14C106.9 42.06 106.96 41.91 106.92 41.78C106.89 41.65 106.73 41.49 106.56 41.55C104.9 42.1 103.22 41.87 101.6 41.65C101.2 41.6 100.79 41.54 100.39 41.5C99.52 41.41 98.38 41.33 97.23 41.57C96.04 41.81 94.84 42.39 93.44 43.39C93.13 43.63 92.8 43.87 92.48 44.12C92.94 42.1 93.4 40.06 93.94 38.05L94.02 37.93C94.92 37.47 95.86 37.28 96.91 37.11C97.98 36.93 99.04 36.73 100.1 36.27C101.92 35.48 103.74 34.09 105.84 31.9C106.86 30.84 107.82 29.73 108.72 28.68C108.82 28.56 108.83 28.4 108.76 28.29C108.68 28.17 108.48 28.09 108.32 28.22C106.7 29.47 104.87 29.96 103.09 30.45C102.66 30.57 102.21 30.69 101.77 30.82C100.83 31.11 99.59 31.52 98.44 32.25C97.25 32.99 96.13 34.07 94.92 35.64C94.76 35.85 94.6 36.07 94.43 36.29C95.19 33.74 96.13 31.24 97.4 28.91C97.45 28.8 97.5 28.7 97.56 28.6ZM105.92 21.37C105.16 22.45 104.35 23.37 103.52 24.09C102.54 24.95 101.46 25.53 100.54 25.98L100.37 26.06C99.86 26.31 99.3 26.58 98.75 26.91C99.82 25.61 101.13 24.62 102.39 23.71C102.53 23.61 102.65 23.52 102.78 23.43L102.81 23.41C103.56 22.87 104.33 22.32 105.07 21.71C105.73 21.15 106.32 20.58 106.84 19.97C106.53 20.47 106.23 20.93 105.92 21.37ZM100.72 22.31C101.99 20.83 103.61 19.84 105.18 18.88C105.74 18.55 106.31 18.2 106.86 17.83C107.38 17.48 107.85 17.14 108.26 16.8C107.91 17.41 107.55 17.96 107.2 18.47C106.54 19.41 105.76 20.27 104.88 21.02C104.1 21.7 103.25 22.31 102.44 22.9C101.51 23.56 100.56 24.25 99.68 25.04C99.25 25.42 98.87 25.81 98.52 26.2C98.99 25.03 99.68 23.53 100.72 22.31ZM90.72 38.08L90.58 38C89.82 37.53 88.95 36.94 88.22 36.13C87.6 35.45 87.05 34.62 86.57 33.67C86.4 33.33 86.24 32.97 86.08 32.59C86.42 33.1 86.82 33.59 87.28 34.07C87.83 34.65 88.43 35.18 89.01 35.7L89.33 36C90.28 36.85 91.25 37.77 91.96 38.89C91.55 38.59 91.12 38.32 90.72 38.08ZM91.56 37.34C90.91 36.6 90.17 35.93 89.46 35.29C88.83 34.72 88.17 34.13 87.59 33.5C86.94 32.79 86.4 32 85.98 31.18C85.77 30.75 85.57 30.29 85.38 29.8C85.68 30.11 86.02 30.42 86.41 30.74C86.84 31.1 87.3 31.45 87.74 31.78C88.99 32.73 90.29 33.72 91.15 35.05C91.83 36.12 92.17 37.37 92.36 38.35C92.13 38.02 91.86 37.68 91.56 37.34ZM89.2 47.01L89.09 46.94C88.47 46.55 87.75 46.06 87.15 45.39C86.66 44.83 86.2 44.13 85.81 43.33C85.7 43.1 85.59 42.85 85.49 42.6C85.74 42.97 86.03 43.33 86.37 43.69C86.82 44.17 87.31 44.61 87.78 45.05L88.04 45.29C88.79 45.98 89.56 46.72 90.13 47.62C89.82 47.4 89.5 47.19 89.2 47.01ZM89.9 46.37C89.37 45.75 88.76 45.2 88.18 44.66C87.66 44.19 87.12 43.7 86.65 43.17C86.12 42.58 85.68 41.92 85.35 41.23C85.19 40.89 85.04 40.54 84.89 40.16C85.12 40.39 85.38 40.64 85.67 40.88C86.02 41.18 86.4 41.47 86.76 41.75C87.79 42.53 88.85 43.35 89.54 44.47C90.08 45.33 90.34 46.34 90.5 47.15C90.33 46.89 90.12 46.63 89.9 46.37ZM97.03 42.24C98.56 41.85 100.1 42.06 101.59 42.26C102.11 42.33 102.66 42.41 103.19 42.45C103.68 42.49 104.12 42.51 104.54 42.5C104.04 42.74 103.57 42.95 103.1 43.13C102.22 43.46 101.3 43.66 100.37 43.72C99.53 43.77 98.68 43.74 97.86 43.7C96.94 43.66 95.99 43.62 95.03 43.71C94.59 43.75 94.18 43.81 93.78 43.9C94.64 43.28 95.8 42.56 97.03 42.24ZM97.44 44.32C97.57 44.33 97.71 44.33 97.85 44.34L97.86 44.34C98.61 44.37 99.38 44.4 100.15 44.37C100.81 44.34 101.42 44.26 102.02 44.12C101.62 44.3 101.24 44.46 100.87 44.6C99.85 44.98 98.88 45.21 97.99 45.27C96.93 45.35 95.95 45.14 95.14 44.94L94.99 44.91C94.55 44.8 94.08 44.68 93.59 44.6C94.89 44.26 96.2 44.27 97.44 44.32ZM98.42 32.97C99.95 31.93 101.63 31.47 103.26 31.03C103.83 30.87 104.43 30.71 105.01 30.52C105.54 30.35 106.02 30.17 106.46 29.98C105.98 30.44 105.53 30.85 105.08 31.23C104.23 31.93 103.3 32.52 102.33 32.98C101.46 33.39 100.55 33.72 99.67 34.04C98.69 34.4 97.67 34.77 96.68 35.26C96.22 35.49 95.8 35.73 95.4 35.99C96.15 35.02 97.19 33.82 98.42 32.97ZM99.4 34.81L99.85 34.64C100.65 34.36 101.48 34.05 102.28 33.69C102.98 33.38 103.62 33.02 104.22 32.63C103.83 32.99 103.46 33.32 103.09 33.63C102.11 34.44 101.14 35.07 100.21 35.52C99.12 36.04 98.03 36.27 97.1 36.43L96.94 36.45C96.44 36.53 95.9 36.62 95.36 36.76C96.66 35.86 98.06 35.3 99.4 34.81ZM93.61 30.07L93.51 29.93C92.93 29.2 92.28 28.29 91.82 27.17C91.44 26.21 91.15 25.09 90.97 23.84C90.91 23.36 90.85 22.86 90.81 22.34C90.99 23.03 91.22 23.73 91.53 24.43C91.88 25.24 92.28 26.02 92.68 26.77L92.9 27.19C93.57 28.46 94.23 29.82 94.57 31.36C94.26 30.89 93.92 30.46 93.61 30.07ZM95.07 30.77C94.94 30.31 94.79 29.85 94.61 29.37C94.21 28.33 93.71 27.38 93.22 26.45C92.79 25.62 92.34 24.77 91.98 23.88C91.57 22.88 91.28 21.82 91.13 20.73C91.05 20.15 90.99 19.54 90.95 18.88C91.14 19.32 91.38 19.77 91.65 20.25C91.96 20.78 92.29 21.3 92.61 21.8C93.51 23.23 94.44 24.69 94.87 26.5C95.21 27.95 95.17 29.55 95.07 30.77Z" fill="#1B3764" fill-opacity="1.000000" fill-rule="nonzero"/>
	<path id="Vector" d="" fill="#1B3764" fill-opacity="1.000000" fill-rule="nonzero"/>
	<path id="Vector" d="M52.1 64.78L53.62 64.78L52.23 71.32L55.99 71.32L55.71 72.67L50.42 72.67L52.1 64.78Z" fill="#1B3764" fill-opacity="1.000000" fill-rule="nonzero"/>
	<path id="Vector" d="M61.81 72.78C61.25 72.78 60.79 72.67 60.43 72.45C60.07 72.23 59.8 71.93 59.64 71.57C59.47 71.2 59.38 70.79 59.38 70.34C59.38 69.87 59.47 69.42 59.64 69C59.81 68.58 60.06 68.2 60.38 67.87C60.7 67.54 61.08 67.28 61.5 67.1C61.94 66.91 62.41 66.82 62.93 66.82C63.49 66.82 63.96 66.93 64.32 67.14C64.67 67.37 64.94 67.66 65.11 68.02C65.28 68.39 65.37 68.8 65.37 69.25C65.37 69.72 65.28 70.17 65.1 70.59C64.93 71.01 64.69 71.39 64.37 71.72C64.05 72.05 63.67 72.31 63.24 72.49C62.81 72.69 62.33 72.78 61.81 72.78ZM62.04 71.51C62.26 71.51 62.48 71.46 62.7 71.36C62.91 71.26 63.11 71.11 63.27 70.92C63.44 70.74 63.57 70.52 63.67 70.26C63.77 70.01 63.82 69.73 63.82 69.43C63.82 69.16 63.78 68.93 63.7 68.72C63.61 68.52 63.48 68.36 63.32 68.25C63.15 68.14 62.95 68.08 62.71 68.08C62.48 68.08 62.26 68.13 62.05 68.23C61.84 68.33 61.65 68.48 61.48 68.67C61.31 68.85 61.18 69.08 61.08 69.34C60.97 69.6 60.92 69.87 60.92 70.17C60.92 70.43 60.96 70.67 61.05 70.87C61.14 71.07 61.26 71.23 61.43 71.34C61.6 71.45 61.8 71.51 62.04 71.51Z" fill="#1B3764" fill-opacity="1.000000" fill-rule="nonzero"/>
	<path id="Vector" d="M70.57 72.78C70.09 72.78 69.65 72.7 69.23 72.55C68.81 72.39 68.48 72.17 68.22 71.88L68.97 70.95C69.25 71.19 69.54 71.37 69.83 71.51C70.13 71.64 70.43 71.7 70.73 71.7C70.94 71.7 71.12 71.67 71.27 71.61C71.41 71.55 71.53 71.47 71.61 71.36C71.69 71.25 71.73 71.14 71.73 71C71.73 70.82 71.65 70.68 71.49 70.6C71.33 70.51 71.07 70.42 70.72 70.31C70.34 70.19 70.02 70.07 69.77 69.96C69.53 69.84 69.35 69.71 69.22 69.55C69.11 69.4 69.05 69.19 69.05 68.96C69.05 68.55 69.16 68.18 69.4 67.86C69.63 67.54 69.95 67.29 70.34 67.1C70.73 66.91 71.18 66.82 71.67 66.82C72.09 66.82 72.46 66.89 72.8 67.02C73.13 67.15 73.43 67.35 73.69 67.62L72.9 68.52C72.66 68.3 72.43 68.14 72.22 68.04C72 67.94 71.76 67.89 71.5 67.89C71.31 67.89 71.14 67.91 70.99 67.97C70.83 68.02 70.71 68.1 70.63 68.21C70.54 68.32 70.5 68.45 70.5 68.6C70.5 68.76 70.57 68.89 70.7 68.96C70.84 69.04 71.08 69.13 71.42 69.23C71.83 69.35 72.18 69.47 72.44 69.6C72.71 69.72 72.9 69.87 73.04 70.05C73.17 70.23 73.24 70.45 73.24 70.72C73.24 71.12 73.13 71.48 72.91 71.78C72.69 72.09 72.37 72.33 71.98 72.51C71.57 72.69 71.1 72.78 70.57 72.78Z" fill="#1B3764" fill-opacity="1.000000" fill-rule="nonzero"/>
	<path id="Vector" d="M85.62 64.78L86.98 64.78L88.13 72.67L86.55 72.67L86.36 70.7L83.74 70.7L82.7 72.67L81.13 72.67L85.62 64.78ZM86.24 69.62L85.92 66.52L84.29 69.62L86.24 69.62Z" fill="#1B3764" fill-opacity="1.000000" fill-rule="nonzero"/>
	<path id="Vector" d="M92.83 66.9L94.18 66.9L93.94 67.98C94.14 67.73 94.36 67.52 94.62 67.35C94.87 67.17 95.15 67.04 95.45 66.95C95.75 66.86 96.06 66.82 96.38 66.82C96.72 66.82 96.98 66.88 97.16 66.99C97.35 67.11 97.48 67.27 97.56 67.47C97.63 67.67 97.67 67.9 97.67 68.15C97.67 68.3 97.66 68.46 97.64 68.61C97.62 68.76 97.59 68.92 97.56 69.08L96.8 72.67L95.31 72.67L95.99 69.46C96.02 69.34 96.04 69.24 96.05 69.15C96.06 69.05 96.07 68.96 96.07 68.87C96.07 68.62 96.01 68.43 95.9 68.31C95.78 68.19 95.63 68.13 95.44 68.13C95.26 68.13 95.07 68.18 94.86 68.28C94.66 68.38 94.46 68.52 94.27 68.7C94.08 68.87 93.93 69.08 93.81 69.31L93.09 72.67L91.6 72.67L92.83 66.9Z" fill="#1B3764" fill-opacity="1.000000" fill-rule="nonzero"/>
	<path id="Vector" d="M102.68 75.14C102.08 75.14 101.59 75.04 101.21 74.83C100.84 74.61 100.54 74.32 100.33 73.93L101.31 73.15C101.45 73.42 101.67 73.64 101.95 73.79C102.23 73.95 102.56 74.02 102.92 74.02C103.2 74.02 103.48 73.97 103.75 73.85C104.02 73.74 104.25 73.56 104.45 73.33C104.66 73.09 104.8 72.79 104.87 72.41L105.03 71.69C104.77 72.03 104.47 72.31 104.1 72.49C103.73 72.69 103.36 72.78 102.99 72.78C102.58 72.78 102.23 72.67 101.94 72.46C101.65 72.26 101.43 71.97 101.28 71.63C101.13 71.28 101.06 70.88 101.06 70.45C101.06 69.97 101.14 69.51 101.32 69.07C101.49 68.63 101.73 68.25 102.04 67.91C102.35 67.57 102.7 67.3 103.1 67.11C103.49 66.91 103.91 66.82 104.34 66.82C104.77 66.82 105.13 66.92 105.4 67.12C105.68 67.32 105.89 67.59 106.02 67.93L106.23 66.9L107.54 66.9L106.36 72.41C106.24 72.98 106 73.47 105.65 73.88C105.29 74.28 104.86 74.6 104.35 74.82C103.84 75.03 103.28 75.14 102.68 75.14ZM103.76 71.59C103.91 71.59 104.06 71.57 104.2 71.51C104.35 71.45 104.48 71.38 104.62 71.29C104.75 71.2 104.88 71.09 104.99 70.96C105.1 70.83 105.2 70.7 105.28 70.57L105.57 69.19C105.54 68.97 105.46 68.77 105.35 68.6C105.24 68.44 105.11 68.3 104.95 68.21C104.79 68.12 104.62 68.08 104.42 68.08C104.18 68.08 103.95 68.14 103.74 68.27C103.52 68.4 103.33 68.56 103.16 68.76C103 68.97 102.86 69.2 102.76 69.45C102.67 69.7 102.62 69.97 102.62 70.23C102.62 70.47 102.67 70.7 102.76 70.91C102.86 71.13 103 71.29 103.17 71.41C103.33 71.53 103.53 71.59 103.76 71.59Z" fill="#1B3764" fill-opacity="1.000000" fill-rule="nonzero"/>
	<path id="Vector" d="M113 72.78C112.51 72.78 112.09 72.67 111.73 72.46C111.37 72.26 111.1 71.96 110.91 71.6C110.71 71.23 110.62 70.81 110.62 70.34C110.62 69.86 110.71 69.41 110.9 68.99C111.09 68.56 111.35 68.19 111.68 67.86C112.01 67.53 112.4 67.28 112.84 67.09C113.29 66.91 113.77 66.81 114.29 66.81C114.71 66.81 115.08 66.87 115.39 67C115.7 67.12 115.94 67.3 116.11 67.54C116.28 67.78 116.37 68.07 116.37 68.42C116.37 69.03 116.09 69.49 115.53 69.8C114.97 70.12 114.13 70.28 113.02 70.28C112.79 70.28 112.55 70.27 112.29 70.26C112.04 70.25 111.75 70.23 111.45 70.2L111.64 69.27C111.91 69.29 112.15 69.31 112.37 69.32C112.59 69.33 112.81 69.33 113.03 69.33C113.51 69.33 113.89 69.3 114.16 69.24C114.44 69.17 114.64 69.08 114.77 68.96C114.89 68.83 114.95 68.69 114.95 68.52C114.95 68.38 114.92 68.26 114.84 68.17C114.77 68.08 114.67 68.01 114.54 67.96C114.41 67.92 114.26 67.89 114.08 67.89C113.79 67.89 113.53 67.96 113.29 68.09C113.05 68.23 112.84 68.41 112.66 68.64C112.49 68.87 112.35 69.14 112.25 69.44C112.16 69.74 112.11 70.06 112.11 70.39C112.11 70.64 112.15 70.86 112.23 71.06C112.32 71.26 112.45 71.41 112.62 71.53C112.79 71.64 113.01 71.69 113.27 71.69C113.57 71.69 113.85 71.62 114.11 71.47C114.37 71.33 114.59 71.14 114.74 70.88L115.91 71.25C115.72 71.55 115.47 71.81 115.16 72.04C114.84 72.27 114.51 72.45 114.14 72.58C113.76 72.71 113.39 72.78 113 72.78Z" fill="#1B3764" fill-opacity="1.000000" fill-rule="nonzero"/>
	<path id="Vector" d="M120.68 72.78C120.32 72.78 120.03 72.69 119.82 72.52C119.62 72.34 119.52 72.09 119.52 71.76C119.52 71.7 119.52 71.63 119.53 71.56C119.54 71.49 119.55 71.41 119.56 71.34L121.01 64.56L122.49 64.56L121.16 70.82C121.16 70.85 121.15 70.89 121.15 70.93C121.14 70.97 121.14 71.01 121.14 71.04C121.14 71.34 121.3 71.5 121.6 71.5C121.68 71.5 121.77 71.48 121.88 71.45C121.99 71.42 122.09 71.38 122.18 71.34L122.14 72.47C121.93 72.57 121.69 72.64 121.42 72.69C121.14 72.74 120.9 72.78 120.68 72.78Z" fill="#1B3764" fill-opacity="1.000000" fill-rule="nonzero"/>
	<path id="Vector" d="M127.62 72.78C127.14 72.78 126.7 72.7 126.28 72.55C125.86 72.39 125.52 72.17 125.27 71.88L126.02 70.95C126.3 71.19 126.59 71.37 126.88 71.51C127.18 71.64 127.48 71.7 127.78 71.7C127.99 71.7 128.17 71.67 128.32 71.61C128.46 71.55 128.58 71.47 128.66 71.36C128.74 71.25 128.78 71.14 128.78 71C128.78 70.82 128.7 70.68 128.54 70.6C128.38 70.51 128.12 70.42 127.77 70.31C127.39 70.19 127.07 70.07 126.82 69.96C126.58 69.84 126.39 69.71 126.27 69.55C126.16 69.4 126.1 69.19 126.1 68.96C126.1 68.55 126.21 68.18 126.44 67.86C126.68 67.54 126.99 67.29 127.39 67.1C127.78 66.91 128.23 66.82 128.72 66.82C129.14 66.82 129.51 66.89 129.85 67.02C130.18 67.15 130.48 67.35 130.73 67.62L129.95 68.52C129.71 68.3 129.48 68.14 129.27 68.04C129.05 67.94 128.81 67.89 128.55 67.89C128.36 67.89 128.19 67.91 128.03 67.97C127.88 68.02 127.76 68.1 127.68 68.21C127.58 68.32 127.54 68.45 127.54 68.6C127.54 68.76 127.62 68.89 127.75 68.96C127.89 69.04 128.13 69.13 128.47 69.23C128.88 69.35 129.22 69.47 129.49 69.6C129.75 69.72 129.95 69.87 130.09 70.05C130.22 70.23 130.29 70.45 130.29 70.72C130.29 71.12 130.18 71.48 129.96 71.78C129.74 72.09 129.42 72.33 129.02 72.51C128.61 72.69 128.15 72.78 127.62 72.78Z" fill="#1B3764" fill-opacity="1.000000" fill-rule="nonzero"/>
	<path id="Vector" d="M133.59 72.67L133.94 71.07L135.16 71.07L134.81 72.67L133.59 72.67Z" fill="#1B3764" fill-opacity="1.000000" fill-rule="nonzero"/>
</svg>
