<svg width="140.890625" height="88.417603" viewBox="0 0 140.891 88.4176" fill="none" xmlns="http://www.w3.org/2000/svg" xmlns:xlink="http://www.w3.org/1999/xlink">
	<desc>
			Created with Pixso.
	</desc>
	<defs/>
	<path id="Vector" d="M0 49.93L0 44.89L1.16 44.89L1.16 48.91L3.61 48.91L3.61 49.93L0 49.93L0 49.93Z" fill="#1B3764" fill-opacity="1.000000" fill-rule="nonzero"/>
	<path id="Vector" d="M7.68 49.97C7.3 49.97 6.96 49.89 6.66 49.75C6.35 49.6 6.09 49.41 5.87 49.17C5.64 48.92 5.48 48.65 5.36 48.34C5.24 48.04 5.18 47.72 5.18 47.4C5.18 47.06 5.24 46.74 5.37 46.44C5.49 46.13 5.67 45.86 5.89 45.62C6.11 45.39 6.38 45.2 6.69 45.06C6.99 44.92 7.33 44.85 7.7 44.85C8.07 44.85 8.41 44.92 8.72 45.07C9.02 45.21 9.28 45.41 9.51 45.65C9.72 45.9 9.89 46.18 10.01 46.48C10.13 46.79 10.19 47.1 10.19 47.41C10.19 47.75 10.13 48.07 10.01 48.37C9.89 48.68 9.71 48.95 9.48 49.19C9.25 49.42 8.99 49.62 8.68 49.75C8.38 49.9 8.05 49.97 7.68 49.97ZM6.37 47.41C6.37 47.6 6.4 47.79 6.46 47.98C6.51 48.16 6.6 48.32 6.71 48.46C6.82 48.6 6.96 48.72 7.12 48.8C7.29 48.89 7.48 48.92 7.69 48.92C7.91 48.92 8.11 48.88 8.27 48.79C8.44 48.71 8.58 48.59 8.68 48.44C8.79 48.29 8.87 48.13 8.93 47.95C8.98 47.76 9.01 47.58 9.01 47.39C9.01 47.2 8.98 47.01 8.92 46.83C8.87 46.65 8.78 46.49 8.67 46.35C8.55 46.2 8.42 46.09 8.25 46.01C8.08 45.92 7.89 45.89 7.69 45.89C7.46 45.89 7.27 45.93 7.1 46.01C6.94 46.1 6.8 46.21 6.69 46.35C6.58 46.5 6.5 46.66 6.45 46.84C6.4 47.03 6.37 47.22 6.37 47.41Z" fill="#1B3764" fill-opacity="1.000000" fill-rule="nonzero"/>
	<path id="Vector" d="M15.28 46.37C15.27 46.35 15.22 46.31 15.13 46.26C15.05 46.21 14.94 46.16 14.82 46.1C14.69 46.04 14.55 46 14.39 45.95C14.24 45.91 14.09 45.89 13.94 45.89C13.74 45.89 13.59 45.92 13.48 45.99C13.37 46.06 13.31 46.17 13.31 46.31C13.31 46.42 13.36 46.51 13.44 46.57C13.52 46.64 13.64 46.69 13.8 46.75C13.95 46.8 14.15 46.85 14.37 46.92C14.7 47 14.97 47.11 15.21 47.23C15.45 47.35 15.63 47.5 15.75 47.69C15.88 47.87 15.94 48.12 15.94 48.43C15.94 48.71 15.89 48.95 15.79 49.15C15.69 49.34 15.54 49.5 15.37 49.62C15.19 49.74 14.99 49.83 14.76 49.88C14.53 49.94 14.3 49.97 14.06 49.97C13.81 49.97 13.56 49.94 13.3 49.89C13.05 49.84 12.8 49.77 12.56 49.68C12.33 49.59 12.11 49.48 11.91 49.34L12.42 48.32C12.44 48.35 12.51 48.39 12.61 48.46C12.71 48.52 12.84 48.59 13 48.65C13.15 48.72 13.32 48.78 13.51 48.83C13.7 48.89 13.89 48.91 14.08 48.91C14.29 48.91 14.45 48.88 14.55 48.81C14.65 48.75 14.7 48.66 14.7 48.54C14.7 48.42 14.65 48.31 14.54 48.25C14.44 48.17 14.29 48.11 14.11 48.06C13.93 48 13.72 47.94 13.48 47.87C13.17 47.78 12.92 47.67 12.72 47.55C12.52 47.43 12.37 47.29 12.27 47.12C12.18 46.95 12.13 46.74 12.13 46.49C12.13 46.13 12.21 45.84 12.38 45.59C12.55 45.35 12.77 45.16 13.06 45.04C13.34 44.91 13.65 44.85 13.99 44.85C14.22 44.85 14.45 44.88 14.67 44.94C14.9 44.99 15.1 45.06 15.29 45.15C15.49 45.24 15.66 45.32 15.81 45.41L15.28 46.37Z" fill="#1B3764" fill-opacity="1.000000" fill-rule="nonzero"/>
	<path id="Vector" d="M125.14 46.03L125.14 48.92L123.98 48.92L123.98 43.87L124.9 43.87L127.24 46.84L127.24 43.87L128.4 43.87L128.4 48.91L127.46 48.91L125.14 46.03Z" fill="#1B3764" fill-opacity="1.000000" fill-rule="nonzero"/>
	<path id="Vector" d="M131.56 43.87L132.65 46.1L133.75 43.87L135.02 43.87L133.23 47.19L133.23 48.91L132.07 48.91L132.07 47.18L130.31 43.88L131.56 43.88L131.56 43.87Z" fill="#1B3764" fill-opacity="1.000000" fill-rule="nonzero"/>
	<path id="Vector" d="M136.29 46.35C136.29 46.04 136.35 45.74 136.46 45.44C136.57 45.15 136.74 44.87 136.96 44.64C137.18 44.4 137.44 44.2 137.75 44.06C138.07 43.91 138.42 43.84 138.82 43.84C139.29 43.84 139.7 43.94 140.05 44.14C140.39 44.35 140.65 44.61 140.83 44.94L139.93 45.56C139.85 45.38 139.76 45.24 139.63 45.14C139.51 45.04 139.37 44.97 139.22 44.93C139.07 44.89 138.93 44.87 138.79 44.87C138.57 44.87 138.37 44.92 138.21 45.01C138.04 45.09 137.9 45.21 137.8 45.36C137.69 45.5 137.61 45.67 137.56 45.85C137.5 46.03 137.48 46.21 137.48 46.38C137.48 46.58 137.51 46.78 137.57 46.96C137.63 47.14 137.72 47.31 137.84 47.45C137.95 47.59 138.09 47.71 138.26 47.79C138.42 47.87 138.61 47.91 138.8 47.91C138.94 47.91 139.09 47.89 139.24 47.84C139.39 47.79 139.52 47.72 139.64 47.62C139.77 47.52 139.87 47.38 139.93 47.22L140.89 47.78C140.78 48.03 140.62 48.23 140.4 48.41C140.17 48.59 139.91 48.72 139.63 48.81C139.34 48.91 139.06 48.95 138.78 48.95C138.42 48.95 138.08 48.88 137.77 48.73C137.46 48.58 137.21 48.38 136.98 48.14C136.76 47.89 136.59 47.61 136.47 47.3C136.35 46.98 136.29 46.67 136.29 46.35Z" fill="#1B3764" fill-opacity="1.000000" fill-rule="nonzero"/>
	<path id="Vector" d="M66.45 0L66.45 0.42C66.02 0.44 65.7 0.49 65.48 0.58C65.25 0.67 65.11 0.84 65.04 1.09C64.97 1.34 64.94 1.73 64.94 2.26L64.94 12.83C64.94 13.35 64.97 13.73 65.05 13.99C65.13 14.24 65.27 14.41 65.49 14.5C65.7 14.59 66.02 14.64 66.45 14.67L66.45 15.1C66 15.07 65.44 15.05 64.76 15.04C64.08 15.04 63.38 15.03 62.67 15.03C61.9 15.03 61.18 15.04 60.51 15.04C59.83 15.05 59.29 15.07 58.88 15.1L58.88 14.67C59.36 14.64 59.73 14.58 59.97 14.5C60.22 14.41 60.39 14.24 60.48 13.99C60.56 13.73 60.6 13.35 60.6 12.83L60.6 1.42L60.82 1.38L55.46 15.08L55.12 15.08L49.1 1.38L49.1 10.91C49.1 11.87 49.14 12.6 49.22 13.1C49.3 13.6 49.49 13.97 49.8 14.19C50.1 14.41 50.59 14.57 51.26 14.67L51.26 15.1C50.97 15.07 50.6 15.05 50.15 15.04C49.69 15.04 49.27 15.03 48.87 15.03C48.56 15.03 48.24 15.04 47.91 15.04C47.58 15.05 47.32 15.07 47.11 15.1L47.11 14.67C47.55 14.57 47.87 14.42 48.09 14.21C48.3 14 48.44 13.67 48.51 13.22C48.59 12.76 48.62 12.14 48.62 11.34L48.62 2.26C48.62 1.73 48.59 1.34 48.51 1.09C48.44 0.85 48.3 0.67 48.08 0.58C47.86 0.49 47.54 0.44 47.11 0.42L47.11 0C47.32 0.01 47.59 0.02 47.91 0.04C48.24 0.05 48.56 0.06 48.87 0.06C49.69 0.06 50.48 0.05 51.24 0.04C51.99 0.02 52.68 0.01 53.29 0L57.51 9.51L56.87 10.21L60.82 0.06C61.1 0.06 61.41 0.06 61.74 0.06C62.07 0.06 62.37 0.06 62.67 0.06C63.39 0.06 64.08 0.05 64.77 0.04C65.45 0.02 66.01 0.01 66.45 0Z" fill="#1B3764" fill-opacity="1.000000" fill-rule="nonzero"/>
	<path id="Vector" d="M90.23 0C90.17 0.71 90.14 1.39 90.12 2.05C90.1 2.71 90.08 3.22 90.08 3.58C90.08 3.88 90.09 4.16 90.1 4.43C90.12 4.7 90.13 4.93 90.15 5.11L89.66 5.11C89.49 3.93 89.2 3 88.8 2.33C88.41 1.65 87.94 1.18 87.41 0.9C86.87 0.62 86.31 0.48 85.73 0.48L85.46 0.48C85.09 0.48 84.81 0.52 84.62 0.58C84.44 0.64 84.31 0.77 84.25 0.95C84.19 1.14 84.15 1.43 84.15 1.83L84.15 13.27C84.15 13.65 84.19 13.94 84.25 14.13C84.31 14.33 84.44 14.45 84.62 14.51C84.81 14.58 85.08 14.61 85.46 14.61L86.16 14.61C86.63 14.61 87.13 14.46 87.64 14.15C88.16 13.85 88.64 13.32 89.08 12.58C89.52 11.84 89.86 10.84 90.08 9.55L90.57 9.55C90.53 10.07 90.51 10.72 90.51 11.52C90.51 11.87 90.51 12.38 90.53 13.04C90.54 13.71 90.59 14.39 90.65 15.1C89.93 15.07 89.11 15.05 88.2 15.05C87.29 15.04 86.48 15.04 85.77 15.04C85.25 15.04 84.57 15.04 83.71 15.04C82.85 15.04 81.94 15.04 80.98 15.05C80.02 15.06 79.13 15.07 78.3 15.1L78.3 14.67C78.74 14.64 79.07 14.59 79.29 14.5C79.5 14.42 79.64 14.25 79.71 13.99C79.78 13.74 79.82 13.35 79.82 12.84L79.82 2.26C79.82 1.73 79.78 1.34 79.71 1.09C79.64 0.85 79.49 0.67 79.28 0.58C79.05 0.49 78.73 0.44 78.31 0.42L78.31 0C79.13 0.01 80.03 0.02 80.98 0.04C81.94 0.05 82.85 0.06 83.71 0.06C84.58 0.06 85.26 0.06 85.77 0.06C86.42 0.06 87.17 0.05 88 0.05C88.84 0.04 89.58 0.02 90.23 0ZM87.14 7.29L87.14 7.71L83.52 7.71L83.52 7.29L87.14 7.29ZM87.76 4.48C87.7 5.28 87.68 5.9 87.69 6.33C87.69 6.76 87.7 7.15 87.7 7.5C87.7 7.85 87.7 8.25 87.72 8.67C87.73 9.1 87.76 9.72 87.82 10.53L87.33 10.53C87.25 10 87.07 9.52 86.81 9.1C86.55 8.67 86.21 8.33 85.8 8.09C85.39 7.84 84.91 7.71 84.37 7.71L84.37 7.29C84.91 7.29 85.38 7.14 85.78 6.84C86.18 6.54 86.51 6.18 86.76 5.74C87.02 5.3 87.19 4.88 87.28 4.47L87.76 4.47L87.76 4.48Z" fill="#1B3764" fill-opacity="1.000000" fill-rule="nonzero"/>
	<path id="Vector" d="M44.49 36.2C45.48 36.2 46.3 36.34 46.94 36.61C47.58 36.88 48.14 37.2 48.62 37.59C48.78 37.72 48.92 37.78 49.05 37.78C49.32 37.78 49.5 37.36 49.58 36.51L50.07 36.51C50.04 37.08 50.02 37.77 50.01 38.59C49.99 39.41 49.99 40.49 49.99 41.84L49.5 41.84C49.4 40.81 49.22 39.96 48.98 39.27C48.73 38.58 48.25 37.99 47.54 37.51C47.24 37.31 46.89 37.15 46.49 37.04C46.09 36.93 45.71 36.87 45.34 36.87C44.51 36.87 43.83 37.09 43.29 37.54C42.75 37.99 42.32 38.57 42 39.29C41.68 40.01 41.45 40.79 41.32 41.64C41.18 42.48 41.11 43.31 41.11 44.1C41.11 46.66 41.43 48.53 42.05 49.71C42.68 50.89 43.51 51.48 44.55 51.48C44.78 51.48 44.98 51.46 45.15 51.42C45.31 51.37 45.46 51.31 45.6 51.22C45.75 51.11 45.87 50.97 45.94 50.8C46.01 50.63 46.04 50.42 46.04 50.16L46.04 48.02C46.04 47.33 45.99 46.81 45.89 46.47C45.78 46.12 45.57 45.89 45.26 45.76C44.94 45.64 44.49 45.57 43.89 45.55L43.89 45.13C44.22 45.14 44.62 45.15 45.09 45.16C45.56 45.17 46.04 45.17 46.56 45.18C47.07 45.19 47.54 45.19 47.97 45.19C48.65 45.19 49.28 45.18 49.85 45.17C50.43 45.15 50.89 45.14 51.25 45.13L51.25 45.55C50.89 45.58 50.66 45.69 50.55 45.9C50.43 46.09 50.38 46.59 50.38 47.39L50.38 51.62L49.95 51.62C49.94 51.37 49.88 51.11 49.78 50.83C49.68 50.54 49.52 50.4 49.29 50.4C49.18 50.4 49.02 50.43 48.81 50.49C48.61 50.55 48.28 50.68 47.84 50.89C47.28 51.17 46.7 51.4 46.08 51.61C45.46 51.82 44.84 51.92 44.24 51.92C41.56 51.92 39.56 51.24 38.22 49.88C36.88 48.52 36.22 46.63 36.22 44.2C36.22 42.6 36.57 41.21 37.27 40.02C37.98 38.82 38.95 37.89 40.19 37.22C41.43 36.54 42.87 36.2 44.49 36.2Z" fill="#1B3764" fill-opacity="1.000000" fill-rule="nonzero"/>
	<path id="Vector" d="M70.47 36.5L75.64 49.81C75.83 50.29 76.05 50.64 76.27 50.85C76.5 51.05 76.71 51.16 76.89 51.17L76.89 51.6C76.38 51.57 75.79 51.55 75.1 51.55C74.42 51.54 73.72 51.54 73.01 51.54C72.29 51.54 71.6 51.54 70.96 51.55C70.33 51.56 69.81 51.57 69.43 51.6L69.43 51.17C70.16 51.15 70.62 51.02 70.81 50.8C71 50.58 70.95 50.11 70.66 49.38L67.25 39.93L67.68 39.19L64.74 46.84C64.27 48.07 64.03 48.98 64.04 49.6C64.05 50.21 64.23 50.62 64.59 50.82C64.94 51.03 65.4 51.15 65.97 51.17L65.97 51.6C65.44 51.57 64.97 51.55 64.55 51.55C64.13 51.54 63.68 51.54 63.18 51.54C62.91 51.54 62.62 51.54 62.31 51.55C62.01 51.56 61.75 51.57 61.53 51.6L61.53 51.17C61.86 51.12 62.18 50.91 62.5 50.55C62.82 50.18 63.15 49.56 63.5 48.68L68.24 36.5C68.58 36.53 68.95 36.54 69.35 36.54C69.75 36.54 70.13 36.53 70.47 36.5ZM71.22 45.46L71.22 45.89L64.86 45.89L65.07 45.46L71.22 45.46Z" fill="#1B3764" fill-opacity="1.000000" fill-rule="nonzero"/>
	<path id="Vector" d="M102.09 36.5L102.09 36.93C101.66 37.01 101.34 37.16 101.11 37.38C100.89 37.59 100.75 37.92 100.68 38.37C100.6 38.82 100.57 39.45 100.57 40.26L100.57 51.61C100.36 51.58 100.13 51.56 99.88 51.56C99.63 51.56 99.36 51.58 99.08 51.61L89.63 41.28L89.63 47.42C89.63 48.38 89.67 49.11 89.74 49.61C89.82 50.12 90.01 50.48 90.32 50.7C90.62 50.92 91.11 51.08 91.78 51.18L91.78 51.61C91.5 51.58 91.13 51.56 90.67 51.55C90.22 51.55 89.79 51.54 89.4 51.54C89.08 51.54 88.76 51.55 88.44 51.55C88.11 51.56 87.84 51.58 87.63 51.61L87.63 51.18C88.07 51.08 88.4 50.93 88.61 50.72C88.82 50.51 88.96 50.18 89.04 49.73C89.11 49.27 89.14 48.65 89.14 47.85L89.14 38.76C89.14 38.23 89.11 37.85 89.04 37.6C88.96 37.35 88.82 37.18 88.6 37.09C88.38 36.99 88.06 36.94 87.63 36.93L87.63 36.5C87.84 36.52 88.11 36.53 88.44 36.54C88.77 36.56 89.09 36.56 89.4 36.56C89.75 36.56 90.1 36.56 90.44 36.54C90.78 36.53 91.09 36.52 91.36 36.5L100.09 45.72L100.09 40.68C100.09 39.73 100.05 39 99.97 38.49C99.89 37.99 99.7 37.62 99.4 37.4C99.1 37.17 98.62 37.01 97.93 36.93L97.93 36.5C98.22 36.52 98.59 36.53 99.04 36.54C99.5 36.56 99.92 36.56 100.32 36.56C100.65 36.56 100.97 36.56 101.29 36.54C101.61 36.53 101.87 36.52 102.09 36.5Z" fill="#1B3764" fill-opacity="1.000000" fill-rule="nonzero"/>
	<path id="Vector" d="M47.3 84.74C47.97 84.74 48.49 84.9 48.86 85.2C49.23 85.51 49.42 85.97 49.42 86.58C49.42 87.19 49.23 87.65 48.86 87.95C48.49 88.26 47.97 88.41 47.3 88.41C46.62 88.41 46.1 88.26 45.74 87.95C45.37 87.65 45.19 87.19 45.19 86.58C45.19 85.97 45.37 85.51 45.74 85.2C46.1 84.89 46.62 84.74 47.3 84.74Z" fill="#1B3764" fill-opacity="1.000000" fill-rule="nonzero"/>
	<path id="Vector" d="M68.93 73.01L68.93 73.43C68.51 73.45 68.18 73.5 67.96 73.59C67.74 73.69 67.59 73.85 67.52 74.11C67.45 74.35 67.42 74.75 67.42 75.27L67.42 85.85C67.42 86.36 67.46 86.74 67.53 87C67.61 87.26 67.76 87.43 67.97 87.51C68.18 87.6 68.5 87.65 68.93 87.68L68.93 88.11C68.52 88.08 67.98 88.06 67.34 88.05C66.69 88.05 66.03 88.04 65.37 88.04C64.6 88.04 63.87 88.05 63.2 88.05C62.52 88.06 61.98 88.08 61.57 88.11L61.57 87.68C62.01 87.65 62.34 87.59 62.55 87.51C62.77 87.43 62.91 87.26 62.98 87C63.05 86.74 63.09 86.36 63.09 85.85L63.09 75.27C63.09 74.74 63.05 74.35 62.98 74.11C62.91 73.86 62.76 73.69 62.54 73.59C62.32 73.5 62 73.45 61.58 73.43L61.58 73.01C61.99 73.02 62.53 73.04 63.21 73.05C63.88 73.07 64.61 73.07 65.37 73.07C66.04 73.07 66.7 73.07 67.34 73.05C67.99 73.04 68.52 73.02 68.93 73.01ZM76.74 73.01L76.74 73.41C76.25 73.54 75.72 73.78 75.13 74.12C74.54 74.46 73.91 75.01 73.24 75.76L69.31 80.21L71.04 77.95L76.1 86.38C76.28 86.68 76.47 86.93 76.66 87.13C76.84 87.32 77.09 87.51 77.4 87.68L77.4 88.11C76.81 88.08 76.17 88.06 75.5 88.05C74.82 88.05 74.17 88.04 73.56 88.04C73.24 88.04 72.83 88.05 72.35 88.05C71.87 88.06 71.26 88.08 70.52 88.11L70.52 87.68C71.18 87.65 71.57 87.58 71.68 87.45C71.78 87.32 71.73 87.08 71.52 86.72L68.42 81.5C68.28 81.24 68.15 81.05 68.04 80.92C67.93 80.79 67.82 80.7 67.71 80.64C67.61 80.59 67.47 80.55 67.3 80.54L67.3 80.09C67.92 80.06 68.51 79.85 69.07 79.46C69.62 79.07 70.29 78.43 71.07 77.55L71.8 76.74C72.39 76.07 72.71 75.49 72.75 75C72.78 74.51 72.63 74.13 72.3 73.85C71.96 73.57 71.53 73.43 70.98 73.41L70.98 73.01C71.58 73.02 72.13 73.04 72.64 73.05C73.14 73.07 73.8 73.07 74.59 73.07C75.46 73.08 76.17 73.05 76.74 73.01Z" fill="#1B3764" fill-opacity="1.000000" fill-rule="nonzero"/>
	<path id="Vector" d="M90.74 84.74C91.4 84.74 91.92 84.9 92.29 85.2C92.66 85.51 92.85 85.97 92.85 86.58C92.85 87.19 92.67 87.65 92.29 87.95C91.93 88.26 91.4 88.41 90.74 88.41C90.05 88.41 89.53 88.26 89.17 87.95C88.8 87.65 88.63 87.19 88.63 86.58C88.63 85.97 88.8 85.51 89.17 85.2C89.53 84.89 90.05 84.74 90.74 84.74Z" fill="#1B3764" fill-opacity="1.000000" fill-rule="nonzero"/>
	<path id="Vector" d="M10.86 34.93L36.76 11.56L37.73 12.64L11.83 36.01L10.86 34.93Z" fill="#1B3764" fill-opacity="1.000000" fill-rule="evenodd"/>
	<path id="Vector" d="M100.76 12.63L101.73 11.56L127.64 34.92L126.67 36L100.76 12.63Z" fill="#1B3764" fill-opacity="1.000000" fill-rule="evenodd"/>
	<path id="Vector" d="M11.36 58.86L12.34 57.78L38.24 81.15L37.27 82.23L11.36 58.86Z" fill="#1B3764" fill-opacity="1.000000" fill-rule="evenodd"/>
	<path id="Vector" d="M101.27 81.15L127.17 57.78L128.14 58.86L102.24 82.23L101.27 81.15Z" fill="#1B3764" fill-opacity="1.000000" fill-rule="evenodd"/>
</svg>
