<svg width="99.769531" height="99.770020" viewBox="0 0 99.7695 99.77" fill="none" xmlns="http://www.w3.org/2000/svg" xmlns:xlink="http://www.w3.org/1999/xlink">
	<desc>
			Created with Pixso.
	</desc>
	<defs/>
	<rect id="фрейм 1" width="99.770004" height="99.770004" fill="#FFFFFF" fill-opacity="0"/>
	<path id="Vector" d="M49.88 99.77C22.37 99.77 0 77.39 0 49.88C0 22.37 22.37 0 49.88 0C77.39 0 99.76 22.37 99.76 49.88C99.76 77.39 77.39 99.77 49.88 99.77ZM49.88 2.02C23.49 2.02 2.02 23.49 2.02 49.88C2.02 76.27 23.49 97.74 49.88 97.74C76.27 97.74 97.74 76.27 97.74 49.88C97.74 23.49 76.27 2.02 49.88 2.02Z" fill="#1B3764" fill-opacity="1.000000" fill-rule="nonzero"/>
	<path id="Vector" d="M10.22 49.22C10.22 49.38 10.5 49.47 11.07 49.47C11.2 49.47 11.31 49.45 11.37 49.42C11.55 49.34 11.77 49.29 12.02 49.29C12.28 49.29 12.41 49.36 12.41 49.49C12.41 49.55 12.39 49.62 12.34 49.72C12.3 49.82 12.26 49.88 12.24 49.9C12.22 49.92 12.14 49.96 12 49.99C11.87 50.03 11.78 50.05 11.73 50.06C11.69 50.06 11.66 50.06 11.65 50.06C11.64 50.07 11.62 50.07 11.6 50.07C11.58 50.08 11.54 50.08 11.48 50.09C11.41 50.11 11.37 50.11 11.34 50.09C10.52 50.5 9.95 50.94 9.65 51.42C9.51 51.64 9.44 51.83 9.44 51.98C9.44 52.22 9.61 52.35 9.95 52.35C10.21 52.35 10.55 52.24 10.96 52.04C11.37 51.83 11.73 51.58 12.05 51.28C12.36 50.98 12.52 50.73 12.52 50.51C12.52 50.44 12.57 50.41 12.67 50.41C12.91 50.41 13.03 50.55 13.03 50.83C13.03 50.96 12.98 51.12 12.86 51.31C12.74 51.5 12.58 51.68 12.37 51.87C12.17 52.06 11.94 52.23 11.68 52.4C11.43 52.56 11.14 52.69 10.83 52.8C10.52 52.91 10.25 52.96 10.04 52.96C9.83 52.96 9.65 52.94 9.52 52.9C9.38 52.86 9.26 52.8 9.14 52.71C8.89 52.54 8.76 52.27 8.76 51.92C8.76 51.72 8.82 51.53 8.92 51.33C9.03 51.13 9.16 50.95 9.33 50.79C9.64 50.48 9.97 50.22 10.33 50.02C9.82 49.9 9.56 49.64 9.56 49.23C9.56 48.77 9.91 48.35 10.62 47.97C11.02 47.76 11.45 47.61 11.9 47.52C12.12 47.47 12.3 47.45 12.45 47.45C12.75 47.45 12.97 47.47 13.12 47.52C13.22 47.56 13.29 47.62 13.35 47.7C13.4 47.78 13.43 47.85 13.43 47.91C13.43 47.97 13.42 48.02 13.41 48.07C13.39 48.12 13.37 48.15 13.34 48.18C13.29 48.21 13.23 48.24 13.17 48.26C13.11 48.28 13.08 48.29 13.06 48.3C12.87 48.38 12.7 48.42 12.56 48.42C12.32 48.42 12.18 48.39 12.16 48.32C12.16 48.26 12.19 48.18 12.24 48.1C12 48.11 11.76 48.16 11.51 48.24C11.26 48.33 11.04 48.43 10.85 48.54C10.66 48.65 10.51 48.78 10.4 48.9C10.28 49.03 10.22 49.14 10.22 49.22Z" fill="#1B3764" fill-opacity="1.000000" fill-rule="nonzero"/>
	<path id="Vector" d="M13.3 52.11L13.29 52.17C13.29 52.23 13.32 52.29 13.36 52.33C13.41 52.37 13.45 52.4 13.49 52.4C13.79 52.4 14.05 52.35 14.28 52.27C14.51 52.18 14.63 52.09 14.63 52C14.63 51.96 14.59 51.92 14.5 51.89C14.42 51.86 14.28 51.82 14.08 51.78C13.88 51.73 13.74 51.69 13.65 51.67C13.56 51.64 13.49 51.62 13.44 51.59C13.39 51.57 13.33 51.54 13.28 51.5C13.16 51.42 13.11 51.3 13.11 51.13C13.11 50.97 13.17 50.81 13.29 50.65C13.41 50.49 13.56 50.36 13.74 50.24C13.91 50.13 14.11 50.03 14.32 49.94C14.73 49.77 15.08 49.69 15.36 49.69C15.63 49.69 15.8 49.75 15.87 49.87C15.89 49.91 15.9 49.96 15.9 50.01L15.9 50.03C15.9 50.16 15.87 50.27 15.81 50.34C15.75 50.41 15.67 50.48 15.55 50.54C15.42 50.6 15.33 50.63 15.26 50.63C15.19 50.63 15.15 50.63 15.12 50.62C15.11 50.6 15.09 50.59 15.08 50.58C15.06 50.56 15.05 50.55 15.03 50.54C15.01 50.53 15 50.51 15 50.48C15 50.45 15.02 50.42 15.04 50.39C15.06 50.36 15.08 50.33 15.09 50.3C14.93 50.3 14.76 50.34 14.58 50.41C14.4 50.48 14.25 50.56 14.12 50.64C14 50.72 13.89 50.8 13.8 50.88C13.72 50.96 13.68 51.01 13.68 51.05C13.68 51.09 13.74 51.11 13.85 51.14C14.36 51.24 14.7 51.33 14.86 51.4C15.02 51.48 15.13 51.56 15.19 51.65C15.25 51.75 15.29 51.83 15.29 51.91C15.29 52.07 15.22 52.22 15.1 52.36C14.97 52.5 14.81 52.61 14.63 52.7C14.23 52.9 13.88 52.99 13.59 52.99C13.29 52.99 13.09 52.95 12.97 52.86C12.86 52.77 12.8 52.66 12.8 52.54C12.8 52.42 12.84 52.3 12.9 52.2C12.96 52.09 13.04 52.04 13.14 52.04C13.25 52.03 13.3 52.06 13.3 52.11Z" fill="#1B3764" fill-opacity="1.000000" fill-rule="nonzero"/>
	<path id="Vector" d="M18.24 48.07L18.39 48.1C18.41 48.1 18.44 48.12 18.46 48.14C18.48 48.16 18.48 48.18 18.48 48.2C18.48 48.22 18.46 48.27 18.4 48.36C18.35 48.44 18.29 48.55 18.22 48.65C18.15 48.76 18.11 48.83 18.11 48.83C18.3 48.82 18.44 48.81 18.52 48.81C18.6 48.81 18.65 48.82 18.68 48.83C18.71 48.84 18.75 48.87 18.78 48.92C18.82 48.97 18.86 49.01 18.89 49.04C18.92 49.06 18.94 49.1 18.94 49.15C18.94 49.21 18.91 49.25 18.84 49.29C18.78 49.32 18.71 49.34 18.64 49.35C18.07 49.41 17.75 49.44 17.69 49.44C17.49 49.75 17.21 50.23 16.85 50.88C16.49 51.52 16.3 51.93 16.27 52.09C16.26 52.17 16.26 52.23 16.26 52.28C16.26 52.37 16.31 52.42 16.41 52.42C16.51 52.42 16.62 52.38 16.75 52.31C16.87 52.23 16.99 52.14 17.09 52.05C17.36 51.8 17.51 51.68 17.53 51.68C17.6 51.68 17.63 51.79 17.63 52.01C17.63 52.14 17.57 52.24 17.46 52.34C17.21 52.56 17 52.72 16.83 52.83C16.66 52.94 16.49 52.99 16.32 52.99C16.28 52.99 16.25 52.99 16.21 52.98C16.02 52.94 15.87 52.87 15.78 52.76C15.68 52.65 15.64 52.5 15.64 52.32C15.64 52.14 15.7 51.92 15.8 51.65C15.91 51.39 16.04 51.11 16.21 50.82C16.47 50.34 16.74 49.89 17.01 49.47L16.87 49.49C16.58 49.52 16.41 49.53 16.37 49.53L16.33 49.53C16.26 49.53 16.19 49.52 16.13 49.49C16.06 49.46 16.02 49.42 16.02 49.38C16.02 49.34 16.04 49.3 16.08 49.26C16.11 49.22 16.13 49.19 16.14 49.17C16.16 49.12 16.22 49.06 16.34 48.99C16.45 48.92 16.54 48.89 16.59 48.88C16.65 48.88 16.7 48.87 16.76 48.87C16.81 48.87 16.87 48.87 16.94 48.87C17 48.86 17.05 48.86 17.09 48.86L17.42 48.84C17.63 48.53 17.78 48.33 17.85 48.24C17.93 48.15 17.97 48.1 17.99 48.09C18 48.08 18.02 48.08 18.06 48.08L18.24 48.07Z" fill="#1B3764" fill-opacity="1.000000" fill-rule="nonzero"/>
	<path id="Vector" d="M17.82 52.41C17.94 52.3 18.06 52.24 18.17 52.24C18.38 52.24 18.48 52.32 18.48 52.49C18.48 52.63 18.42 52.76 18.31 52.89C18.19 53.02 18.06 53.08 17.91 53.08C17.73 53.08 17.65 52.99 17.65 52.81C17.65 52.67 17.71 52.53 17.82 52.41Z" fill="#1B3764" fill-opacity="1.000000" fill-rule="nonzero"/>
	<path id="Vector" d="M80.23 52.24C80.87 52.12 81.32 52.05 81.56 52.05C81.66 52.05 81.71 52.08 81.72 52.14C81.73 52.16 81.74 52.18 81.76 52.19C81.78 52.2 81.8 52.25 81.82 52.33C81.84 52.42 81.85 52.49 81.86 52.54L81.86 52.58C81.86 52.66 81.82 52.71 81.76 52.73C81.52 52.77 81.13 52.82 80.59 52.86C80.06 52.9 79.74 52.93 79.64 52.94C79.59 52.94 79.5 52.91 79.39 52.86C79.37 52.83 79.34 52.8 79.32 52.74C79.29 52.68 79.28 52.63 79.28 52.59C79.28 52.55 79.3 52.48 79.35 52.39C79.36 52.37 79.51 52.2 79.81 51.86C79.89 51.78 80.08 51.61 80.39 51.33C80.71 51.05 80.92 50.85 81.04 50.71C81.17 50.57 81.38 50.34 81.69 50.02C82 49.7 82.22 49.46 82.37 49.28C82.52 49.1 82.6 48.97 82.6 48.9C82.6 48.85 82.56 48.83 82.49 48.83C82.41 48.83 82.33 48.85 82.22 48.9C82.12 48.94 82 49.01 81.87 49.09C81.55 49.3 81.24 49.61 80.95 50.02C80.93 50.03 80.93 50.06 80.93 50.1C80.91 50.15 80.87 50.19 80.8 50.22C80.74 50.25 80.68 50.27 80.64 50.27C80.6 50.27 80.55 50.25 80.49 50.23C80.43 50.2 80.39 50.17 80.36 50.15C80.33 50.12 80.32 50.06 80.32 49.99C80.32 49.91 80.36 49.8 80.45 49.66C80.53 49.52 80.65 49.37 80.81 49.21C80.97 49.05 81.14 48.89 81.33 48.75C81.52 48.61 81.74 48.49 81.98 48.39C82.22 48.3 82.41 48.25 82.58 48.25C82.75 48.25 82.87 48.29 82.95 48.36C83.09 48.5 83.17 48.65 83.17 48.81C83.17 48.97 83.09 49.17 82.94 49.41C82.78 49.65 82.57 49.91 82.31 50.19C82.05 50.48 81.79 50.74 81.56 50.97C81.32 51.2 81.06 51.45 80.77 51.73C80.49 52 80.3 52.17 80.23 52.24Z" fill="#1B3764" fill-opacity="1.000000" fill-rule="nonzero"/>
	<path id="Vector" d="M86.25 48.86C86.25 48.91 86.24 49.01 86.21 49.18C86.18 49.34 86.08 49.55 85.92 49.79C85.92 49.8 85.92 49.83 85.93 49.86C85.93 49.9 85.92 49.95 85.91 50.02C85.9 50.09 85.84 50.22 85.75 50.41C85.65 50.6 85.54 50.81 85.39 51.03C85.24 51.25 85.07 51.48 84.87 51.71C84.68 51.93 84.48 52.14 84.27 52.33C84.06 52.51 83.84 52.66 83.6 52.78C83.37 52.9 83.15 52.96 82.96 52.96C82.77 52.96 82.62 52.9 82.5 52.78C82.39 52.67 82.33 52.5 82.32 52.29C82.31 52.08 82.37 51.83 82.48 51.53C82.59 51.24 82.74 50.94 82.93 50.64C83.12 50.35 83.33 50.06 83.59 49.77C83.83 49.48 84.09 49.23 84.34 49.01C84.6 48.79 84.85 48.61 85.11 48.47C85.37 48.33 85.57 48.27 85.73 48.27C85.9 48.27 86.02 48.33 86.11 48.44C86.2 48.55 86.24 48.69 86.25 48.86ZM83 52.01C83.01 52.21 83.08 52.3 83.23 52.3C83.37 52.3 83.55 52.22 83.76 52.06C84.12 51.78 84.54 51.32 85.02 50.68C84.89 50.75 84.78 50.79 84.7 50.79C84.62 50.79 84.56 50.76 84.52 50.7C84.48 50.64 84.45 50.56 84.45 50.45C84.45 50.35 84.48 50.28 84.56 50.25C84.87 50.13 85.12 49.94 85.32 49.69C85.52 49.43 85.61 49.19 85.61 48.96C85.6 48.88 85.55 48.84 85.44 48.84C85.34 48.84 85.15 48.95 84.9 49.17C84.65 49.39 84.4 49.65 84.15 49.96C83.89 50.27 83.66 50.6 83.44 50.96C83.22 51.32 83.08 51.62 83.02 51.87C83 51.92 83 51.96 83 52.01Z" fill="#1B3764" fill-opacity="1.000000" fill-rule="nonzero"/>
	<path id="Vector" d="M86.34 52.24C86.99 52.12 87.43 52.05 87.67 52.05C87.77 52.05 87.82 52.08 87.83 52.14C87.84 52.16 87.85 52.18 87.87 52.19C87.89 52.2 87.91 52.25 87.93 52.33C87.95 52.42 87.96 52.49 87.97 52.54L87.97 52.58C87.97 52.66 87.93 52.71 87.87 52.73C87.63 52.77 87.24 52.82 86.71 52.86C86.17 52.9 85.85 52.93 85.75 52.94C85.7 52.94 85.62 52.91 85.5 52.86C85.48 52.83 85.45 52.8 85.43 52.74C85.41 52.68 85.39 52.63 85.39 52.59C85.39 52.55 85.41 52.48 85.46 52.39C85.47 52.37 85.62 52.2 85.92 51.86C86 51.78 86.19 51.61 86.5 51.33C86.82 51.05 87.03 50.85 87.16 50.71C87.28 50.57 87.49 50.34 87.8 50.02C88.11 49.7 88.33 49.46 88.48 49.28C88.63 49.1 88.71 48.97 88.71 48.9C88.71 48.85 88.67 48.83 88.6 48.83C88.52 48.83 88.44 48.85 88.33 48.9C88.23 48.94 88.11 49.01 87.98 49.09C87.66 49.3 87.35 49.61 87.06 50.02C87.04 50.03 87.04 50.06 87.04 50.1C87.02 50.15 86.98 50.19 86.91 50.22C86.85 50.25 86.79 50.27 86.75 50.27C86.71 50.27 86.66 50.25 86.6 50.23C86.54 50.2 86.5 50.17 86.47 50.15C86.44 50.12 86.43 50.06 86.43 49.99C86.43 49.91 86.47 49.8 86.56 49.66C86.64 49.52 86.76 49.37 86.92 49.21C87.08 49.05 87.25 48.89 87.44 48.75C87.63 48.61 87.85 48.49 88.09 48.39C88.33 48.3 88.52 48.25 88.69 48.25C88.86 48.25 88.98 48.29 89.06 48.36C89.21 48.5 89.28 48.65 89.28 48.81C89.28 48.97 89.2 49.17 89.05 49.41C88.89 49.65 88.68 49.91 88.42 50.19C88.16 50.48 87.91 50.74 87.67 50.97C87.43 51.2 87.17 51.45 86.88 51.73C86.6 52 86.42 52.17 86.34 52.24Z" fill="#1B3764" fill-opacity="1.000000" fill-rule="nonzero"/>
	<path id="Vector" d="M92.36 48.86C92.36 48.91 92.35 49.01 92.32 49.18C92.29 49.34 92.19 49.55 92.03 49.79C92.03 49.8 92.03 49.83 92.04 49.86C92.04 49.9 92.03 49.95 92.02 50.02C92.01 50.09 91.95 50.22 91.86 50.41C91.76 50.6 91.64 50.81 91.5 51.03C91.35 51.25 91.18 51.48 90.98 51.71C90.79 51.93 90.59 52.14 90.38 52.33C90.17 52.51 89.95 52.66 89.71 52.78C89.48 52.9 89.26 52.96 89.07 52.96C88.88 52.96 88.73 52.9 88.61 52.78C88.5 52.67 88.44 52.5 88.43 52.29C88.42 52.08 88.48 51.83 88.59 51.53C88.7 51.24 88.85 50.94 89.04 50.64C89.23 50.35 89.44 50.06 89.7 49.77C89.94 49.48 90.2 49.23 90.45 49.01C90.71 48.79 90.96 48.61 91.22 48.47C91.47 48.33 91.68 48.27 91.84 48.27C92 48.27 92.13 48.33 92.22 48.44C92.31 48.55 92.35 48.69 92.36 48.86ZM89.11 52.01C89.12 52.21 89.19 52.3 89.33 52.3C89.48 52.3 89.66 52.22 89.87 52.06C90.23 51.78 90.65 51.32 91.13 50.68C91 50.75 90.89 50.79 90.81 50.79C90.73 50.79 90.67 50.76 90.63 50.7C90.59 50.64 90.56 50.56 90.56 50.45C90.55 50.35 90.59 50.28 90.67 50.25C90.98 50.13 91.23 49.94 91.43 49.69C91.63 49.43 91.72 49.19 91.72 48.96C91.71 48.88 91.66 48.84 91.55 48.84C91.45 48.84 91.26 48.95 91.01 49.17C90.76 49.39 90.51 49.65 90.25 49.96C90 50.27 89.77 50.6 89.55 50.96C89.33 51.32 89.19 51.62 89.13 51.87C89.11 51.92 89.11 51.96 89.11 52.01Z" fill="#1B3764" fill-opacity="1.000000" fill-rule="nonzero"/>
	<path id="Vector" d="M20.26 76.57C20.25 76.44 20.22 76.32 20.19 76.2C20.16 76.1 20.12 75.98 20.07 75.87C20.02 75.75 19.97 75.65 19.89 75.55C19.83 75.48 19.77 75.43 19.72 75.41C19.66 75.38 19.6 75.39 19.55 75.44C19.51 75.47 19.49 75.51 19.49 75.55C19.48 75.6 19.49 75.66 19.5 75.72C19.52 75.79 19.55 75.86 19.59 75.94C19.62 76.03 19.66 76.13 19.7 76.24C19.77 76.41 19.83 76.57 19.87 76.72C19.91 76.87 19.93 77.01 19.92 77.15C19.92 77.28 19.88 77.41 19.82 77.53C19.76 77.65 19.66 77.77 19.52 77.88C19.34 78.03 19.16 78.12 18.99 78.15C18.81 78.18 18.64 78.18 18.48 78.13C18.32 78.08 18.17 78.01 18.03 77.9C17.89 77.79 17.76 77.67 17.65 77.53C17.56 77.42 17.48 77.3 17.4 77.17C17.33 77.04 17.26 76.91 17.2 76.77C17.13 76.63 17.08 76.49 17.04 76.35C16.99 76.21 16.96 76.08 16.94 75.94L17.95 75.71C17.96 75.86 17.99 76.01 18.03 76.15C18.06 76.27 18.11 76.41 18.16 76.55C18.22 76.69 18.3 76.82 18.4 76.93C18.47 77.02 18.53 77.07 18.58 77.09C18.63 77.11 18.68 77.1 18.72 77.07C18.76 77.03 18.78 76.99 18.78 76.93C18.78 76.87 18.77 76.8 18.74 76.72C18.71 76.64 18.68 76.55 18.64 76.45C18.6 76.36 18.55 76.25 18.51 76.13C18.45 75.97 18.41 75.81 18.38 75.68C18.35 75.54 18.35 75.41 18.36 75.3C18.38 75.19 18.41 75.08 18.48 74.98C18.54 74.88 18.62 74.79 18.73 74.7C18.9 74.57 19.07 74.48 19.24 74.43C19.42 74.39 19.59 74.39 19.76 74.42C19.93 74.46 20.08 74.52 20.23 74.62C20.38 74.72 20.52 74.84 20.64 74.99C20.73 75.1 20.81 75.21 20.87 75.33C20.94 75.45 20.99 75.58 21.04 75.7C21.09 75.82 21.12 75.94 21.15 76.05C21.19 76.17 21.21 76.27 21.23 76.37L20.26 76.57Z" fill="#1B3764" fill-opacity="1.000000" fill-rule="nonzero"/>
	<path id="Vector" d="M20.7 80.87L24.34 78.99L24.97 79.56L23.45 83.37L22.62 82.62L22.96 81.9L22.2 81.22L21.53 81.62L20.7 80.87ZM23.92 80.09L22.79 80.8L23.31 81.27L23.92 80.09Z" fill="#1B3764" fill-opacity="1.000000" fill-rule="nonzero"/>
	<path id="Vector" d="M28.02 84.39L26.99 85.97L26.11 85.4L28.2 82.18L28.89 82.63L29.12 85.1L30.18 83.46L31.06 84.04L28.97 87.26L28.27 86.8L28.02 84.39Z" fill="#1B3764" fill-opacity="1.000000" fill-rule="nonzero"/>
	<path id="Vector" d="M36.08 90.62L37.3 86.97L39.8 87.81L39.5 88.68L38.01 88.18L37.8 88.78L39.02 89.19L38.75 90L37.53 89.59L37.08 90.95L36.08 90.62Z" fill="#1B3764" fill-opacity="1.000000" fill-rule="nonzero"/>
	<path id="Vector" d="M41.91 92.3L42.57 88.52L44.31 88.82C44.49 88.85 44.66 88.92 44.8 89.02C44.94 89.13 45.06 89.25 45.15 89.39C45.24 89.53 45.3 89.69 45.34 89.86C45.38 90.03 45.38 90.19 45.35 90.35C45.32 90.57 45.23 90.77 45.1 90.94C44.97 91.12 44.81 91.25 44.62 91.34L45.23 92.88L44.06 92.68L43.54 91.39L43.15 91.32L42.95 92.48L41.91 92.3ZM43.31 90.41L43.96 90.53C44.03 90.54 44.09 90.51 44.16 90.45C44.23 90.39 44.27 90.3 44.29 90.17C44.32 90.03 44.3 89.93 44.25 89.85C44.2 89.76 44.14 89.72 44.08 89.71L43.45 89.6L43.31 90.41Z" fill="#1B3764" fill-opacity="1.000000" fill-rule="nonzero"/>
	<path id="Vector" d="M48.24 93.16L49.74 89.35L50.59 89.36L51.95 93.23L50.84 93.21L50.62 92.45L49.6 92.44L49.36 93.18L48.24 93.16ZM50.14 90.45L49.76 91.73L50.46 91.75L50.14 90.45Z" fill="#1B3764" fill-opacity="1.000000" fill-rule="nonzero"/>
	<path id="Vector" d="M56.07 90.98L56.34 92.85L55.29 93L54.74 89.2L55.55 89.08L57.36 90.79L57.08 88.86L58.12 88.71L58.68 92.51L57.85 92.63L56.07 90.98Z" fill="#1B3764" fill-opacity="1.000000" fill-rule="nonzero"/>
	<path id="Vector" d="M61.52 89.85C61.45 89.63 61.42 89.39 61.43 89.15C61.45 88.91 61.5 88.68 61.6 88.46C61.69 88.24 61.83 88.04 62.02 87.86C62.21 87.69 62.44 87.56 62.71 87.47C63.04 87.36 63.35 87.35 63.64 87.41C63.93 87.48 64.17 87.62 64.36 87.82L63.77 88.61C63.71 88.53 63.65 88.47 63.58 88.43C63.51 88.39 63.44 88.36 63.37 88.34C63.3 88.33 63.23 88.32 63.16 88.33C63.09 88.34 63.03 88.35 62.97 88.37C62.85 88.41 62.75 88.47 62.67 88.56C62.6 88.64 62.55 88.74 62.52 88.85C62.48 88.96 62.48 89.08 62.48 89.21C62.49 89.33 62.52 89.45 62.55 89.56C62.59 89.69 62.65 89.81 62.72 89.91C62.79 90.02 62.87 90.11 62.96 90.17C63.05 90.24 63.15 90.29 63.26 90.32C63.37 90.34 63.48 90.33 63.6 90.3C63.65 90.28 63.72 90.25 63.77 90.21C63.83 90.18 63.88 90.13 63.93 90.08C63.97 90.03 64.01 89.96 64.04 89.89C64.06 89.82 64.08 89.74 64.08 89.65L65.06 89.88C65.05 90.03 65.01 90.18 64.93 90.32C64.86 90.46 64.77 90.58 64.66 90.7C64.55 90.81 64.43 90.91 64.29 91C64.15 91.08 64.01 91.15 63.86 91.2C63.61 91.28 63.35 91.3 63.11 91.26C62.86 91.22 62.63 91.13 62.42 91C62.21 90.87 62.03 90.7 61.87 90.51C61.71 90.31 61.6 90.08 61.52 89.85Z" fill="#1B3764" fill-opacity="1.000000" fill-rule="nonzero"/>
	<path id="Vector" d="M68.46 89.38L66.82 85.9L67.78 85.45L69.41 88.93L68.46 89.38Z" fill="#1B3764" fill-opacity="1.000000" fill-rule="nonzero"/>
	<path id="Vector" d="M73.2 83.78C73.08 83.79 72.95 83.8 72.82 83.82C72.72 83.83 72.61 83.86 72.48 83.89C72.36 83.92 72.25 83.97 72.16 84.03C72.08 84.08 72.02 84.13 71.99 84.19C71.96 84.24 71.96 84.3 72 84.36C72.03 84.4 72.06 84.43 72.11 84.44C72.15 84.44 72.21 84.44 72.27 84.44C72.34 84.42 72.41 84.41 72.5 84.38C72.59 84.36 72.69 84.33 72.81 84.3C72.99 84.25 73.15 84.21 73.31 84.19C73.46 84.17 73.61 84.17 73.74 84.19C73.87 84.21 74 84.26 74.11 84.34C74.22 84.41 74.33 84.53 74.42 84.68C74.55 84.87 74.62 85.06 74.63 85.24C74.64 85.42 74.62 85.58 74.55 85.74C74.48 85.89 74.39 86.03 74.26 86.16C74.14 86.29 74 86.4 73.85 86.5C73.73 86.58 73.6 86.65 73.47 86.71C73.33 86.77 73.19 86.82 73.05 86.86C72.9 86.91 72.76 86.94 72.61 86.97C72.47 87 72.33 87.02 72.2 87.02L72.08 86C72.23 86 72.38 85.98 72.53 85.96C72.65 85.95 72.79 85.92 72.94 85.88C73.08 85.83 73.22 85.77 73.35 85.69C73.44 85.63 73.5 85.57 73.53 85.52C73.55 85.47 73.55 85.42 73.52 85.38C73.49 85.34 73.44 85.31 73.39 85.3C73.33 85.29 73.26 85.3 73.18 85.32C73.1 85.34 73 85.36 72.9 85.39C72.8 85.42 72.69 85.45 72.57 85.48C72.39 85.52 72.24 85.55 72.1 85.56C71.96 85.56 71.83 85.56 71.72 85.53C71.61 85.5 71.51 85.45 71.42 85.38C71.33 85.31 71.24 85.21 71.17 85.09C71.05 84.91 70.98 84.74 70.96 84.55C70.94 84.37 70.96 84.21 71.01 84.04C71.07 83.88 71.15 83.73 71.26 83.59C71.38 83.45 71.52 83.33 71.68 83.23C71.79 83.15 71.92 83.09 72.05 83.04C72.17 82.99 72.3 82.95 72.43 82.92C72.55 82.88 72.68 82.86 72.8 82.84C72.91 82.83 73.02 82.81 73.12 82.8L73.2 83.78Z" fill="#1B3764" fill-opacity="1.000000" fill-rule="nonzero"/>
	<path id="Vector" d="M76.42 82.22C76.26 82.05 76.14 81.85 76.06 81.62C75.97 81.39 75.93 81.16 75.93 80.92C75.93 80.68 75.98 80.44 76.08 80.21C76.17 79.97 76.34 79.76 76.56 79.57C76.82 79.34 77.09 79.2 77.38 79.15C77.67 79.1 77.95 79.12 78.21 79.23L77.98 80.2C77.89 80.15 77.81 80.12 77.73 80.11C77.65 80.09 77.57 80.09 77.5 80.11C77.43 80.12 77.37 80.14 77.31 80.18C77.24 80.21 77.19 80.25 77.15 80.29C77.05 80.38 76.98 80.47 76.95 80.58C76.92 80.68 76.91 80.8 76.92 80.91C76.94 81.02 76.98 81.14 77.03 81.25C77.09 81.36 77.16 81.46 77.24 81.55C77.33 81.65 77.42 81.73 77.53 81.8C77.63 81.87 77.74 81.92 77.86 81.95C77.97 81.98 78.08 81.98 78.19 81.96C78.3 81.94 78.4 81.88 78.49 81.8C78.53 81.76 78.58 81.71 78.61 81.66C78.65 81.6 78.68 81.54 78.7 81.48C78.72 81.41 78.73 81.34 78.73 81.26C78.72 81.18 78.71 81.1 78.67 81.02L79.66 80.84C79.71 80.98 79.73 81.13 79.72 81.29C79.71 81.44 79.68 81.6 79.62 81.75C79.57 81.9 79.49 82.04 79.4 82.17C79.31 82.31 79.2 82.42 79.09 82.52C78.89 82.7 78.67 82.82 78.42 82.88C78.18 82.94 77.94 82.95 77.69 82.92C77.45 82.88 77.22 82.81 76.99 82.69C76.77 82.56 76.58 82.41 76.42 82.22Z" fill="#1B3764" fill-opacity="1.000000" fill-rule="nonzero"/>
	<path id="Vector" d="M83.68 77.82C83.5 78.03 83.3 78.18 83.07 78.28C82.84 78.38 82.61 78.44 82.36 78.44C82.12 78.45 81.88 78.41 81.64 78.33C81.41 78.25 81.19 78.13 81 77.97C80.81 77.8 80.65 77.61 80.53 77.39C80.41 77.17 80.33 76.94 80.3 76.7C80.27 76.46 80.28 76.22 80.35 75.97C80.41 75.73 80.53 75.51 80.7 75.3C80.87 75.09 81.08 74.94 81.31 74.83C81.54 74.73 81.77 74.68 82.02 74.67C82.26 74.67 82.5 74.7 82.74 74.79C82.98 74.87 83.19 74.99 83.38 75.15C83.57 75.31 83.73 75.5 83.85 75.72C83.97 75.94 84.04 76.17 84.08 76.41C84.11 76.65 84.09 76.89 84.03 77.14C83.97 77.38 83.85 77.61 83.68 77.82ZM81.7 77.15C81.8 77.24 81.9 77.31 82.02 77.36C82.13 77.41 82.24 77.44 82.36 77.46C82.47 77.47 82.58 77.45 82.69 77.42C82.8 77.38 82.89 77.31 82.97 77.21C83.06 77.11 83.11 77 83.13 76.88C83.14 76.77 83.14 76.66 83.1 76.55C83.07 76.44 83.01 76.34 82.94 76.24C82.87 76.13 82.78 76.04 82.69 75.96C82.58 75.88 82.48 75.81 82.37 75.76C82.25 75.71 82.14 75.67 82.03 75.66C81.92 75.65 81.81 75.67 81.71 75.71C81.6 75.75 81.51 75.82 81.42 75.92C81.34 76.02 81.28 76.13 81.27 76.24C81.25 76.35 81.26 76.45 81.29 76.56C81.32 76.67 81.38 76.78 81.45 76.88C81.52 76.98 81.6 77.07 81.7 77.15Z" fill="#1B3764" fill-opacity="1.000000" fill-rule="nonzero"/>
	<path id="Vector" d="M14.85 34.06C14.91 33.95 14.92 33.84 14.91 33.74C14.89 33.63 14.85 33.54 14.79 33.45C14.73 33.36 14.65 33.28 14.55 33.21C14.46 33.14 14.35 33.07 14.23 33.02L12.37 32.2L12.81 31.21L14.67 32.03C14.92 32.14 15.14 32.28 15.33 32.44C15.52 32.6 15.66 32.78 15.76 32.99C15.86 33.2 15.91 33.42 15.91 33.67C15.91 33.91 15.85 34.17 15.73 34.45C15.6 34.74 15.45 34.97 15.26 35.13C15.07 35.29 14.87 35.4 14.65 35.46C14.43 35.52 14.19 35.53 13.95 35.5C13.71 35.47 13.47 35.4 13.23 35.29L11.37 34.47L11.81 33.48L13.67 34.3C13.78 34.35 13.91 34.39 14.03 34.42C14.15 34.44 14.26 34.44 14.37 34.43C14.47 34.42 14.57 34.38 14.65 34.32C14.74 34.27 14.8 34.18 14.85 34.06Z" fill="#1B3764" fill-opacity="1.000000" fill-rule="nonzero"/>
	<path id="Vector" d="M18 29.98L14.74 27.77L15.75 26.27C15.86 26.11 15.99 25.99 16.15 25.89C16.3 25.81 16.47 25.74 16.64 25.72C16.81 25.7 16.98 25.7 17.16 25.74C17.33 25.77 17.49 25.84 17.63 25.93C17.82 26.06 17.97 26.22 18.08 26.41C18.19 26.61 18.24 26.81 18.25 27.03L19.95 27.1L19.26 28.12L17.84 28.06L17.61 28.39L18.62 29.07L18 29.98ZM16.83 27.87L17.21 27.3C17.24 27.25 17.25 27.18 17.22 27.09C17.19 27 17.12 26.92 17.01 26.84C16.89 26.77 16.79 26.73 16.69 26.75C16.59 26.77 16.53 26.8 16.49 26.85L16.12 27.4L16.83 27.87Z" fill="#1B3764" fill-opacity="1.000000" fill-rule="nonzero"/>
	<path id="Vector" d="M23.42 21.7C23.55 21.82 23.63 21.96 23.68 22.1C23.72 22.24 23.72 22.39 23.69 22.54C23.66 22.69 23.6 22.84 23.51 22.99C23.42 23.14 23.31 23.28 23.18 23.42L21.83 24.82L18.99 22.08L20.57 20.43C20.67 20.34 20.78 20.27 20.9 20.23C21.02 20.19 21.14 20.17 21.26 20.18C21.38 20.19 21.5 20.22 21.62 20.28C21.73 20.33 21.83 20.4 21.93 20.49C22.06 20.62 22.16 20.77 22.21 20.96C22.27 21.14 22.26 21.33 22.19 21.53C22.39 21.41 22.6 21.36 22.81 21.38C23.02 21.4 23.22 21.51 23.42 21.7ZM20.4 21.94L20.83 22.37L21.34 21.84C21.4 21.78 21.43 21.72 21.44 21.64C21.45 21.57 21.42 21.49 21.33 21.41C21.25 21.34 21.18 21.3 21.11 21.3C21.04 21.31 20.98 21.34 20.93 21.39L20.4 21.94ZM22.5 22.34C22.43 22.27 22.35 22.24 22.27 22.23C22.19 22.22 22.12 22.24 22.06 22.31L21.44 22.95L21.92 23.41L22.51 22.79C22.57 22.73 22.6 22.65 22.61 22.57C22.61 22.49 22.58 22.41 22.5 22.34Z" fill="#1B3764" fill-opacity="1.000000" fill-rule="nonzero"/>
	<path id="Vector" d="M26.12 20.66L24.96 16.61L25.66 16.09L29.19 18.38L28.27 19.06L27.62 18.58L26.77 19.21L27.05 19.96L26.12 20.66ZM25.98 17.25L26.47 18.53L27.05 18.11L25.98 17.25Z" fill="#1B3764" fill-opacity="1.000000" fill-rule="nonzero"/>
	<path id="Vector" d="M31.79 14.65L32.65 16.39L31.68 16.87L29.92 13.34L30.68 12.96L32.99 14.05L32.09 12.26L33.06 11.77L34.82 15.31L34.05 15.69L31.79 14.65Z" fill="#1B3764" fill-opacity="1.000000" fill-rule="nonzero"/>
	<path id="Vector" d="M44.79 11.47C44.83 11.64 44.81 11.8 44.76 11.94C44.72 12.08 44.63 12.2 44.52 12.3C44.4 12.41 44.27 12.5 44.1 12.56C43.94 12.63 43.76 12.69 43.58 12.72L41.67 13.06L40.97 9.18L43.22 8.78C43.35 8.75 43.48 8.76 43.6 8.8C43.72 8.83 43.83 8.89 43.92 8.97C44.01 9.06 44.09 9.15 44.16 9.26C44.22 9.37 44.26 9.48 44.29 9.61C44.32 9.79 44.3 9.97 44.24 10.16C44.18 10.34 44.06 10.49 43.89 10.61C44.12 10.63 44.32 10.72 44.48 10.85C44.64 10.99 44.74 11.2 44.79 11.47ZM42.2 9.89L42.31 10.49L43.03 10.36C43.11 10.35 43.17 10.32 43.22 10.26C43.28 10.21 43.29 10.12 43.27 10.01C43.25 9.9 43.22 9.83 43.16 9.79C43.09 9.76 43.03 9.74 42.96 9.76L42.2 9.89ZM43.67 11.45C43.65 11.35 43.61 11.28 43.55 11.22C43.49 11.17 43.42 11.15 43.34 11.16L42.46 11.32L42.58 11.97L43.42 11.82C43.51 11.81 43.58 11.77 43.63 11.7C43.67 11.63 43.69 11.55 43.67 11.45Z" fill="#1B3764" fill-opacity="1.000000" fill-rule="nonzero"/>
	<path id="Vector" d="M49.72 12.22C49.44 12.22 49.18 12.17 48.95 12.05C48.72 11.94 48.52 11.79 48.35 11.6C48.19 11.42 48.06 11.2 47.97 10.96C47.88 10.72 47.83 10.47 47.83 10.22C47.83 9.96 47.88 9.71 47.97 9.47C48.06 9.23 48.2 9.01 48.37 8.83C48.54 8.65 48.74 8.5 48.97 8.39C49.2 8.28 49.45 8.22 49.73 8.22C50.01 8.22 50.27 8.28 50.5 8.39C50.73 8.51 50.93 8.66 51.09 8.85C51.26 9.03 51.39 9.25 51.48 9.49C51.57 9.73 51.61 9.98 51.62 10.23C51.62 10.49 51.57 10.74 51.48 10.98C51.39 11.22 51.26 11.43 51.09 11.62C50.92 11.8 50.72 11.95 50.49 12.06C50.25 12.17 50 12.22 49.72 12.22ZM48.93 10.23C48.93 10.36 48.95 10.49 48.98 10.61C49.01 10.73 49.06 10.85 49.13 10.94C49.2 11.04 49.28 11.11 49.38 11.17C49.48 11.23 49.6 11.26 49.73 11.26C49.87 11.26 49.98 11.23 50.08 11.17C50.19 11.11 50.27 11.02 50.33 10.93C50.39 10.83 50.44 10.72 50.47 10.59C50.5 10.47 50.51 10.34 50.51 10.21C50.51 10.07 50.5 9.94 50.46 9.82C50.43 9.7 50.38 9.59 50.31 9.49C50.25 9.4 50.16 9.32 50.06 9.27C49.96 9.21 49.85 9.18 49.71 9.18C49.57 9.18 49.46 9.21 49.36 9.27C49.26 9.33 49.18 9.41 49.12 9.51C49.05 9.61 49 9.72 48.97 9.84C48.94 9.97 48.93 10.1 48.93 10.23Z" fill="#1B3764" fill-opacity="1.000000" fill-rule="nonzero"/>
	<path id="Vector" d="M56.34 12.78C56.06 12.73 55.82 12.63 55.61 12.48C55.4 12.32 55.23 12.14 55.1 11.93C54.97 11.72 54.88 11.49 54.83 11.23C54.79 10.98 54.79 10.73 54.83 10.48C54.87 10.22 54.96 9.98 55.1 9.76C55.23 9.54 55.4 9.36 55.6 9.2C55.8 9.05 56.02 8.95 56.27 8.88C56.52 8.81 56.77 8.8 57.05 8.85C57.33 8.9 57.57 9 57.78 9.15C57.99 9.31 58.16 9.49 58.29 9.7C58.42 9.92 58.5 10.15 58.55 10.4C58.59 10.66 58.6 10.91 58.55 11.15C58.51 11.41 58.42 11.65 58.29 11.87C58.15 12.09 57.99 12.27 57.79 12.42C57.6 12.57 57.37 12.69 57.12 12.75C56.87 12.82 56.61 12.83 56.34 12.78ZM55.91 10.68C55.89 10.81 55.88 10.94 55.89 11.07C55.9 11.19 55.93 11.31 55.98 11.42C56.03 11.53 56.1 11.62 56.19 11.69C56.28 11.77 56.39 11.82 56.52 11.84C56.65 11.87 56.77 11.85 56.88 11.81C56.99 11.77 57.08 11.7 57.16 11.62C57.25 11.53 57.31 11.43 57.36 11.31C57.41 11.19 57.45 11.07 57.48 10.94C57.5 10.81 57.5 10.68 57.49 10.55C57.48 10.42 57.45 10.31 57.4 10.21C57.35 10.1 57.29 10.01 57.2 9.94C57.11 9.87 57 9.82 56.87 9.79C56.74 9.77 56.62 9.78 56.51 9.82C56.4 9.86 56.3 9.93 56.22 10.01C56.14 10.1 56.08 10.2 56.03 10.31C55.97 10.43 55.93 10.55 55.91 10.68Z" fill="#1B3764" fill-opacity="1.000000" fill-rule="nonzero"/>
	<path id="Vector" d="M61.18 13.9L62.52 10.19L63.54 10.56L62.99 12.07L64.77 11L65.82 11.38L63.87 12.56L64.57 15.13L63.5 14.74L63.06 12.91L62.59 13.17L62.19 14.27L61.18 13.9Z" fill="#1B3764" fill-opacity="1.000000" fill-rule="nonzero"/>
	<path id="Vector" d="M70.47 15.21C70.4 15.09 70.33 14.99 70.25 14.88C70.19 14.79 70.11 14.7 70.02 14.61C69.93 14.51 69.84 14.44 69.74 14.37C69.65 14.33 69.58 14.3 69.51 14.3C69.45 14.3 69.4 14.33 69.36 14.39C69.34 14.44 69.33 14.48 69.34 14.52C69.36 14.57 69.38 14.62 69.42 14.67C69.46 14.73 69.52 14.79 69.59 14.86C69.65 14.93 69.73 15 69.81 15.09C69.94 15.23 70.05 15.36 70.15 15.49C70.24 15.62 70.31 15.75 70.36 15.88C70.4 16.01 70.42 16.15 70.4 16.29C70.38 16.43 70.33 16.58 70.24 16.74C70.12 16.95 69.99 17.1 69.83 17.2C69.68 17.3 69.51 17.35 69.34 17.37C69.17 17.38 69 17.36 68.82 17.31C68.64 17.26 68.48 17.19 68.32 17.1C68.19 17.03 68.07 16.94 67.95 16.85C67.82 16.76 67.71 16.66 67.6 16.55C67.49 16.44 67.38 16.32 67.29 16.21C67.2 16.09 67.12 15.97 67.05 15.85L67.92 15.25C67.99 15.39 68.08 15.52 68.17 15.64C68.25 15.75 68.34 15.86 68.44 15.97C68.55 16.08 68.67 16.18 68.81 16.25C68.91 16.31 68.99 16.34 69.05 16.34C69.1 16.33 69.14 16.31 69.17 16.26C69.2 16.21 69.2 16.16 69.18 16.11C69.16 16.05 69.12 15.99 69.06 15.92C69 15.86 68.94 15.78 68.86 15.71C68.78 15.63 68.7 15.55 68.62 15.45C68.5 15.31 68.4 15.18 68.32 15.06C68.25 14.94 68.19 14.82 68.17 14.7C68.14 14.59 68.14 14.47 68.16 14.35C68.18 14.24 68.22 14.12 68.29 13.99C68.4 13.8 68.53 13.66 68.68 13.55C68.83 13.44 69 13.37 69.17 13.35C69.35 13.32 69.53 13.32 69.71 13.36C69.89 13.39 70.06 13.46 70.23 13.56C70.36 13.63 70.48 13.71 70.58 13.8C70.69 13.89 70.79 13.99 70.88 14.09C70.97 14.19 71.05 14.29 71.12 14.38C71.2 14.48 71.26 14.57 71.31 14.65L70.47 15.21Z" fill="#1B3764" fill-opacity="1.000000" fill-rule="nonzero"/>
	<path id="Vector" d="M76.49 19.14L75.6 18.43L73.72 20.77L72.88 20.09L74.76 17.75L73.87 17.04L74.46 16.3L77.08 18.41L76.49 19.14Z" fill="#1B3764" fill-opacity="1.000000" fill-rule="nonzero"/>
	<path id="Vector" d="M77.8 24.78C77.62 24.57 77.49 24.34 77.42 24.09C77.35 23.84 77.33 23.59 77.36 23.34C77.39 23.09 77.46 22.86 77.58 22.63C77.7 22.4 77.85 22.2 78.05 22.03C78.24 21.85 78.46 21.73 78.7 21.63C78.94 21.54 79.19 21.5 79.44 21.5C79.69 21.51 79.93 21.56 80.17 21.66C80.4 21.76 80.61 21.91 80.8 22.11C80.98 22.32 81.11 22.55 81.18 22.8C81.25 23.05 81.27 23.3 81.24 23.55C81.21 23.8 81.13 24.03 81.01 24.26C80.89 24.49 80.74 24.69 80.55 24.85C80.36 25.03 80.14 25.16 79.9 25.25C79.66 25.34 79.41 25.38 79.16 25.38C78.92 25.38 78.67 25.32 78.44 25.22C78.2 25.14 77.99 24.98 77.8 24.78ZM78.77 22.86C78.67 22.95 78.59 23.05 78.52 23.15C78.44 23.26 78.4 23.37 78.37 23.48C78.34 23.6 78.34 23.71 78.36 23.82C78.38 23.94 78.44 24.05 78.53 24.14C78.61 24.25 78.72 24.31 78.83 24.35C78.94 24.38 79.06 24.39 79.17 24.37C79.28 24.35 79.4 24.31 79.51 24.25C79.63 24.19 79.73 24.12 79.83 24.03C79.93 23.95 80.01 23.85 80.08 23.74C80.15 23.63 80.2 23.52 80.23 23.41C80.26 23.3 80.26 23.19 80.24 23.07C80.21 22.96 80.15 22.86 80.06 22.75C79.97 22.65 79.87 22.58 79.76 22.55C79.65 22.52 79.54 22.51 79.42 22.53C79.3 22.54 79.19 22.58 79.08 22.64C78.97 22.7 78.87 22.77 78.77 22.86Z" fill="#1B3764" fill-opacity="1.000000" fill-rule="nonzero"/>
	<path id="Vector" d="M80.91 28.67L84.27 26.61L85.22 28.15C85.32 28.31 85.38 28.49 85.4 28.67C85.42 28.85 85.4 29.02 85.36 29.19C85.31 29.36 85.23 29.51 85.12 29.66C85.02 29.8 84.89 29.91 84.75 30C84.56 30.12 84.35 30.19 84.13 30.21C83.91 30.22 83.69 30.19 83.5 30.11L82.73 31.62L82.09 30.58L82.73 29.31L82.52 28.97L81.48 29.6L80.91 28.67ZM83.31 28.47L83.67 29.05C83.71 29.11 83.77 29.14 83.87 29.15C83.96 29.16 84.06 29.13 84.18 29.06C84.29 28.99 84.36 28.91 84.39 28.81C84.42 28.72 84.42 28.64 84.38 28.59L84.04 28.03L83.31 28.47Z" fill="#1B3764" fill-opacity="1.000000" fill-rule="nonzero"/>
	<path id="Vector" d="M85.95 36.54L85.08 36.9L84.02 34.29L87.68 32.81L88.72 35.37L87.84 35.72L87.21 34.17L86.69 34.38L87.23 35.71L86.42 36.04L85.88 34.71L85.3 34.94L85.95 36.54Z" fill="#1B3764" fill-opacity="1.000000" fill-rule="nonzero"/>
	<path id="Vector" d="M65.8 50.23C65.77 50.11 65.63 49.98 65.48 50.03C64.03 50.51 62.58 50.31 61.16 50.12C60.81 50.07 60.45 50.02 60.11 49.98C59.35 49.9 58.35 49.84 57.35 50.04C56.31 50.25 55.27 50.76 54.05 51.64C53.77 51.84 53.49 52.05 53.21 52.28C53.61 50.51 54.01 48.74 54.48 46.98L54.55 46.88C55.34 46.47 56.15 46.31 57.07 46.16C58 46 58.92 45.83 59.85 45.43C61.43 44.74 63.02 43.53 64.85 41.62C65.74 40.69 66.58 39.72 67.36 38.8C67.44 38.7 67.46 38.56 67.4 38.47C67.33 38.37 67.16 38.3 67.01 38.41C65.6 39.49 64.01 39.93 62.46 40.35C62.08 40.46 61.69 40.56 61.31 40.68C60.49 40.92 59.41 41.29 58.4 41.92C57.37 42.56 56.39 43.5 55.34 44.87C55.19 45.06 55.05 45.25 54.91 45.44C55.57 43.22 56.39 41.04 57.5 39.01C57.55 38.92 57.6 38.84 57.65 38.75C57.69 38.69 57.73 38.63 57.8 38.59L57.8 38.58C58.49 37.94 59.31 37.52 60.22 37.07C61.16 36.61 62.08 36.15 62.92 35.46C64.36 34.29 65.63 32.63 66.92 30.23C67.55 29.07 68.1 27.88 68.62 26.77C68.67 26.64 68.65 26.51 68.55 26.44C68.45 26.37 68.25 26.37 68.13 26.51C67.01 28 65.47 28.94 63.97 29.85C63.6 30.07 63.23 30.3 62.86 30.53C62.07 31.04 61.06 31.74 60.21 32.66C59.33 33.61 58.62 34.82 57.97 36.45C57.73 37.03 57.51 37.64 57.31 38.26C57.29 38.29 57.28 38.31 57.26 38.33C57.26 38.33 57.26 38.33 57.26 38.34C57.22 38.38 57.19 38.43 57.18 38.48C56.73 39.26 56.33 40.07 55.97 40.89C55.98 40.82 55.98 40.75 55.99 40.68C56.13 38.96 56.05 37.61 55.72 36.43C55.4 35.29 54.85 34.29 54.41 33.56C54.21 33.22 53.99 32.87 53.78 32.54C52.92 31.18 52.03 29.79 51.73 28.03C51.69 27.86 51.52 27.79 51.4 27.82C51.28 27.85 51.2 27.96 51.2 28.09C51.16 29.3 51.12 30.58 51.15 31.86C51.22 34.51 51.58 36.47 52.29 38.05C52.7 38.97 53.26 39.72 53.85 40.47C54.42 41.19 54.93 41.86 55.23 42.69L55.22 42.76C54.92 43.58 54.65 44.4 54.4 45.23C54.16 46.03 53.94 46.83 53.73 47.63C53.71 47.48 53.68 47.34 53.65 47.19C53.39 45.79 52.98 44.74 52.36 43.87C51.77 43.03 50.98 42.35 50.36 41.85C50.07 41.62 49.77 41.39 49.47 41.17C48.28 40.26 47.05 39.33 46.32 38.01C46.25 37.88 46.07 37.86 45.96 37.9C45.9 37.92 45.86 37.97 45.83 38.02C45.81 38.07 45.8 38.14 45.81 38.19C46.06 39.15 46.33 40.17 46.67 41.19C47.37 43.27 48.21 44.76 49.29 45.87C49.93 46.51 50.68 46.99 51.45 47.47C52.2 47.93 52.86 48.37 53.37 48.96L53.38 49.06C53.06 50.37 52.77 51.68 52.47 52.99C52.32 53.65 52.16 54.32 52 54.98C52 54.97 52 54.95 51.99 54.94C51.78 53.76 51.45 52.87 50.95 52.14C50.47 51.43 49.82 50.87 49.31 50.45C49.07 50.26 48.83 50.07 48.59 49.89L48.58 49.88C47.61 49.13 46.6 48.35 46.02 47.25C45.95 47.13 45.79 47.11 45.7 47.15C45.6 47.2 45.54 47.31 45.56 47.42C45.76 48.23 45.97 49.09 46.24 49.94C46.81 51.69 47.48 52.94 48.37 53.87C48.89 54.41 49.51 54.81 50.14 55.21C50.72 55.57 51.24 55.91 51.64 56.37C51.26 57.82 50.83 59.27 50.3 60.68C49.51 62.82 48.5 64.87 47.2 66.71C45.95 68.47 44.42 70.01 42.69 71.11C42.46 71.25 42.23 71.38 42 71.51C41.88 71.58 41.88 71.73 41.96 71.81C42.06 71.91 42.24 71.91 42.36 71.84C44.17 70.83 45.79 69.38 47.14 67.65C48.48 65.93 49.56 63.98 50.41 61.94C51.43 59.45 52.13 56.85 52.75 54.25C52.84 53.9 52.92 53.54 53.01 53.19C53.74 53.12 54.45 53.28 55.23 53.48C56.07 53.69 56.89 53.87 57.77 53.84C59.28 53.8 60.91 53.28 62.91 52.2C63.88 51.67 64.82 51.08 65.69 50.53C65.78 50.47 65.83 50.35 65.8 50.23ZM62.46 43.14C61.61 43.84 60.77 44.4 59.96 44.78C59 45.24 58.05 45.44 57.24 45.57L57.1 45.6C56.67 45.67 56.2 45.75 55.72 45.87C56.85 45.08 58.08 44.59 59.25 44.16L59.64 44.02C60.34 43.77 61.05 43.51 61.76 43.19C62.37 42.92 62.93 42.61 63.45 42.27C63.12 42.58 62.79 42.87 62.46 43.14ZM58.4 42.56C59.72 41.66 61.19 41.26 62.61 40.87C63.11 40.73 63.63 40.59 64.13 40.43C64.59 40.29 65.01 40.13 65.4 39.96C64.98 40.36 64.59 40.72 64.19 41.05C63.45 41.66 62.65 42.18 61.79 42.58C61.03 42.94 60.24 43.22 59.48 43.5C58.62 43.81 57.73 44.14 56.87 44.57C56.47 44.76 56.1 44.98 55.75 45.2C56.41 44.35 57.32 43.3 58.4 42.56ZM64.93 32.45C64.27 33.39 63.56 34.19 62.84 34.83C61.98 35.57 61.04 36.08 60.24 36.47L60.1 36.54C59.65 36.75 59.16 36.99 58.69 37.27C59.62 36.15 60.76 35.27 61.86 34.48C61.97 34.4 62.09 34.32 62.2 34.24L62.23 34.22C62.88 33.75 63.55 33.27 64.19 32.73C64.77 32.25 65.28 31.75 65.74 31.22C65.47 31.66 65.2 32.07 64.93 32.45ZM60.4 33.27C61.5 31.98 62.92 31.12 64.29 30.28C64.77 29.99 65.27 29.68 65.75 29.36C66.21 29.06 66.61 28.76 66.97 28.47C66.66 28.99 66.36 29.47 66.04 29.92C65.47 30.74 64.79 31.49 64.03 32.15C63.34 32.73 62.61 33.27 61.89 33.78C61.09 34.36 60.25 34.96 59.49 35.65C59.12 35.98 58.78 36.32 58.48 36.66C58.89 35.64 59.5 34.33 60.4 33.27ZM54.2 40.03L54.11 39.92C53.61 39.28 53.04 38.49 52.64 37.51C52.31 36.68 52.06 35.7 51.9 34.6C51.84 34.19 51.79 33.76 51.76 33.3C51.91 33.91 52.12 34.51 52.38 35.12C52.69 35.83 53.04 36.51 53.39 37.16L53.58 37.53C54.16 38.63 54.74 39.82 55.04 41.16C54.77 40.75 54.47 40.37 54.2 40.03ZM55.07 39.42C54.72 38.52 54.29 37.69 53.86 36.88C53.48 36.16 53.1 35.41 52.78 34.63C52.42 33.76 52.17 32.84 52.03 31.89C51.96 31.38 51.91 30.85 51.88 30.27C52.05 30.66 52.25 31.06 52.49 31.47C52.75 31.93 53.04 32.39 53.32 32.83C54.11 34.07 54.93 35.35 55.3 36.92C55.6 38.19 55.56 39.58 55.47 40.65C55.36 40.25 55.23 39.84 55.07 39.42ZM51.68 47.02L51.56 46.95C50.9 46.54 50.14 46.02 49.5 45.32C48.96 44.73 48.48 44.01 48.06 43.17C47.91 42.88 47.77 42.57 47.63 42.24C47.93 42.68 48.28 43.1 48.68 43.52C49.16 44.02 49.68 44.49 50.18 44.95L50.47 45.2C51.29 45.95 52.14 46.75 52.76 47.73C52.4 47.47 52.03 47.23 51.68 47.02ZM52.41 46.37C51.85 45.72 51.21 45.15 50.58 44.59C50.03 44.09 49.46 43.58 48.95 43.03C48.38 42.41 47.91 41.73 47.55 41C47.36 40.62 47.19 40.23 47.02 39.8C47.29 40.07 47.58 40.34 47.92 40.62C48.3 40.94 48.7 41.24 49.08 41.53C50.18 42.36 51.3 43.22 52.05 44.38C52.65 45.32 52.95 46.41 53.11 47.26C52.91 46.96 52.68 46.67 52.41 46.37ZM50.35 54.8L50.25 54.74C49.71 54.4 49.09 53.97 48.57 53.39C48.13 52.9 47.74 52.29 47.4 51.59C47.3 51.39 47.21 51.18 47.12 50.96C47.34 51.28 47.59 51.6 47.88 51.91C48.27 52.33 48.7 52.72 49.11 53.1L49.34 53.31C50 53.91 50.67 54.55 51.17 55.34C50.9 55.14 50.61 54.96 50.35 54.8ZM50.97 54.25C50.51 53.71 49.98 53.23 49.47 52.76C49.02 52.35 48.55 51.92 48.14 51.46C47.67 50.94 47.29 50.37 47 49.76C46.86 49.47 46.73 49.16 46.6 48.84C46.8 49.04 47.03 49.25 47.28 49.46C47.59 49.72 47.92 49.98 48.23 50.22C49.13 50.91 50.05 51.62 50.66 52.6C51.12 53.35 51.35 54.22 51.49 54.93C51.33 54.7 51.16 54.48 50.97 54.25ZM60.52 52.71C59.63 53.04 58.79 53.23 58.01 53.29C57.09 53.35 56.24 53.18 55.53 53L55.4 52.97C55.02 52.88 54.61 52.77 54.18 52.7C55.31 52.4 56.45 52.41 57.54 52.45C57.66 52.46 57.78 52.46 57.9 52.47L57.91 52.47C58.56 52.5 59.23 52.53 59.9 52.5C60.47 52.48 61.01 52.4 61.53 52.28C61.18 52.44 60.85 52.58 60.52 52.71ZM62.47 51.42C61.71 51.71 60.9 51.88 60.08 51.93C59.36 51.98 58.62 51.95 57.91 51.92C57.1 51.88 56.27 51.85 55.44 51.92C55.05 51.95 54.7 52.01 54.35 52.09C55.1 51.55 56.11 50.92 57.18 50.64C58.52 50.3 59.86 50.49 61.16 50.66C61.62 50.72 62.09 50.79 62.56 50.83C62.98 50.86 63.37 50.87 63.73 50.87C63.29 51.09 62.88 51.26 62.47 51.42Z" fill="#1B3764" fill-opacity="1.000000" fill-rule="nonzero"/>
	<path id="Vector" d="" fill="#1B3764" fill-opacity="1.000000" fill-rule="nonzero"/>
	<path id="Vector" d="M32.07 58.58C32.56 58.95 33.09 59.35 33.64 59.7C34.77 60.44 35.72 60.83 36.61 60.92C37.13 60.98 37.62 60.91 38.13 60.82C38.61 60.74 39.04 60.68 39.47 60.76C39.5 60.97 39.53 61.19 39.57 61.4C39.81 62.97 40.1 64.55 40.59 66.07C41 67.33 41.55 68.53 42.26 69.62C42.98 70.7 43.87 71.65 44.9 72.33C44.97 72.37 45.07 72.38 45.14 72.33C45.19 72.29 45.19 72.2 45.12 72.15C45 72.06 44.87 71.97 44.74 71.88C43.76 71.14 42.93 70.16 42.27 69.05C41.59 67.9 41.08 66.63 40.72 65.33C40.47 64.47 40.28 63.59 40.12 62.71C40.38 62.46 40.71 62.28 41.07 62.09C41.47 61.88 41.85 61.68 42.18 61.38C42.75 60.87 43.22 60.16 43.63 59.15C43.84 58.66 44 58.16 44.16 57.69C44.18 57.62 44.15 57.55 44.09 57.52C44.04 57.49 43.94 57.49 43.9 57.56C43.5 58.19 42.86 58.6 42.25 59L42.24 59.01C42.09 59.1 41.94 59.21 41.79 59.31C41.47 59.53 41.06 59.83 40.74 60.23C40.41 60.64 40.17 61.15 39.99 61.84C39.99 61.85 39.99 61.86 39.99 61.86C39.92 61.46 39.86 61.06 39.8 60.66C39.68 59.87 39.57 59.08 39.45 58.29L39.46 58.23C39.79 57.9 40.2 57.67 40.67 57.44C41.15 57.19 41.62 56.94 42.03 56.58C42.72 55.98 43.29 55.13 43.8 53.93C44.05 53.35 44.26 52.76 44.45 52.2C44.46 52.16 44.46 52.13 44.45 52.09C44.44 52.06 44.42 52.03 44.38 52.02C44.32 51.99 44.21 51.99 44.16 52.06C43.67 52.81 42.89 53.31 42.15 53.79C41.96 53.91 41.77 54.03 41.59 54.15C41.19 54.42 40.7 54.79 40.3 55.26C39.9 55.74 39.61 56.35 39.38 57.16C39.35 57.25 39.33 57.33 39.31 57.42C39.23 56.93 39.14 56.45 39.03 55.97C38.92 55.46 38.8 54.96 38.66 54.46L38.65 54.42C38.87 53.94 39.2 53.57 39.58 53.16C39.96 52.75 40.33 52.33 40.62 51.81C41.11 50.91 41.42 49.76 41.58 48.19C41.66 47.43 41.7 46.67 41.73 45.95C41.74 45.87 41.69 45.8 41.63 45.78C41.56 45.75 41.45 45.79 41.43 45.89C41.16 46.92 40.57 47.7 40 48.46C39.85 48.65 39.71 48.85 39.57 49.04C39.27 49.46 38.9 50.02 38.66 50.68C38.41 51.36 38.29 52.16 38.3 53.19C38.3 53.23 38.3 53.27 38.3 53.31C38.12 52.81 37.92 52.31 37.7 51.83C37.69 51.79 37.68 51.76 37.66 51.74L37.65 51.73C37.64 51.72 37.64 51.71 37.63 51.69C37.54 51.31 37.44 50.94 37.33 50.59C37.02 49.59 36.65 48.84 36.18 48.23C35.72 47.65 35.15 47.18 34.71 46.85C34.5 46.69 34.29 46.54 34.08 46.39C33.24 45.78 32.37 45.15 31.77 44.21C31.71 44.12 31.59 44.11 31.53 44.15C31.47 44.19 31.44 44.26 31.47 44.34C31.72 45.02 32 45.76 32.31 46.47C32.96 47.96 33.64 49 34.44 49.76C34.91 50.21 35.43 50.53 35.97 50.85C36.49 51.15 36.95 51.44 37.33 51.86L37.33 51.86C37.37 51.89 37.39 51.92 37.41 51.97C37.44 52.02 37.46 52.07 37.49 52.13C38.05 53.38 38.43 54.72 38.72 56.06C38.65 55.94 38.57 55.82 38.49 55.71C37.93 54.84 37.4 54.24 36.81 53.8C36.25 53.38 35.63 53.12 35.15 52.93C34.93 52.84 34.71 52.76 34.48 52.68C33.58 52.36 32.66 52.03 31.87 51.31C31.79 51.24 31.68 51.28 31.64 51.33C31.6 51.39 31.6 51.47 31.65 51.53C32.07 52.11 32.52 52.73 33.01 53.32C34 54.54 34.89 55.33 35.8 55.81C36.33 56.1 36.86 56.24 37.41 56.38C37.94 56.51 38.42 56.65 38.87 56.92L38.91 56.99C39.1 58.05 39.25 59.12 39.41 60.19C39.25 60.04 39.1 59.9 38.94 59.77C38.26 59.19 37.66 58.84 37.06 58.67C36.48 58.5 35.88 58.49 35.43 58.5C35.22 58.5 35 58.52 34.8 58.53C33.95 58.58 33.07 58.62 32.24 58.27C32.15 58.24 32.07 58.31 32.04 58.38C31.99 58.46 32.01 58.54 32.07 58.58ZM33.78 53.78C34.08 54.01 34.39 54.22 34.74 54.41C35.14 54.63 35.55 54.82 35.96 55L36.18 55.1C36.85 55.41 37.56 55.75 38.19 56.28C37.92 56.18 37.64 56.11 37.39 56.05L37.3 56.03C36.83 55.92 36.28 55.75 35.73 55.43C35.27 55.17 34.8 54.8 34.32 54.34C34.14 54.17 33.97 53.98 33.78 53.78ZM38.21 55.89C38.01 55.74 37.8 55.6 37.58 55.46C37.09 55.16 36.57 54.93 36.08 54.7C35.63 54.5 35.18 54.29 34.75 54.04C34.26 53.76 33.81 53.42 33.4 53.02C33.18 52.81 32.96 52.58 32.73 52.32C32.96 52.44 33.2 52.55 33.46 52.66C33.75 52.78 34.05 52.89 34.35 52.99C35.17 53.29 36.02 53.59 36.77 54.2C37.37 54.68 37.86 55.35 38.21 55.89ZM32.95 47.12C33.2 47.46 33.48 47.78 33.8 48.09C34.15 48.44 34.53 48.76 34.89 49.06L34.91 49.08C34.97 49.13 35.04 49.18 35.1 49.24C35.72 49.76 36.35 50.33 36.85 51.05C36.58 50.85 36.3 50.69 36.05 50.54L35.97 50.49C35.51 50.22 34.97 49.88 34.5 49.4C34.1 48.99 33.72 48.48 33.37 47.89C33.22 47.65 33.09 47.39 32.95 47.12ZM36.99 50.69C36.83 50.47 36.65 50.26 36.44 50.04C36.02 49.6 35.55 49.21 35.1 48.82C34.7 48.48 34.29 48.14 33.91 47.76C33.49 47.33 33.12 46.85 32.82 46.34C32.66 46.06 32.5 45.76 32.34 45.43C32.54 45.63 32.77 45.82 33.02 46.02C33.29 46.23 33.57 46.44 33.85 46.64C34.62 47.2 35.42 47.78 36.01 48.59C36.5 49.26 36.8 50.06 36.99 50.69ZM38.82 53.52C39.07 52.74 39.46 52.06 39.86 51.43L39.99 51.22C40.22 50.85 40.46 50.47 40.68 50.06C40.87 49.71 41.02 49.36 41.14 49.01C41.09 49.28 41.04 49.54 40.99 49.78C40.85 50.43 40.65 50.99 40.42 51.47C40.13 52.03 39.76 52.48 39.43 52.83L39.37 52.9C39.2 53.08 39 53.29 38.82 53.52ZM38.59 53.2C38.59 52.56 38.63 51.73 38.87 50.99C39.16 50.08 39.71 49.36 40.23 48.66C40.42 48.41 40.61 48.16 40.79 47.9C40.95 47.66 41.09 47.44 41.21 47.22C41.16 47.56 41.11 47.87 41.04 48.17C40.91 48.72 40.72 49.26 40.47 49.76C40.25 50.21 39.98 50.63 39.72 51.04C39.43 51.5 39.13 51.97 38.88 52.49C38.77 52.73 38.67 52.97 38.59 53.2ZM39.86 57.52C40.27 56.97 40.82 56.54 41.34 56.13L41.52 56C41.84 55.75 42.17 55.5 42.48 55.23C42.74 55 42.96 54.76 43.16 54.51C43.06 54.7 42.96 54.87 42.86 55.04C42.58 55.52 42.25 55.93 41.91 56.25C41.5 56.64 41.02 56.9 40.61 57.12L40.53 57.16C40.32 57.27 40.09 57.39 39.86 57.52ZM39.68 57.23C39.82 56.73 40.04 56.1 40.44 55.58C40.94 54.92 41.65 54.47 42.34 54.02C42.58 53.87 42.83 53.71 43.07 53.54C43.29 53.39 43.47 53.25 43.64 53.1C43.52 53.34 43.4 53.57 43.27 53.78C43.03 54.2 42.71 54.58 42.34 54.92C42.02 55.22 41.65 55.5 41.3 55.77C40.91 56.07 40.5 56.39 40.13 56.74C39.96 56.9 39.81 57.07 39.68 57.23ZM40.44 62.11C40.78 61.67 41.21 61.32 41.62 60.99L41.77 60.88C42.03 60.68 42.3 60.46 42.56 60.24C42.74 60.06 42.91 59.89 43.05 59.71C42.99 59.83 42.92 59.96 42.86 60.07C42.62 60.47 42.36 60.81 42.08 61.08C41.74 61.41 41.35 61.63 41.02 61.8L40.96 61.84C40.79 61.92 40.62 62.01 40.44 62.11ZM40.28 61.86C40.39 61.44 40.57 60.94 40.88 60.51C41.29 59.96 41.87 59.58 42.43 59.21C42.63 59.08 42.83 58.95 43.03 58.81C43.19 58.7 43.33 58.58 43.46 58.47C43.37 58.66 43.28 58.83 43.18 59C42.98 59.34 42.73 59.66 42.43 59.95C42.16 60.2 41.86 60.43 41.58 60.66C41.25 60.91 40.91 61.17 40.62 61.47C40.49 61.6 40.38 61.73 40.28 61.86ZM34.45 59.81C34.75 59.91 35.06 59.98 35.4 60.02C35.8 60.06 36.2 60.08 36.59 60.09L36.6 60.09C36.66 60.1 36.74 60.1 36.81 60.1C37.45 60.13 38.13 60.17 38.79 60.41C38.53 60.43 38.28 60.47 38.05 60.51L37.98 60.52C37.54 60.59 37.03 60.65 36.49 60.57C36.03 60.5 35.54 60.34 35.03 60.11C34.84 60.02 34.65 59.92 34.45 59.81ZM33.21 58.87C33.42 58.89 33.65 58.9 33.91 58.9C34.18 58.9 34.47 58.89 34.74 58.87C35.52 58.83 36.32 58.78 37.1 59.05C37.73 59.26 38.3 59.68 38.72 60.04C38.52 59.98 38.31 59.92 38.08 59.89C37.59 59.8 37.09 59.79 36.62 59.77C36.19 59.75 35.75 59.73 35.32 59.67C34.84 59.6 34.37 59.46 33.93 59.25C33.69 59.14 33.46 59.02 33.21 58.87Z" fill="#1B3764" fill-opacity="1.000000" fill-rule="nonzero"/>
	<path id="Vector" d="" fill="#1B3764" fill-opacity="1.000000" fill-rule="nonzero"/>
</svg>
