<svg width="95.219727" height="88.984741" viewBox="0 0 95.2197 88.9847" fill="none" xmlns="http://www.w3.org/2000/svg" xmlns:xlink="http://www.w3.org/1999/xlink">
	<desc>
			Created with Pixso.
	</desc>
	<defs/>
	<path id="Vector" d="M18.01 11.17L20.15 11.17L23.11 19.76L21.07 19.76L20.49 17.84L17.66 17.84L17.08 19.76L15.04 19.76L18.01 11.17ZM20.07 16.47L19.08 13.17L18.08 16.47L20.07 16.47Z" fill="#1B3764" fill-opacity="1.000000" fill-rule="nonzero"/>
	<path id="Vector" d="M33.15 19.76L33.15 14.64L31.3 18.37L30.21 18.37L28.36 14.64L28.36 19.76L26.37 19.76L26.37 11.17L28.53 11.17L30.75 15.66L32.99 11.17L35.13 11.17L35.13 19.76L33.15 19.76Z" fill="#1B3764" fill-opacity="1.000000" fill-rule="nonzero"/>
	<path id="Vector" d="M41.37 11.17L43.52 11.17L46.47 19.76L44.44 19.76L43.86 17.84L41.03 17.84L40.44 19.76L38.41 19.76L41.37 11.17ZM43.44 16.47L42.44 13.17L41.44 16.47L43.44 16.47Z" fill="#1B3764" fill-opacity="1.000000" fill-rule="nonzero"/>
	<path id="Vector" d="M49.25 18.28L53.64 12.91L49.43 12.91L49.43 11.17L56.02 11.17L56.02 12.66L51.85 18.02L56.07 18.02L56.07 19.77L49.25 19.77L49.25 18.28Z" fill="#1B3764" fill-opacity="1.000000" fill-rule="nonzero"/>
	<path id="Vector" d="M65.77 18.02L65.77 19.76L59.73 19.76L59.73 11.17L65.66 11.17L65.66 12.91L61.71 12.91L61.71 14.58L65.1 14.58L65.1 16.19L61.71 16.19L61.71 18.02L65.77 18.02Z" fill="#1B3764" fill-opacity="1.000000" fill-rule="nonzero"/>
	<path id="Vector" d="M71.39 14.85L71.39 19.77L69.4 19.77L69.4 11.17L70.98 11.17L74.96 16.23L74.96 11.17L76.95 11.17L76.95 19.76L75.33 19.76L71.39 14.85Z" fill="#1B3764" fill-opacity="1.000000" fill-rule="nonzero"/>
	<path id="Vector" d="M24.31 29.91C24.31 29.39 24.41 28.87 24.6 28.37C24.79 27.86 25.08 27.4 25.45 26.99C25.82 26.58 26.27 26.25 26.8 26.01C27.34 25.76 27.94 25.64 28.62 25.64C29.42 25.64 30.13 25.81 30.72 26.16C31.31 26.51 31.75 26.96 32.04 27.51L30.52 28.58C30.39 28.27 30.22 28.03 30 27.87C29.79 27.7 29.55 27.58 29.3 27.51C29.05 27.44 28.8 27.4 28.57 27.4C28.19 27.4 27.86 27.48 27.58 27.63C27.3 27.78 27.07 27.98 26.88 28.23C26.7 28.48 26.56 28.76 26.47 29.06C26.38 29.37 26.33 29.68 26.33 29.98C26.33 30.32 26.38 30.65 26.49 30.97C26.59 31.28 26.75 31.56 26.94 31.8C27.14 32.04 27.38 32.23 27.66 32.38C27.95 32.52 28.26 32.59 28.6 32.59C28.84 32.59 29.08 32.54 29.34 32.46C29.59 32.38 29.82 32.25 30.03 32.08C30.25 31.91 30.41 31.68 30.52 31.4L32.15 32.36C31.98 32.78 31.7 33.13 31.31 33.43C30.92 33.73 30.48 33.96 30 34.12C29.51 34.27 29.03 34.35 28.55 34.35C27.93 34.35 27.35 34.23 26.83 33.97C26.31 33.72 25.86 33.38 25.49 32.96C25.12 32.53 24.82 32.06 24.62 31.53C24.41 31 24.31 30.46 24.31 29.91Z" fill="#1B3764" fill-opacity="1.000000" fill-rule="nonzero"/>
	<path id="Vector" d="M39.2 34.35C38.56 34.35 37.97 34.23 37.45 33.98C36.93 33.74 36.48 33.41 36.11 32.99C35.74 32.58 35.45 32.11 35.24 31.59C35.04 31.07 34.94 30.53 34.94 29.97C34.94 29.4 35.05 28.86 35.26 28.34C35.47 27.82 35.77 27.36 36.16 26.96C36.54 26.55 36.99 26.23 37.52 25.99C38.04 25.76 38.61 25.64 39.23 25.64C39.87 25.64 40.45 25.76 40.97 26.01C41.49 26.26 41.94 26.59 42.31 27.01C42.69 27.43 42.98 27.9 43.18 28.42C43.38 28.94 43.48 29.47 43.48 30.01C43.48 30.59 43.38 31.13 43.17 31.65C42.96 32.16 42.66 32.62 42.27 33.03C41.89 33.44 41.43 33.76 40.91 34C40.4 34.24 39.82 34.35 39.2 34.35ZM36.96 29.99C36.96 30.33 37.01 30.65 37.11 30.96C37.2 31.27 37.35 31.54 37.54 31.78C37.73 32.03 37.96 32.22 38.25 32.36C38.53 32.51 38.85 32.58 39.22 32.58C39.59 32.58 39.93 32.51 40.21 32.36C40.49 32.21 40.72 32.01 40.91 31.76C41.09 31.51 41.23 31.23 41.32 30.92C41.42 30.61 41.46 30.29 41.46 29.97C41.46 29.64 41.42 29.32 41.32 29.01C41.22 28.71 41.07 28.43 40.88 28.18C40.69 27.93 40.45 27.74 40.16 27.61C39.88 27.47 39.56 27.4 39.21 27.4C38.83 27.4 38.5 27.47 38.22 27.62C37.94 27.77 37.71 27.96 37.52 28.21C37.33 28.45 37.19 28.73 37.1 29.04C37.01 29.36 36.96 29.67 36.96 29.99Z" fill="#1B3764" fill-opacity="1.000000" fill-rule="nonzero"/>
	<path id="Vector" d="M47.06 34.29L47.06 25.7L50.93 25.7C51.34 25.7 51.71 25.78 52.06 25.94C52.4 26.11 52.69 26.33 52.95 26.61C53.2 26.89 53.39 27.2 53.53 27.55C53.68 27.9 53.74 28.25 53.74 28.61C53.74 28.96 53.69 29.3 53.58 29.62C53.46 29.94 53.3 30.22 53.09 30.48C52.88 30.73 52.63 30.94 52.34 31.1L54.23 34.29L52.04 34.29L50.39 31.52L49.05 31.52L49.05 34.29L47.06 34.29L47.06 34.29ZM49.05 29.79L50.86 29.79C51.02 29.79 51.17 29.74 51.29 29.64C51.42 29.54 51.52 29.4 51.6 29.22C51.68 29.05 51.72 28.84 51.72 28.61C51.72 28.37 51.67 28.17 51.58 27.99C51.49 27.82 51.37 27.68 51.24 27.58C51.1 27.49 50.96 27.44 50.8 27.44L49.05 27.44L49.05 29.79Z" fill="#1B3764" fill-opacity="1.000000" fill-rule="nonzero"/>
	<path id="Vector" d="M57.59 34.29L57.59 25.7L61.26 25.7C61.67 25.7 62.05 25.78 62.4 25.94C62.74 26.11 63.04 26.33 63.29 26.61C63.54 26.89 63.73 27.2 63.87 27.55C64 27.9 64.07 28.25 64.07 28.62C64.07 29.11 63.96 29.58 63.73 30.02C63.5 30.47 63.18 30.83 62.77 31.1C62.36 31.38 61.88 31.52 61.32 31.52L59.58 31.52L59.58 34.29L57.59 34.29ZM59.58 29.79L61.2 29.79C61.35 29.79 61.49 29.74 61.62 29.65C61.75 29.57 61.86 29.43 61.94 29.26C62.01 29.08 62.06 28.86 62.06 28.6C62.06 28.34 62.01 28.11 61.92 27.94C61.83 27.77 61.71 27.64 61.57 27.56C61.42 27.48 61.28 27.44 61.12 27.44L59.58 27.44L59.58 29.79Z" fill="#1B3764" fill-opacity="1.000000" fill-rule="nonzero"/>
	<path id="Vector" d="M66.56 34.29L66.56 32.32L68.15 32.32L68.15 34.29L66.56 34.29Z" fill="#1B3764" fill-opacity="1.000000" fill-rule="nonzero"/>
	<path id="Vector" d="M18.91 70.01L18.91 70.2C18.72 70.24 18.58 70.3 18.49 70.39C18.39 70.48 18.33 70.63 18.3 70.82C18.27 71.01 18.25 71.29 18.25 71.64L18.25 76.56C18.16 76.55 18.06 76.55 17.95 76.55C17.84 76.55 17.73 76.55 17.6 76.56L13.5 72.08L13.5 74.75C13.5 75.16 13.52 75.48 13.55 75.7C13.59 75.92 13.67 76.08 13.8 76.17C13.93 76.27 14.14 76.33 14.43 76.38L14.43 76.56C14.31 76.55 14.15 76.54 13.95 76.54C13.75 76.53 13.57 76.53 13.4 76.53C13.26 76.53 13.12 76.53 12.98 76.54C12.84 76.54 12.72 76.55 12.63 76.56L12.63 76.38C12.82 76.34 12.96 76.27 13.05 76.18C13.15 76.09 13.21 75.95 13.24 75.75C13.27 75.56 13.28 75.28 13.28 74.94L13.28 71C13.28 70.77 13.27 70.6 13.24 70.49C13.21 70.38 13.15 70.31 13.05 70.27C12.95 70.23 12.81 70.21 12.63 70.2L12.63 70.01C12.72 70.02 12.84 70.03 12.98 70.03C13.12 70.03 13.26 70.04 13.4 70.04C13.55 70.04 13.7 70.03 13.85 70.03C14 70.03 14.13 70.02 14.25 70.01L18.04 74.01L18.04 71.83C18.04 71.42 18.02 71.1 17.99 70.88C17.95 70.66 17.87 70.5 17.74 70.4C17.61 70.31 17.4 70.24 17.1 70.2L17.1 70.02C17.23 70.02 17.39 70.03 17.59 70.03C17.79 70.04 17.97 70.04 18.14 70.04C18.28 70.04 18.42 70.04 18.56 70.03C18.7 70.03 18.81 70.02 18.91 70.01Z" fill="#1B3764" fill-opacity="1.000000" fill-rule="nonzero"/>
	<path id="Vector" d="M26.88 70.01C26.85 70.32 26.83 70.62 26.83 70.91C26.82 71.19 26.81 71.42 26.81 71.57C26.81 71.7 26.82 71.82 26.82 71.94C26.83 72.06 26.83 72.15 26.84 72.24L26.62 72.24C26.55 71.73 26.43 71.32 26.25 71.03C26.08 70.74 25.88 70.53 25.65 70.41C25.42 70.29 25.18 70.23 24.92 70.23L24.8 70.23C24.64 70.23 24.52 70.24 24.44 70.27C24.36 70.3 24.31 70.35 24.28 70.43C24.25 70.51 24.24 70.64 24.24 70.81L24.24 75.77C24.24 75.94 24.25 76.06 24.28 76.14C24.31 76.23 24.36 76.28 24.44 76.31C24.52 76.34 24.64 76.35 24.8 76.35L25.11 76.35C25.31 76.35 25.53 76.29 25.75 76.16C25.98 76.02 26.18 75.8 26.38 75.48C26.57 75.16 26.71 74.72 26.81 74.16L27.03 74.16C27.01 74.38 27 74.67 27 75.01C27 75.17 27 75.39 27.01 75.68C27.01 75.96 27.03 76.26 27.06 76.57C26.75 76.56 26.39 76.55 26 76.55C25.6 76.54 25.25 76.54 24.94 76.54C24.72 76.54 24.42 76.54 24.05 76.54C23.68 76.54 23.28 76.54 22.87 76.55C22.45 76.55 22.06 76.56 21.7 76.57L21.7 76.39C21.9 76.37 22.04 76.35 22.13 76.31C22.22 76.27 22.28 76.2 22.31 76.09C22.34 75.98 22.36 75.81 22.36 75.59L22.36 71C22.36 70.77 22.34 70.6 22.31 70.49C22.28 70.38 22.22 70.31 22.12 70.27C22.03 70.23 21.89 70.21 21.7 70.2L21.7 70.01C22.06 70.02 22.45 70.03 22.87 70.03C23.28 70.03 23.68 70.04 24.05 70.04C24.42 70.04 24.72 70.04 24.94 70.04C25.23 70.04 25.55 70.04 25.91 70.03C26.27 70.03 26.59 70.03 26.88 70.01ZM25.53 73.18L25.53 73.36L23.96 73.36L23.96 73.18L25.53 73.18ZM25.8 71.96C25.78 72.31 25.77 72.58 25.77 72.76C25.77 72.95 25.77 73.12 25.77 73.27C25.77 73.43 25.78 73.6 25.78 73.78C25.78 73.96 25.8 74.23 25.83 74.59L25.61 74.59C25.57 74.36 25.5 74.15 25.39 73.96C25.27 73.78 25.12 73.63 24.94 73.52C24.76 73.41 24.56 73.36 24.32 73.36L24.32 73.18C24.56 73.18 24.76 73.11 24.93 72.98C25.1 72.85 25.25 72.69 25.36 72.5C25.46 72.31 25.54 72.13 25.58 71.95L25.8 71.95L25.8 71.96Z" fill="#1B3764" fill-opacity="1.000000" fill-rule="nonzero"/>
	<path id="Vector" d="M32.37 70.01L32.37 70.2C32.27 70.22 32.2 70.27 32.16 70.36C32.13 70.45 32.12 70.56 32.13 70.67C32.15 70.78 32.17 70.89 32.2 70.98L33.6 74.91L33.34 75.31L34.45 72.31L34.58 72.57L33.16 76.57C33.09 76.57 33.01 76.56 32.93 76.56C32.85 76.56 32.76 76.56 32.67 76.56C32.59 76.56 32.51 76.56 32.43 76.56C32.35 76.56 32.27 76.57 32.2 76.57L30.05 70.8C29.97 70.58 29.88 70.43 29.78 70.35C29.68 70.26 29.59 70.21 29.5 70.21L29.5 70.02C29.73 70.03 29.99 70.03 30.29 70.04C30.58 70.04 30.87 70.05 31.14 70.05C31.41 70.05 31.65 70.04 31.86 70.04C32.07 70.03 32.24 70.02 32.37 70.01ZM39.06 70.01L39.06 70.2C38.92 70.27 38.77 70.4 38.62 70.6C38.46 70.79 38.33 71.09 38.2 71.5L36.65 76.57C36.57 76.56 36.5 76.56 36.41 76.56C36.33 76.56 36.25 76.55 36.16 76.55C36.08 76.55 36 76.55 35.91 76.56C35.83 76.56 35.75 76.56 35.68 76.57L33.74 70.64C33.69 70.48 33.62 70.36 33.54 70.3C33.46 70.24 33.37 70.21 33.27 70.2L33.27 70.02C33.48 70.02 33.72 70.03 34 70.03C34.29 70.04 34.58 70.04 34.87 70.04C35.16 70.04 35.43 70.04 35.68 70.03C35.94 70.03 36.15 70.02 36.3 70.02L36.3 70.2C36.11 70.21 35.96 70.23 35.86 70.27C35.75 70.32 35.69 70.39 35.68 70.5C35.66 70.61 35.69 70.77 35.76 70.98L37.03 74.83L36.76 75.4L37.7 72.41C37.87 71.86 37.96 71.42 37.95 71.11C37.94 70.79 37.87 70.56 37.73 70.42C37.58 70.28 37.39 70.21 37.14 70.2L37.14 70.02C37.38 70.02 37.58 70.03 37.77 70.03C37.95 70.04 38.14 70.04 38.35 70.04C38.48 70.04 38.6 70.04 38.73 70.03C38.86 70.03 38.97 70.02 39.06 70.01Z" fill="#1B3764" fill-opacity="1.000000" fill-rule="nonzero"/>
	<path id="Vector" d="M51.21 70.01L51.21 70.19C51.07 70.26 50.91 70.39 50.75 70.57C50.59 70.76 50.42 71.04 50.23 71.42L48.56 74.73L47.94 74.73L45.77 70.72C45.67 70.52 45.57 70.39 45.48 70.31C45.38 70.24 45.3 70.2 45.24 70.2L45.24 70.01C45.43 70.03 45.63 70.04 45.83 70.05C46.04 70.06 46.27 70.06 46.51 70.06C46.83 70.06 47.17 70.06 47.54 70.05C47.9 70.03 48.24 70.02 48.55 70.01L48.55 70.2C48.39 70.2 48.25 70.21 48.13 70.22C48 70.23 47.9 70.26 47.85 70.31C47.79 70.35 47.79 70.43 47.85 70.55L49.25 73.23L48.81 73.81L49.59 72.26C49.85 71.74 49.99 71.34 50.02 71.04C50.04 70.75 49.99 70.53 49.85 70.4C49.72 70.27 49.52 70.2 49.28 70.19L49.28 70.01C49.51 70.01 49.72 70.02 49.9 70.02C50.08 70.03 50.28 70.03 50.49 70.03C50.61 70.03 50.74 70.03 50.87 70.02C51 70.02 51.12 70.01 51.21 70.01ZM49.36 72.93L49.36 75.59C49.36 75.81 49.38 75.98 49.41 76.09C49.45 76.19 49.51 76.27 49.6 76.31C49.7 76.35 49.83 76.37 50.02 76.38L50.02 76.57C49.84 76.56 49.6 76.55 49.31 76.54C49.01 76.54 48.72 76.54 48.43 76.54C48.11 76.54 47.81 76.54 47.52 76.54C47.22 76.55 46.99 76.56 46.83 76.57L46.83 76.38C47.02 76.37 47.16 76.35 47.25 76.31C47.34 76.27 47.41 76.2 47.44 76.09C47.47 75.98 47.48 75.81 47.48 75.59L47.48 73.69L48.49 74.26L49.36 72.93Z" fill="#1B3764" fill-opacity="1.000000" fill-rule="nonzero"/>
	<path id="Vector" d="M56.96 69.88C57.66 69.88 58.27 70.02 58.79 70.28C59.32 70.55 59.73 70.93 60.02 71.42C60.31 71.92 60.45 72.52 60.45 73.23C60.45 73.93 60.31 74.53 60.01 75.05C59.71 75.56 59.3 75.97 58.77 76.26C58.25 76.55 57.64 76.7 56.96 76.7C56.26 76.7 55.65 76.56 55.12 76.3C54.6 76.04 54.19 75.65 53.9 75.15C53.61 74.65 53.47 74.05 53.47 73.35C53.47 72.66 53.62 72.05 53.92 71.53C54.21 71.02 54.63 70.61 55.15 70.32C55.68 70.03 56.28 69.88 56.96 69.88ZM56.93 70.05C56.62 70.05 56.35 70.19 56.12 70.47C55.89 70.74 55.72 71.13 55.59 71.61C55.47 72.1 55.41 72.67 55.41 73.31C55.41 73.96 55.48 74.53 55.62 75.01C55.76 75.5 55.95 75.87 56.2 76.14C56.44 76.4 56.7 76.53 56.99 76.53C57.3 76.53 57.57 76.39 57.8 76.11C58.03 75.84 58.2 75.45 58.33 74.96C58.45 74.47 58.51 73.91 58.51 73.28C58.51 72.62 58.44 72.05 58.3 71.56C58.16 71.08 57.97 70.71 57.72 70.45C57.48 70.18 57.22 70.05 56.93 70.05Z" fill="#1B3764" fill-opacity="1.000000" fill-rule="nonzero"/>
	<path id="Vector" d="M63.28 70.01C63.46 70.02 63.7 70.03 63.99 70.03C64.29 70.03 64.58 70.04 64.88 70.04C65.19 70.04 65.48 70.03 65.77 70.03C66.05 70.03 66.25 70.02 66.37 70.02C67.31 70.02 68.01 70.15 68.46 70.42C68.92 70.68 69.15 71.08 69.15 71.63C69.15 71.86 69.11 72.08 69.01 72.3C68.92 72.52 68.77 72.71 68.54 72.89C68.32 73.07 68.02 73.2 67.63 73.31C67.25 73.41 66.76 73.46 66.17 73.46L65.28 73.46L65.28 73.27L66.08 73.27C66.39 73.27 66.63 73.2 66.79 73.06C66.96 72.92 67.07 72.74 67.12 72.51C67.18 72.28 67.21 72.02 67.21 71.74C67.21 71.25 67.15 70.87 67.02 70.6C66.88 70.33 66.66 70.2 66.33 70.2C66.12 70.2 65.98 70.25 65.92 70.35C65.86 70.46 65.83 70.67 65.83 70.99L65.83 75.58C65.83 75.8 65.84 75.97 65.88 76.08C65.91 76.19 65.97 76.27 66.07 76.3C66.16 76.34 66.3 76.37 66.48 76.38L66.48 76.56C66.3 76.55 66.08 76.54 65.79 76.54C65.51 76.53 65.23 76.53 64.94 76.53C64.61 76.53 64.29 76.53 64 76.54C63.7 76.54 63.47 76.55 63.29 76.56L63.29 76.38C63.48 76.37 63.62 76.34 63.71 76.3C63.8 76.27 63.87 76.19 63.9 76.08C63.93 75.97 63.94 75.8 63.94 75.58L63.94 71C63.94 70.77 63.93 70.6 63.9 70.49C63.87 70.38 63.8 70.31 63.71 70.27C63.61 70.23 63.47 70.21 63.29 70.2L63.29 70.01L63.28 70.01ZM65.22 73.3C65.44 73.3 65.65 73.31 65.85 73.33C66.05 73.35 66.23 73.37 66.39 73.39C66.56 73.4 66.7 73.41 66.82 73.42C67.48 73.45 67.97 73.57 68.3 73.76C68.64 73.96 68.84 74.25 68.91 74.63L69.1 75.59C69.15 75.82 69.21 75.98 69.27 76.06C69.33 76.15 69.42 76.19 69.52 76.19C69.59 76.19 69.64 76.19 69.68 76.16C69.72 76.15 69.77 76.11 69.81 76.07L69.93 76.19C69.74 76.39 69.53 76.52 69.3 76.59C69.08 76.66 68.83 76.69 68.54 76.69C68.14 76.69 67.81 76.62 67.57 76.48C67.32 76.33 67.17 76.07 67.12 75.69L66.98 74.77C66.94 74.52 66.89 74.29 66.84 74.09C66.79 73.9 66.71 73.74 66.62 73.63C66.52 73.52 66.4 73.46 66.24 73.46L65.24 73.46L65.22 73.3Z" fill="#1B3764" fill-opacity="1.000000" fill-rule="nonzero"/>
	<path id="Vector" d="M75.46 70.01L75.46 70.2C75.28 70.2 75.14 70.23 75.04 70.27C74.95 70.31 74.88 70.38 74.86 70.49C74.83 70.6 74.81 70.77 74.81 71L74.81 75.59C74.81 75.81 74.83 75.98 74.86 76.08C74.89 76.19 74.96 76.27 75.05 76.31C75.14 76.35 75.28 76.37 75.46 76.38L75.46 76.57C75.28 76.56 75.06 76.55 74.78 76.54C74.49 76.54 74.21 76.54 73.92 76.54C73.59 76.54 73.27 76.54 72.98 76.54C72.68 76.55 72.45 76.56 72.27 76.57L72.27 76.38C72.46 76.37 72.6 76.35 72.69 76.31C72.79 76.27 72.85 76.2 72.88 76.08C72.91 75.98 72.92 75.81 72.92 75.59L72.92 71C72.92 70.77 72.91 70.6 72.88 70.49C72.85 70.38 72.79 70.31 72.69 70.27C72.59 70.23 72.45 70.21 72.27 70.2L72.27 70.01C72.45 70.02 72.68 70.03 72.98 70.03C73.27 70.03 73.58 70.04 73.92 70.04C74.21 70.04 74.49 70.03 74.78 70.03C75.06 70.03 75.28 70.02 75.46 70.01ZM78.85 70.01L78.85 70.19C78.64 70.24 78.41 70.35 78.16 70.5C77.9 70.64 77.63 70.88 77.34 71.21L75.63 73.15L76.38 72.16L78.58 75.82C78.66 75.95 78.73 76.06 78.81 76.14C78.89 76.23 79 76.31 79.14 76.38L79.14 76.57C78.88 76.56 78.6 76.55 78.31 76.54C78.02 76.54 77.74 76.54 77.47 76.54C77.33 76.54 77.16 76.54 76.95 76.54C76.74 76.55 76.47 76.56 76.15 76.57L76.15 76.38C76.44 76.37 76.61 76.34 76.65 76.28C76.7 76.23 76.68 76.12 76.58 75.97L75.24 73.7C75.17 73.59 75.12 73.51 75.07 73.45C75.02 73.4 74.97 73.36 74.93 73.33C74.88 73.31 74.82 73.29 74.75 73.28L74.75 73.09C75.02 73.08 75.27 72.99 75.51 72.82C75.75 72.65 76.04 72.37 76.38 71.99L76.7 71.64C76.96 71.35 77.09 71.1 77.11 70.88C77.13 70.67 77.06 70.5 76.92 70.38C76.77 70.26 76.58 70.2 76.35 70.19L76.35 70.02C76.61 70.02 76.85 70.03 77.06 70.03C77.28 70.04 77.56 70.04 77.91 70.04C78.29 70.04 78.6 70.03 78.85 70.01Z" fill="#1B3764" fill-opacity="1.000000" fill-rule="nonzero"/>
	<path id="Vector" d="M95.21 88.98L0 88.98L0 0L95.21 0L95.21 88.98ZM0.51 88.47L94.7 88.47L94.7 0.51L0.51 0.51L0.51 88.47Z" fill="#1B3764" fill-opacity="1.000000" fill-rule="nonzero"/>
	<path id="Vector" d="M0 58.36L95.2 58.36L95.2 58.89L0 58.89L0 58.36Z" fill="#1B3764" fill-opacity="1.000000" fill-rule="evenodd"/>
	<path id="Vector" d="M47.16 49.33C39.55 49.33 34.19 45.5 34.12 45.44C33.77 45.19 33.7 44.7 33.95 44.36C34.2 44.02 34.68 43.94 35.03 44.19C35.48 44.52 46.35 52.25 59.09 44.16C59.45 43.94 59.93 44.04 60.16 44.4C60.39 44.76 60.28 45.24 59.92 45.47C55.36 48.36 50.97 49.33 47.16 49.33Z" fill="#1B3764" fill-opacity="1.000000" fill-rule="nonzero"/>
	<path id="Vector" d="M34.63 45.22C34.32 45.22 34.02 45.02 33.91 44.7C33.77 44.31 33.97 43.86 34.37 43.72L39.32 41.95C39.72 41.8 40.16 42.01 40.31 42.41C40.45 42.81 40.24 43.26 39.84 43.4L34.9 45.17C34.81 45.2 34.72 45.22 34.63 45.22Z" fill="#1B3764" fill-opacity="1.000000" fill-rule="nonzero"/>
	<path id="Vector" d="M36.76 50.9C36.45 50.9 36.17 50.72 36.05 50.43L33.77 45.02C33.6 44.63 33.78 44.18 34.18 44.01C34.57 43.85 35.02 44.03 35.19 44.42L37.47 49.83C37.63 50.22 37.45 50.67 37.06 50.84C36.96 50.88 36.86 50.9 36.76 50.9Z" fill="#1B3764" fill-opacity="1.000000" fill-rule="nonzero"/>
</svg>
