<svg width="24.000000" height="23.000000" viewBox="0 0 24 23" fill="none" xmlns="http://www.w3.org/2000/svg" xmlns:xlink="http://www.w3.org/1999/xlink">
	<desc>
			Created with Pixso.
	</desc>
	<defs/>
	<path id="Vector" d="M9 21.75C8.44 21.75 8 21.3 8 20.75C8 20.19 8.44 19.75 9 19.75C9.55 19.75 10 20.19 10 20.75C10 21.3 9.55 21.75 9 21.75ZM20 21.75C19.44 21.75 19 21.3 19 20.75C19 20.19 19.44 19.75 20 19.75C20.55 19.75 21 20.19 21 20.75C21 21.3 20.55 21.75 20 21.75ZM1 0.75L5 0.75L7.67 14.14C7.77 14.6 8.02 15.01 8.38 15.3C8.75 15.6 9.21 15.75 9.67 15.75L19.4 15.75C19.86 15.75 20.32 15.6 20.69 15.3C21.05 15.01 21.3 14.6 21.4 14.14L23 5.75L6 5.75" stroke="#FFFFFF" stroke-opacity="1.000000" stroke-width="2.000000" stroke-linejoin="round" stroke-linecap="round"/>
</svg>
